<?xml version="1.0" encoding="utf-8" standalone="no"?>
<!DOCTYPE svg PUBLIC "-//W3C//DTD SVG 1.1//EN"
  "http://www.w3.org/Graphics/SVG/1.1/DTD/svg11.dtd">
<svg height="691.2pt" version="1.1" viewBox="0 0 921.6 691.2" width="921.6pt" xmlns="http://www.w3.org/2000/svg" xmlns:xlink="http://www.w3.org/1999/xlink">
 <metadata>
  <rdf:RDF xmlns:cc="http://creativecommons.org/ns#" xmlns:dc="http://purl.org/dc/elements/1.1/" xmlns:rdf="http://www.w3.org/1999/02/22-rdf-syntax-ns#">
   <cc:Work>
    <dc:type rdf:resource="http://purl.org/dc/dcmitype/StillImage"/>
    <dc:date>2021-06-28T17:59:09.531512</dc:date>
    <dc:format>image/svg+xml</dc:format>
    <dc:creator>
     <cc:Agent>
      <dc:title>Matplotlib v3.4.2, https://matplotlib.org/</dc:title>
     </cc:Agent>
    </dc:creator>
   </cc:Work>
  </rdf:RDF>
 </metadata>
 <defs>
  <style type="text/css">*{stroke-linecap:butt;stroke-linejoin:round;}</style>
 </defs>
 <g id="figure_1">
  <g id="patch_1">
   <path d="M 0 691.2 
L 921.6 691.2 
L 921.6 0 
L 0 0 
z
" style="fill:#ffffff;"/>
  </g>
  <g id="axes_1">
   <g id="patch_2">
    <path d="M 115.2 615.168 
L 829.44 615.168 
L 829.44 82.944 
L 115.2 82.944 
z
" style="fill:#ffffff;"/>
   </g>
   <g id="LineCollection_1">
    <path clip-path="url(#p99d66b13f4)" d="M 115.2 692.2 
L 115.2 -1 
" style="fill:none;stroke:#d3d3d3;stroke-dasharray:7.5,7.5;stroke-dashoffset:0;stroke-width:1.5;"/>
    <path clip-path="url(#p99d66b13f4)" d="M 293.76 692.2 
L 293.76 -1 
" style="fill:none;stroke:#d3d3d3;stroke-dasharray:7.5,7.5;stroke-dashoffset:0;stroke-width:1.5;"/>
    <path clip-path="url(#p99d66b13f4)" d="M 472.32 692.2 
L 472.32 -1 
" style="fill:none;stroke:#d3d3d3;stroke-dasharray:7.5,7.5;stroke-dashoffset:0;stroke-width:1.5;"/>
    <path clip-path="url(#p99d66b13f4)" d="M 650.88 692.2 
L 650.88 -1 
" style="fill:none;stroke:#d3d3d3;stroke-dasharray:7.5,7.5;stroke-dashoffset:0;stroke-width:1.5;"/>
    <path clip-path="url(#p99d66b13f4)" d="M 829.44 692.2 
L 829.44 -1 
" style="fill:none;stroke:#d3d3d3;stroke-dasharray:7.5,7.5;stroke-dashoffset:0;stroke-width:1.5;"/>
   </g>
   <g id="line2d_1">
    <path clip-path="url(#p99d66b13f4)" d="M 418.752 107.136 
L 472.32 187.776 
" style="fill:none;stroke:#000000;stroke-linecap:square;stroke-width:1.5;"/>
   </g>
   <g id="line2d_2">
    <path clip-path="url(#p99d66b13f4)" d="M 418.752 107.136 
L 436.608 187.776 
" style="fill:none;stroke:#000000;stroke-linecap:square;stroke-width:1.5;"/>
   </g>
   <g id="line2d_3">
    <path clip-path="url(#p99d66b13f4)" d="M 418.752 107.136 
L 383.04 187.776 
" style="fill:none;stroke:#000000;stroke-linecap:square;stroke-width:1.5;"/>
   </g>
   <g id="line2d_4">
    <path clip-path="url(#p99d66b13f4)" d="M 383.04 187.776 
L 418.752 268.416 
" style="fill:none;stroke:#000000;stroke-linecap:square;stroke-width:1.5;"/>
   </g>
   <g id="line2d_5">
    <path clip-path="url(#p99d66b13f4)" d="M 472.32 187.776 
L 472.32 349.056 
" style="fill:none;stroke:#000000;stroke-linecap:square;stroke-width:1.5;"/>
   </g>
   <g id="line2d_6">
    <path clip-path="url(#p99d66b13f4)" d="M 472.32 349.056 
L 454.464 429.696 
" style="fill:none;stroke:#000000;stroke-linecap:square;stroke-width:1.5;"/>
   </g>
   <g id="line2d_7">
    <path clip-path="url(#p99d66b13f4)" d="M 472.32 349.056 
L 597.312 429.696 
" style="fill:none;stroke:#000000;stroke-linecap:square;stroke-width:1.5;"/>
   </g>
   <g id="line2d_8">
    <path clip-path="url(#p99d66b13f4)" d="M 597.312 429.696 
L 686.592 590.976 
" style="fill:none;stroke:#000000;stroke-linecap:square;stroke-width:1.5;"/>
   </g>
   <g id="line2d_9">
    <path clip-path="url(#p99d66b13f4)" d="M 436.608 187.776 
L 418.752 268.416 
" style="fill:none;stroke:#000000;stroke-linecap:square;stroke-width:1.5;"/>
   </g>
   <g id="line2d_10">
    <path clip-path="url(#p99d66b13f4)" d="M 436.608 187.776 
L 633.024 268.416 
" style="fill:none;stroke:#000000;stroke-linecap:square;stroke-width:1.5;"/>
   </g>
   <g id="line2d_11">
    <path clip-path="url(#p99d66b13f4)" d="M 418.752 268.416 
L 454.464 429.696 
" style="fill:none;stroke:#000000;stroke-linecap:square;stroke-width:1.5;"/>
   </g>
   <g id="line2d_12">
    <path clip-path="url(#p99d66b13f4)" d="M 418.752 268.416 
L 686.592 349.056 
" style="fill:none;stroke:#000000;stroke-linecap:square;stroke-width:1.5;"/>
   </g>
   <g id="line2d_13">
    <path clip-path="url(#p99d66b13f4)" d="M 454.464 429.696 
L 436.608 510.336 
" style="fill:none;stroke:#000000;stroke-linecap:square;stroke-width:1.5;"/>
   </g>
   <g id="line2d_14">
    <path clip-path="url(#p99d66b13f4)" d="M 454.464 429.696 
L 543.744 510.336 
" style="fill:none;stroke:#000000;stroke-linecap:square;stroke-width:1.5;"/>
   </g>
   <g id="line2d_15">
    <path clip-path="url(#p99d66b13f4)" d="M 454.464 429.696 
L 686.592 590.976 
" style="fill:none;stroke:#000000;stroke-linecap:square;stroke-width:1.5;"/>
   </g>
   <g id="line2d_16">
    <path clip-path="url(#p99d66b13f4)" d="M 454.464 429.696 
L 615.168 590.976 
" style="fill:none;stroke:#000000;stroke-linecap:square;stroke-width:1.5;"/>
   </g>
   <g id="line2d_17">
    <path clip-path="url(#p99d66b13f4)" d="M 543.744 510.336 
L 686.592 590.976 
" style="fill:none;stroke:#000000;stroke-linecap:square;stroke-width:1.5;"/>
   </g>
   <g id="PathCollection_1">
    <defs>
     <path d="M 0 3 
C 0.795609 3 1.55874 2.683901 2.12132 2.12132 
C 2.683901 1.55874 3 0.795609 3 0 
C 3 -0.795609 2.683901 -1.55874 2.12132 -2.12132 
C 1.55874 -2.683901 0.795609 -3 0 -3 
C -0.795609 -3 -1.55874 -2.683901 -2.12132 -2.12132 
C -2.683901 -1.55874 -3 -0.795609 -3 0 
C -3 0.795609 -2.683901 1.55874 -2.12132 2.12132 
C -1.55874 2.683901 -0.795609 3 0 3 
z
" id="m1dbf26dea1" style="stroke:#000000;"/>
    </defs>
    <g clip-path="url(#p99d66b13f4)">
     <use style="fill:#ffffff;stroke:#000000;" x="418.752" xlink:href="#m1dbf26dea1" y="107.136"/>
     <use style="fill:#ffffff;stroke:#000000;" x="383.04" xlink:href="#m1dbf26dea1" y="187.776"/>
     <use style="fill:#ffffff;stroke:#000000;" x="472.32" xlink:href="#m1dbf26dea1" y="187.776"/>
     <use style="fill:#ffffff;stroke:#000000;" x="472.32" xlink:href="#m1dbf26dea1" y="349.056"/>
     <use style="fill:#ffffff;stroke:#000000;" x="597.312" xlink:href="#m1dbf26dea1" y="429.696"/>
     <use style="fill:#ffffff;stroke:#000000;" x="436.608" xlink:href="#m1dbf26dea1" y="187.776"/>
     <use style="fill:#ffffff;stroke:#000000;" x="633.024" xlink:href="#m1dbf26dea1" y="268.416"/>
     <use style="fill:#ffffff;stroke:#000000;" x="418.752" xlink:href="#m1dbf26dea1" y="268.416"/>
     <use style="fill:#ffffff;stroke:#000000;" x="686.592" xlink:href="#m1dbf26dea1" y="349.056"/>
     <use style="fill:#ffffff;stroke:#000000;" x="454.464" xlink:href="#m1dbf26dea1" y="429.696"/>
     <use style="fill:#ffffff;stroke:#000000;" x="436.608" xlink:href="#m1dbf26dea1" y="510.336"/>
     <use style="fill:#ffffff;stroke:#000000;" x="543.744" xlink:href="#m1dbf26dea1" y="510.336"/>
     <use style="fill:#ffffff;stroke:#000000;" x="686.592" xlink:href="#m1dbf26dea1" y="590.976"/>
     <use style="fill:#ffffff;stroke:#000000;" x="615.168" xlink:href="#m1dbf26dea1" y="590.976"/>
    </g>
   </g>
   <g id="matplotlib.axis_1">
    <g id="xtick_1">
     <g id="line2d_18">
      <defs>
       <path d="M 0 0 
L 0 3.5 
" id="m251959cf3e" style="stroke:#000000;stroke-width:0.8;"/>
      </defs>
      <g>
       <use style="stroke:#000000;stroke-width:0.8;" x="115.2" xlink:href="#m251959cf3e" y="615.168"/>
      </g>
     </g>
     <g id="text_1">
      <!-- Genesis -->
      <g transform="translate(115.2 629.766437)scale(0.1 -0.1)">
       <defs>
        <path d="M 3494 697 
L 3738 1919 
L 2700 1919 
L 2797 2438 
L 4453 2438 
L 4050 384 
Q 3634 156 3143 32 
Q 2653 -91 2156 -91 
Q 1278 -91 783 396 
Q 288 884 288 1753 
Q 288 2475 589 3126 
Q 891 3778 1422 4213 
Q 1756 4484 2153 4617 
Q 2550 4750 3034 4750 
Q 3472 4750 3873 4639 
Q 4275 4528 4641 4306 
L 4513 3634 
Q 4231 3928 3853 4083 
Q 3475 4238 3047 4238 
Q 2550 4238 2172 4048 
Q 1794 3859 1497 3463 
Q 1244 3125 1098 2667 
Q 953 2209 953 1734 
Q 953 1081 1287 751 
Q 1622 422 2284 422 
Q 2616 422 2925 492 
Q 3234 563 3494 697 
z
" id="DejaVuSans-Oblique-47" transform="scale(0.015625)"/>
        <path d="M 3078 2063 
Q 3088 2113 3092 2166 
Q 3097 2219 3097 2272 
Q 3097 2653 2873 2875 
Q 2650 3097 2266 3097 
Q 1838 3097 1509 2826 
Q 1181 2556 1013 2059 
L 3078 2063 
z
M 3578 1613 
L 903 1613 
Q 884 1494 878 1425 
Q 872 1356 872 1306 
Q 872 872 1139 634 
Q 1406 397 1894 397 
Q 2269 397 2603 481 
Q 2938 566 3225 728 
L 3116 159 
Q 2806 34 2476 -28 
Q 2147 -91 1806 -91 
Q 1078 -91 686 257 
Q 294 606 294 1247 
Q 294 1794 489 2264 
Q 684 2734 1063 3103 
Q 1306 3334 1642 3459 
Q 1978 3584 2356 3584 
Q 2950 3584 3301 3228 
Q 3653 2872 3653 2272 
Q 3653 2128 3634 1964 
Q 3616 1800 3578 1613 
z
" id="DejaVuSans-Oblique-65" transform="scale(0.015625)"/>
        <path d="M 3566 2113 
L 3156 0 
L 2578 0 
L 2988 2091 
Q 3016 2238 3031 2350 
Q 3047 2463 3047 2528 
Q 3047 2791 2881 2937 
Q 2716 3084 2419 3084 
Q 1956 3084 1622 2776 
Q 1288 2469 1184 1941 
L 800 0 
L 225 0 
L 903 3500 
L 1478 3500 
L 1363 2950 
Q 1603 3253 1940 3418 
Q 2278 3584 2650 3584 
Q 3113 3584 3367 3334 
Q 3622 3084 3622 2631 
Q 3622 2519 3608 2391 
Q 3594 2263 3566 2113 
z
" id="DejaVuSans-Oblique-6e" transform="scale(0.015625)"/>
        <path d="M 3200 3397 
L 3091 2853 
Q 2863 2978 2609 3040 
Q 2356 3103 2088 3103 
Q 1634 3103 1373 2948 
Q 1113 2794 1113 2528 
Q 1113 2219 1719 2053 
Q 1766 2041 1788 2034 
L 1972 1978 
Q 2547 1819 2739 1644 
Q 2931 1469 2931 1166 
Q 2931 609 2489 259 
Q 2047 -91 1331 -91 
Q 1053 -91 747 -37 
Q 441 16 72 128 
L 184 722 
Q 500 559 806 475 
Q 1113 391 1394 391 
Q 1816 391 2080 572 
Q 2344 753 2344 1031 
Q 2344 1331 1650 1516 
L 1591 1531 
L 1394 1581 
Q 956 1697 753 1886 
Q 550 2075 550 2369 
Q 550 2928 970 3256 
Q 1391 3584 2113 3584 
Q 2397 3584 2667 3537 
Q 2938 3491 3200 3397 
z
" id="DejaVuSans-Oblique-73" transform="scale(0.015625)"/>
        <path d="M 1172 4863 
L 1747 4863 
L 1606 4134 
L 1031 4134 
L 1172 4863 
z
M 909 3500 
L 1484 3500 
L 800 0 
L 225 0 
L 909 3500 
z
" id="DejaVuSans-Oblique-69" transform="scale(0.015625)"/>
       </defs>
       <use xlink:href="#DejaVuSans-Oblique-47"/>
       <use x="77.490234" xlink:href="#DejaVuSans-Oblique-65"/>
       <use x="139.013672" xlink:href="#DejaVuSans-Oblique-6e"/>
       <use x="202.392578" xlink:href="#DejaVuSans-Oblique-65"/>
       <use x="263.916016" xlink:href="#DejaVuSans-Oblique-73"/>
       <use x="316.015625" xlink:href="#DejaVuSans-Oblique-69"/>
       <use x="343.798828" xlink:href="#DejaVuSans-Oblique-73"/>
      </g>
     </g>
    </g>
    <g id="xtick_2">
     <g id="line2d_19">
      <g>
       <use style="stroke:#000000;stroke-width:0.8;" x="293.76" xlink:href="#m251959cf3e" y="615.168"/>
      </g>
     </g>
     <g id="text_2">
      <!-- Custom Built -->
      <g transform="translate(293.76 629.766437)scale(0.1 -0.1)">
       <defs>
        <path d="M 4447 4306 
L 4319 3641 
Q 4019 3944 3683 4091 
Q 3347 4238 2956 4238 
Q 2422 4238 2017 3981 
Q 1613 3725 1319 3200 
Q 1131 2863 1032 2486 
Q 934 2109 934 1728 
Q 934 1091 1264 756 
Q 1594 422 2222 422 
Q 2656 422 3056 561 
Q 3456 700 3834 978 
L 3688 231 
Q 3316 72 2936 -9 
Q 2556 -91 2175 -91 
Q 1278 -91 773 396 
Q 269 884 269 1753 
Q 269 2309 461 2846 
Q 653 3384 1013 3828 
Q 1394 4300 1883 4525 
Q 2372 4750 3022 4750 
Q 3422 4750 3780 4639 
Q 4138 4528 4447 4306 
z
" id="DejaVuSans-Oblique-43" transform="scale(0.015625)"/>
        <path d="M 428 1388 
L 838 3500 
L 1416 3500 
L 1006 1409 
Q 975 1256 961 1147 
Q 947 1038 947 966 
Q 947 700 1109 554 
Q 1272 409 1569 409 
Q 2031 409 2368 721 
Q 2706 1034 2809 1563 
L 3194 3500 
L 3769 3500 
L 3091 0 
L 2516 0 
L 2631 550 
Q 2388 244 2052 76 
Q 1716 -91 1338 -91 
Q 878 -91 622 161 
Q 366 413 366 863 
Q 366 956 381 1097 
Q 397 1238 428 1388 
z
" id="DejaVuSans-Oblique-75" transform="scale(0.015625)"/>
        <path d="M 2706 3500 
L 2619 3053 
L 1472 3053 
L 1100 1153 
Q 1081 1047 1072 975 
Q 1063 903 1063 863 
Q 1063 663 1183 572 
Q 1303 481 1569 481 
L 2150 481 
L 2053 0 
L 1503 0 
Q 991 0 739 200 
Q 488 400 488 806 
Q 488 878 497 964 
Q 506 1050 525 1153 
L 897 3053 
L 409 3053 
L 500 3500 
L 978 3500 
L 1172 4494 
L 1747 4494 
L 1556 3500 
L 2706 3500 
z
" id="DejaVuSans-Oblique-74" transform="scale(0.015625)"/>
        <path d="M 1625 -91 
Q 1009 -91 651 289 
Q 294 669 294 1325 
Q 294 1706 417 2101 
Q 541 2497 738 2766 
Q 1047 3184 1428 3384 
Q 1809 3584 2291 3584 
Q 2888 3584 3255 3212 
Q 3622 2841 3622 2241 
Q 3622 1825 3500 1412 
Q 3378 1000 3181 728 
Q 2875 309 2494 109 
Q 2113 -91 1625 -91 
z
M 891 1344 
Q 891 869 1089 633 
Q 1288 397 1691 397 
Q 2269 397 2648 901 
Q 3028 1406 3028 2181 
Q 3028 2634 2825 2865 
Q 2622 3097 2228 3097 
Q 1903 3097 1650 2945 
Q 1397 2794 1197 2484 
Q 1050 2253 970 1956 
Q 891 1659 891 1344 
z
" id="DejaVuSans-Oblique-6f" transform="scale(0.015625)"/>
        <path d="M 5747 2113 
L 5338 0 
L 4763 0 
L 5166 2094 
Q 5191 2228 5203 2325 
Q 5216 2422 5216 2491 
Q 5216 2772 5059 2928 
Q 4903 3084 4622 3084 
Q 4203 3084 3875 2770 
Q 3547 2456 3450 1953 
L 3066 0 
L 2491 0 
L 2900 2094 
Q 2925 2209 2937 2307 
Q 2950 2406 2950 2484 
Q 2950 2769 2794 2926 
Q 2638 3084 2363 3084 
Q 1938 3084 1609 2770 
Q 1281 2456 1184 1953 
L 800 0 
L 225 0 
L 909 3500 
L 1484 3500 
L 1375 2956 
Q 1609 3263 1923 3423 
Q 2238 3584 2597 3584 
Q 2978 3584 3223 3384 
Q 3469 3184 3519 2828 
Q 3781 3197 4126 3390 
Q 4472 3584 4856 3584 
Q 5306 3584 5551 3325 
Q 5797 3066 5797 2591 
Q 5797 2488 5784 2364 
Q 5772 2241 5747 2113 
z
" id="DejaVuSans-Oblique-6d" transform="scale(0.015625)"/>
        <path id="DejaVuSans-Oblique-20" transform="scale(0.015625)"/>
        <path d="M 1081 4666 
L 2694 4666 
Q 3350 4666 3675 4422 
Q 4000 4178 4000 3688 
Q 4000 3238 3720 2911 
Q 3441 2584 2988 2516 
Q 3375 2428 3569 2181 
Q 3763 1934 3763 1522 
Q 3763 819 3242 409 
Q 2722 0 1819 0 
L 172 0 
L 1081 4666 
z
M 1234 2228 
L 903 519 
L 1919 519 
Q 2491 519 2800 781 
Q 3109 1044 3109 1522 
Q 3109 1891 2904 2059 
Q 2700 2228 2247 2228 
L 1234 2228 
z
M 1606 4147 
L 1331 2741 
L 2272 2741 
Q 2775 2741 3058 2959 
Q 3341 3178 3341 3566 
Q 3341 3869 3150 4008 
Q 2959 4147 2541 4147 
L 1606 4147 
z
" id="DejaVuSans-Oblique-42" transform="scale(0.015625)"/>
        <path d="M 1172 4863 
L 1747 4863 
L 800 0 
L 225 0 
L 1172 4863 
z
" id="DejaVuSans-Oblique-6c" transform="scale(0.015625)"/>
       </defs>
       <use xlink:href="#DejaVuSans-Oblique-43"/>
       <use x="69.824219" xlink:href="#DejaVuSans-Oblique-75"/>
       <use x="133.203125" xlink:href="#DejaVuSans-Oblique-73"/>
       <use x="185.302734" xlink:href="#DejaVuSans-Oblique-74"/>
       <use x="224.511719" xlink:href="#DejaVuSans-Oblique-6f"/>
       <use x="285.693359" xlink:href="#DejaVuSans-Oblique-6d"/>
       <use x="383.105469" xlink:href="#DejaVuSans-Oblique-20"/>
       <use x="414.892578" xlink:href="#DejaVuSans-Oblique-42"/>
       <use x="483.496094" xlink:href="#DejaVuSans-Oblique-75"/>
       <use x="546.875" xlink:href="#DejaVuSans-Oblique-69"/>
       <use x="574.658203" xlink:href="#DejaVuSans-Oblique-6c"/>
       <use x="602.441406" xlink:href="#DejaVuSans-Oblique-74"/>
      </g>
     </g>
    </g>
    <g id="xtick_3">
     <g id="line2d_20">
      <g>
       <use style="stroke:#000000;stroke-width:0.8;" x="472.32" xlink:href="#m251959cf3e" y="615.168"/>
      </g>
     </g>
     <g id="text_3">
      <!-- Product (+ rental) -->
      <g transform="translate(472.32 629.766437)scale(0.1 -0.1)">
       <defs>
        <path d="M 1081 4666 
L 2541 4666 
Q 3178 4666 3512 4369 
Q 3847 4072 3847 3500 
Q 3847 2731 3353 2303 
Q 2859 1875 1966 1875 
L 1172 1875 
L 806 0 
L 172 0 
L 1081 4666 
z
M 1613 4147 
L 1275 2394 
L 2069 2394 
Q 2606 2394 2893 2669 
Q 3181 2944 3181 3456 
Q 3181 3784 2986 3965 
Q 2791 4147 2438 4147 
L 1613 4147 
z
" id="DejaVuSans-Oblique-50" transform="scale(0.015625)"/>
        <path d="M 2853 2969 
Q 2766 3016 2653 3041 
Q 2541 3066 2413 3066 
Q 1953 3066 1609 2717 
Q 1266 2369 1153 1784 
L 800 0 
L 225 0 
L 909 3500 
L 1484 3500 
L 1375 2956 
Q 1603 3259 1920 3421 
Q 2238 3584 2597 3584 
Q 2691 3584 2781 3573 
Q 2872 3563 2963 3538 
L 2853 2969 
z
" id="DejaVuSans-Oblique-72" transform="scale(0.015625)"/>
        <path d="M 2675 525 
Q 2444 222 2128 65 
Q 1813 -91 1428 -91 
Q 903 -91 598 267 
Q 294 625 294 1247 
Q 294 1766 478 2236 
Q 663 2706 1013 3078 
Q 1244 3325 1534 3454 
Q 1825 3584 2144 3584 
Q 2481 3584 2739 3421 
Q 2997 3259 3138 2956 
L 3513 4863 
L 4091 4863 
L 3144 0 
L 2566 0 
L 2675 525 
z
M 891 1350 
Q 891 897 1095 644 
Q 1300 391 1663 391 
Q 1931 391 2161 520 
Q 2391 650 2566 903 
Q 2750 1166 2856 1509 
Q 2963 1853 2963 2188 
Q 2963 2622 2758 2865 
Q 2553 3109 2194 3109 
Q 1922 3109 1687 2981 
Q 1453 2853 1288 2613 
Q 1106 2353 998 2009 
Q 891 1666 891 1350 
z
" id="DejaVuSans-Oblique-64" transform="scale(0.015625)"/>
        <path d="M 3431 3366 
L 3316 2797 
Q 3109 2947 2876 3022 
Q 2644 3097 2394 3097 
Q 2119 3097 1870 3000 
Q 1622 2903 1453 2725 
Q 1184 2453 1037 2087 
Q 891 1722 891 1331 
Q 891 859 1127 628 
Q 1363 397 1844 397 
Q 2081 397 2348 469 
Q 2616 541 2906 684 
L 2797 116 
Q 2547 13 2283 -39 
Q 2019 -91 1741 -91 
Q 1044 -91 669 257 
Q 294 606 294 1253 
Q 294 1797 489 2255 
Q 684 2713 1069 3078 
Q 1331 3328 1684 3456 
Q 2038 3584 2456 3584 
Q 2700 3584 2940 3529 
Q 3181 3475 3431 3366 
z
" id="DejaVuSans-Oblique-63" transform="scale(0.015625)"/>
        <path d="M 2731 4856 
Q 1903 3822 1495 2892 
Q 1088 1963 1088 1100 
Q 1088 606 1206 120 
Q 1325 -366 1563 -844 
L 1063 -844 
Q 775 -306 634 201 
Q 494 709 494 1197 
Q 494 2125 923 3036 
Q 1353 3947 2222 4856 
L 2731 4856 
z
" id="DejaVuSans-Oblique-28" transform="scale(0.015625)"/>
        <path d="M 2944 4013 
L 2944 2272 
L 4684 2272 
L 4684 1741 
L 2944 1741 
L 2944 0 
L 2419 0 
L 2419 1741 
L 678 1741 
L 678 2272 
L 2419 2272 
L 2419 4013 
L 2944 4013 
z
" id="DejaVuSans-Oblique-2b" transform="scale(0.015625)"/>
        <path d="M 3438 1997 
L 3047 0 
L 2472 0 
L 2578 531 
Q 2325 219 2001 64 
Q 1678 -91 1281 -91 
Q 834 -91 548 182 
Q 263 456 263 884 
Q 263 1497 752 1853 
Q 1241 2209 2100 2209 
L 2900 2209 
L 2931 2363 
Q 2938 2388 2941 2417 
Q 2944 2447 2944 2509 
Q 2944 2788 2717 2942 
Q 2491 3097 2081 3097 
Q 1800 3097 1504 3025 
Q 1209 2953 897 2809 
L 997 3341 
Q 1322 3463 1633 3523 
Q 1944 3584 2234 3584 
Q 2853 3584 3176 3315 
Q 3500 3047 3500 2534 
Q 3500 2431 3484 2292 
Q 3469 2153 3438 1997 
z
M 2816 1759 
L 2241 1759 
Q 1534 1759 1195 1570 
Q 856 1381 856 984 
Q 856 709 1029 553 
Q 1203 397 1509 397 
Q 1978 397 2328 733 
Q 2678 1069 2791 1631 
L 2816 1759 
z
" id="DejaVuSans-Oblique-61" transform="scale(0.015625)"/>
        <path d="M -397 -844 
Q 434 191 840 1120 
Q 1247 2050 1247 2913 
Q 1247 3406 1130 3892 
Q 1013 4378 775 4856 
L 1275 4856 
Q 1563 4316 1703 3812 
Q 1844 3309 1844 2822 
Q 1844 1891 1411 973 
Q 978 56 116 -844 
L -397 -844 
z
" id="DejaVuSans-Oblique-29" transform="scale(0.015625)"/>
       </defs>
       <use xlink:href="#DejaVuSans-Oblique-50"/>
       <use x="60.302734" xlink:href="#DejaVuSans-Oblique-72"/>
       <use x="101.416016" xlink:href="#DejaVuSans-Oblique-6f"/>
       <use x="162.597656" xlink:href="#DejaVuSans-Oblique-64"/>
       <use x="226.074219" xlink:href="#DejaVuSans-Oblique-75"/>
       <use x="289.453125" xlink:href="#DejaVuSans-Oblique-63"/>
       <use x="344.433594" xlink:href="#DejaVuSans-Oblique-74"/>
       <use x="383.642578" xlink:href="#DejaVuSans-Oblique-20"/>
       <use x="415.429688" xlink:href="#DejaVuSans-Oblique-28"/>
       <use x="454.443359" xlink:href="#DejaVuSans-Oblique-2b"/>
       <use x="538.232422" xlink:href="#DejaVuSans-Oblique-20"/>
       <use x="570.019531" xlink:href="#DejaVuSans-Oblique-72"/>
       <use x="611.132812" xlink:href="#DejaVuSans-Oblique-65"/>
       <use x="672.65625" xlink:href="#DejaVuSans-Oblique-6e"/>
       <use x="736.035156" xlink:href="#DejaVuSans-Oblique-74"/>
       <use x="775.244141" xlink:href="#DejaVuSans-Oblique-61"/>
       <use x="836.523438" xlink:href="#DejaVuSans-Oblique-6c"/>
       <use x="864.306641" xlink:href="#DejaVuSans-Oblique-29"/>
      </g>
     </g>
    </g>
    <g id="xtick_4">
     <g id="line2d_21">
      <g>
       <use style="stroke:#000000;stroke-width:0.8;" x="650.88" xlink:href="#m251959cf3e" y="615.168"/>
      </g>
     </g>
     <g id="text_4">
      <!-- Commodity (+ utility) -->
      <g transform="translate(650.88 629.766437)scale(0.1 -0.1)">
       <defs>
        <path d="M 1588 -325 
Q 1188 -997 936 -1164 
Q 684 -1331 294 -1331 
L -159 -1331 
L -63 -850 
L 269 -850 
Q 509 -850 678 -719 
Q 847 -588 1056 -206 
L 1234 128 
L 459 3500 
L 1069 3500 
L 1650 819 
L 3256 3500 
L 3859 3500 
L 1588 -325 
z
" id="DejaVuSans-Oblique-79" transform="scale(0.015625)"/>
       </defs>
       <use xlink:href="#DejaVuSans-Oblique-43"/>
       <use x="69.824219" xlink:href="#DejaVuSans-Oblique-6f"/>
       <use x="131.005859" xlink:href="#DejaVuSans-Oblique-6d"/>
       <use x="228.417969" xlink:href="#DejaVuSans-Oblique-6d"/>
       <use x="325.830078" xlink:href="#DejaVuSans-Oblique-6f"/>
       <use x="387.011719" xlink:href="#DejaVuSans-Oblique-64"/>
       <use x="450.488281" xlink:href="#DejaVuSans-Oblique-69"/>
       <use x="478.271484" xlink:href="#DejaVuSans-Oblique-74"/>
       <use x="517.480469" xlink:href="#DejaVuSans-Oblique-79"/>
       <use x="576.660156" xlink:href="#DejaVuSans-Oblique-20"/>
       <use x="608.447266" xlink:href="#DejaVuSans-Oblique-28"/>
       <use x="647.460938" xlink:href="#DejaVuSans-Oblique-2b"/>
       <use x="731.25" xlink:href="#DejaVuSans-Oblique-20"/>
       <use x="763.037109" xlink:href="#DejaVuSans-Oblique-75"/>
       <use x="826.416016" xlink:href="#DejaVuSans-Oblique-74"/>
       <use x="865.625" xlink:href="#DejaVuSans-Oblique-69"/>
       <use x="893.408203" xlink:href="#DejaVuSans-Oblique-6c"/>
       <use x="921.191406" xlink:href="#DejaVuSans-Oblique-69"/>
       <use x="948.974609" xlink:href="#DejaVuSans-Oblique-74"/>
       <use x="988.183594" xlink:href="#DejaVuSans-Oblique-79"/>
       <use x="1047.363281" xlink:href="#DejaVuSans-Oblique-29"/>
      </g>
     </g>
    </g>
    <g id="text_5">
     <!-- Evolution -->
     <g transform="translate(445.837969 643.444562)scale(0.1 -0.1)">
      <defs>
       <path d="M 588 4666 
L 3834 4666 
L 3834 3756 
L 1791 3756 
L 1791 2888 
L 3713 2888 
L 3713 1978 
L 1791 1978 
L 1791 909 
L 3903 909 
L 3903 0 
L 588 0 
L 588 4666 
z
" id="DejaVuSans-Bold-45" transform="scale(0.015625)"/>
       <path d="M 97 3500 
L 1216 3500 
L 2088 1081 
L 2956 3500 
L 4078 3500 
L 2700 0 
L 1472 0 
L 97 3500 
z
" id="DejaVuSans-Bold-76" transform="scale(0.015625)"/>
       <path d="M 2203 2784 
Q 1831 2784 1636 2517 
Q 1441 2250 1441 1747 
Q 1441 1244 1636 976 
Q 1831 709 2203 709 
Q 2569 709 2762 976 
Q 2956 1244 2956 1747 
Q 2956 2250 2762 2517 
Q 2569 2784 2203 2784 
z
M 2203 3584 
Q 3106 3584 3614 3096 
Q 4122 2609 4122 1747 
Q 4122 884 3614 396 
Q 3106 -91 2203 -91 
Q 1297 -91 786 396 
Q 275 884 275 1747 
Q 275 2609 786 3096 
Q 1297 3584 2203 3584 
z
" id="DejaVuSans-Bold-6f" transform="scale(0.015625)"/>
       <path d="M 538 4863 
L 1656 4863 
L 1656 0 
L 538 0 
L 538 4863 
z
" id="DejaVuSans-Bold-6c" transform="scale(0.015625)"/>
       <path d="M 500 1363 
L 500 3500 
L 1625 3500 
L 1625 3150 
Q 1625 2866 1622 2436 
Q 1619 2006 1619 1863 
Q 1619 1441 1641 1255 
Q 1663 1069 1716 984 
Q 1784 875 1895 815 
Q 2006 756 2150 756 
Q 2500 756 2700 1025 
Q 2900 1294 2900 1772 
L 2900 3500 
L 4019 3500 
L 4019 0 
L 2900 0 
L 2900 506 
Q 2647 200 2364 54 
Q 2081 -91 1741 -91 
Q 1134 -91 817 281 
Q 500 653 500 1363 
z
" id="DejaVuSans-Bold-75" transform="scale(0.015625)"/>
       <path d="M 1759 4494 
L 1759 3500 
L 2913 3500 
L 2913 2700 
L 1759 2700 
L 1759 1216 
Q 1759 972 1856 886 
Q 1953 800 2241 800 
L 2816 800 
L 2816 0 
L 1856 0 
Q 1194 0 917 276 
Q 641 553 641 1216 
L 641 2700 
L 84 2700 
L 84 3500 
L 641 3500 
L 641 4494 
L 1759 4494 
z
" id="DejaVuSans-Bold-74" transform="scale(0.015625)"/>
       <path d="M 538 3500 
L 1656 3500 
L 1656 0 
L 538 0 
L 538 3500 
z
M 538 4863 
L 1656 4863 
L 1656 3950 
L 538 3950 
L 538 4863 
z
" id="DejaVuSans-Bold-69" transform="scale(0.015625)"/>
       <path d="M 4056 2131 
L 4056 0 
L 2931 0 
L 2931 347 
L 2931 1631 
Q 2931 2084 2911 2256 
Q 2891 2428 2841 2509 
Q 2775 2619 2662 2680 
Q 2550 2741 2406 2741 
Q 2056 2741 1856 2470 
Q 1656 2200 1656 1722 
L 1656 0 
L 538 0 
L 538 3500 
L 1656 3500 
L 1656 2988 
Q 1909 3294 2193 3439 
Q 2478 3584 2822 3584 
Q 3428 3584 3742 3212 
Q 4056 2841 4056 2131 
z
" id="DejaVuSans-Bold-6e" transform="scale(0.015625)"/>
      </defs>
      <use xlink:href="#DejaVuSans-Bold-45"/>
      <use x="68.310547" xlink:href="#DejaVuSans-Bold-76"/>
      <use x="133.496094" xlink:href="#DejaVuSans-Bold-6f"/>
      <use x="202.197266" xlink:href="#DejaVuSans-Bold-6c"/>
      <use x="236.474609" xlink:href="#DejaVuSans-Bold-75"/>
      <use x="307.666016" xlink:href="#DejaVuSans-Bold-74"/>
      <use x="355.46875" xlink:href="#DejaVuSans-Bold-69"/>
      <use x="389.746094" xlink:href="#DejaVuSans-Bold-6f"/>
      <use x="458.447266" xlink:href="#DejaVuSans-Bold-6e"/>
     </g>
    </g>
   </g>
   <g id="matplotlib.axis_2">
    <g id="ytick_1">
     <g id="line2d_22">
      <defs>
       <path d="M 0 0 
L -3.5 0 
" id="ma064dc34ef" style="stroke:#000000;stroke-width:0.8;"/>
      </defs>
      <g>
       <use style="stroke:#000000;stroke-width:0.8;" x="115.2" xlink:href="#ma064dc34ef" y="615.168"/>
      </g>
     </g>
     <g id="text_6">
      <!-- Invisible -->
      <g transform="translate(106.120312 615.168)rotate(-90)scale(0.1 -0.1)">
       <defs>
        <path d="M 1081 4666 
L 1716 4666 
L 806 0 
L 172 0 
L 1081 4666 
z
" id="DejaVuSans-Oblique-49" transform="scale(0.015625)"/>
        <path d="M 459 3500 
L 1069 3500 
L 1581 525 
L 3256 3500 
L 3866 3500 
L 1875 0 
L 1100 0 
L 459 3500 
z
" id="DejaVuSans-Oblique-76" transform="scale(0.015625)"/>
        <path d="M 3169 2138 
Q 3169 2591 2961 2847 
Q 2753 3103 2388 3103 
Q 2122 3103 1889 2973 
Q 1656 2844 1484 2597 
Q 1303 2338 1198 1995 
Q 1094 1653 1094 1313 
Q 1094 881 1298 636 
Q 1503 391 1863 391 
Q 2134 391 2365 517 
Q 2597 644 2772 891 
Q 2950 1147 3059 1487 
Q 3169 1828 3169 2138 
z
M 1381 2969 
Q 1594 3256 1914 3420 
Q 2234 3584 2584 3584 
Q 3122 3584 3439 3221 
Q 3756 2859 3756 2241 
Q 3756 1734 3570 1259 
Q 3384 784 3041 416 
Q 2816 172 2522 40 
Q 2228 -91 1906 -91 
Q 1566 -91 1316 65 
Q 1066 222 909 531 
L 806 0 
L 231 0 
L 1178 4863 
L 1753 4863 
L 1381 2969 
z
" id="DejaVuSans-Oblique-62" transform="scale(0.015625)"/>
       </defs>
       <use xlink:href="#DejaVuSans-Oblique-49"/>
       <use x="29.492188" xlink:href="#DejaVuSans-Oblique-6e"/>
       <use x="92.871094" xlink:href="#DejaVuSans-Oblique-76"/>
       <use x="152.050781" xlink:href="#DejaVuSans-Oblique-69"/>
       <use x="179.833984" xlink:href="#DejaVuSans-Oblique-73"/>
       <use x="231.933594" xlink:href="#DejaVuSans-Oblique-69"/>
       <use x="259.716797" xlink:href="#DejaVuSans-Oblique-62"/>
       <use x="323.193359" xlink:href="#DejaVuSans-Oblique-6c"/>
       <use x="350.976562" xlink:href="#DejaVuSans-Oblique-65"/>
      </g>
     </g>
    </g>
    <g id="ytick_2">
     <g id="line2d_23">
      <g>
       <use style="stroke:#000000;stroke-width:0.8;" x="115.2" xlink:href="#ma064dc34ef" y="131.328"/>
      </g>
     </g>
     <g id="text_7">
      <!-- Visible -->
      <g transform="translate(106.120312 131.328)rotate(-90)scale(0.1 -0.1)">
       <defs>
        <path d="M 1319 0 
L 500 4666 
L 1119 4666 
L 1797 653 
L 4063 4666 
L 4750 4666 
L 2053 0 
L 1319 0 
z
" id="DejaVuSans-Oblique-56" transform="scale(0.015625)"/>
       </defs>
       <use xlink:href="#DejaVuSans-Oblique-56"/>
       <use x="68.408203" xlink:href="#DejaVuSans-Oblique-69"/>
       <use x="96.191406" xlink:href="#DejaVuSans-Oblique-73"/>
       <use x="148.291016" xlink:href="#DejaVuSans-Oblique-69"/>
       <use x="176.074219" xlink:href="#DejaVuSans-Oblique-62"/>
       <use x="239.550781" xlink:href="#DejaVuSans-Oblique-6c"/>
       <use x="267.333984" xlink:href="#DejaVuSans-Oblique-65"/>
      </g>
     </g>
    </g>
    <g id="text_8">
     <!-- Value Chain -->
     <g transform="translate(92.442187 382.306781)rotate(-90)scale(0.1 -0.1)">
      <defs>
       <path d="M 31 4666 
L 1241 4666 
L 2478 1222 
L 3713 4666 
L 4922 4666 
L 3194 0 
L 1759 0 
L 31 4666 
z
" id="DejaVuSans-Bold-56" transform="scale(0.015625)"/>
       <path d="M 2106 1575 
Q 1756 1575 1579 1456 
Q 1403 1338 1403 1106 
Q 1403 894 1545 773 
Q 1688 653 1941 653 
Q 2256 653 2472 879 
Q 2688 1106 2688 1447 
L 2688 1575 
L 2106 1575 
z
M 3816 1997 
L 3816 0 
L 2688 0 
L 2688 519 
Q 2463 200 2181 54 
Q 1900 -91 1497 -91 
Q 953 -91 614 226 
Q 275 544 275 1050 
Q 275 1666 698 1953 
Q 1122 2241 2028 2241 
L 2688 2241 
L 2688 2328 
Q 2688 2594 2478 2717 
Q 2269 2841 1825 2841 
Q 1466 2841 1156 2769 
Q 847 2697 581 2553 
L 581 3406 
Q 941 3494 1303 3539 
Q 1666 3584 2028 3584 
Q 2975 3584 3395 3211 
Q 3816 2838 3816 1997 
z
" id="DejaVuSans-Bold-61" transform="scale(0.015625)"/>
       <path d="M 4031 1759 
L 4031 1441 
L 1416 1441 
Q 1456 1047 1700 850 
Q 1944 653 2381 653 
Q 2734 653 3104 758 
Q 3475 863 3866 1075 
L 3866 213 
Q 3469 63 3072 -14 
Q 2675 -91 2278 -91 
Q 1328 -91 801 392 
Q 275 875 275 1747 
Q 275 2603 792 3093 
Q 1309 3584 2216 3584 
Q 3041 3584 3536 3087 
Q 4031 2591 4031 1759 
z
M 2881 2131 
Q 2881 2450 2695 2645 
Q 2509 2841 2209 2841 
Q 1884 2841 1681 2658 
Q 1478 2475 1428 2131 
L 2881 2131 
z
" id="DejaVuSans-Bold-65" transform="scale(0.015625)"/>
       <path id="DejaVuSans-Bold-20" transform="scale(0.015625)"/>
       <path d="M 4288 256 
Q 3956 84 3597 -3 
Q 3238 -91 2847 -91 
Q 1681 -91 1000 561 
Q 319 1213 319 2328 
Q 319 3447 1000 4098 
Q 1681 4750 2847 4750 
Q 3238 4750 3597 4662 
Q 3956 4575 4288 4403 
L 4288 3438 
Q 3953 3666 3628 3772 
Q 3303 3878 2944 3878 
Q 2300 3878 1931 3465 
Q 1563 3053 1563 2328 
Q 1563 1606 1931 1193 
Q 2300 781 2944 781 
Q 3303 781 3628 887 
Q 3953 994 4288 1222 
L 4288 256 
z
" id="DejaVuSans-Bold-43" transform="scale(0.015625)"/>
       <path d="M 4056 2131 
L 4056 0 
L 2931 0 
L 2931 347 
L 2931 1625 
Q 2931 2084 2911 2256 
Q 2891 2428 2841 2509 
Q 2775 2619 2662 2680 
Q 2550 2741 2406 2741 
Q 2056 2741 1856 2470 
Q 1656 2200 1656 1722 
L 1656 0 
L 538 0 
L 538 4863 
L 1656 4863 
L 1656 2988 
Q 1909 3294 2193 3439 
Q 2478 3584 2822 3584 
Q 3428 3584 3742 3212 
Q 4056 2841 4056 2131 
z
" id="DejaVuSans-Bold-68" transform="scale(0.015625)"/>
      </defs>
      <use xlink:href="#DejaVuSans-Bold-56"/>
      <use x="71.892578" xlink:href="#DejaVuSans-Bold-61"/>
      <use x="139.373047" xlink:href="#DejaVuSans-Bold-6c"/>
      <use x="173.650391" xlink:href="#DejaVuSans-Bold-75"/>
      <use x="244.841797" xlink:href="#DejaVuSans-Bold-65"/>
      <use x="312.664062" xlink:href="#DejaVuSans-Bold-20"/>
      <use x="347.478516" xlink:href="#DejaVuSans-Bold-43"/>
      <use x="420.867188" xlink:href="#DejaVuSans-Bold-68"/>
      <use x="492.058594" xlink:href="#DejaVuSans-Bold-61"/>
      <use x="559.539062" xlink:href="#DejaVuSans-Bold-69"/>
      <use x="593.816406" xlink:href="#DejaVuSans-Bold-6e"/>
     </g>
    </g>
   </g>
   <g id="LineCollection_2">
    <path clip-path="url(#p99d66b13f4)" d="M 418.752 107.136 
L 454.464 107.136 
" style="fill:none;stroke:#ff0000;stroke-dasharray:1.5,2.475;stroke-dashoffset:0;stroke-width:1.5;"/>
   </g>
   <g id="LineCollection_3">
    <path clip-path="url(#p99d66b13f4)" d="M 383.04 187.776 
L 400.896 187.776 
" style="fill:none;stroke:#ff0000;stroke-dasharray:1.5,2.475;stroke-dashoffset:0;stroke-width:1.5;"/>
   </g>
   <g id="LineCollection_4">
    <path clip-path="url(#p99d66b13f4)" d="M 472.32 187.776 
L 490.176 187.776 
" style="fill:none;stroke:#ff0000;stroke-dasharray:1.5,2.475;stroke-dashoffset:0;stroke-width:1.5;"/>
   </g>
   <g id="LineCollection_5">
    <path clip-path="url(#p99d66b13f4)" d="M 472.32 349.056 
L 490.176 349.056 
" style="fill:none;stroke:#ff0000;stroke-dasharray:1.5,2.475;stroke-dashoffset:0;stroke-width:1.5;"/>
   </g>
   <g id="LineCollection_6">
    <path clip-path="url(#p99d66b13f4)" d="M 436.608 187.776 
L 454.464 187.776 
" style="fill:none;stroke:#ff0000;stroke-dasharray:1.5,2.475;stroke-dashoffset:0;stroke-width:1.5;"/>
   </g>
   <g id="LineCollection_7">
    <path clip-path="url(#p99d66b13f4)" d="M 418.752 268.416 
L 436.608 268.416 
" style="fill:none;stroke:#ff0000;stroke-dasharray:1.5,2.475;stroke-dashoffset:0;stroke-width:1.5;"/>
   </g>
   <g id="LineCollection_8">
    <path clip-path="url(#p99d66b13f4)" d="M 454.464 429.696 
L 472.32 429.696 
" style="fill:none;stroke:#ff0000;stroke-dasharray:1.5,2.475;stroke-dashoffset:0;stroke-width:1.5;"/>
   </g>
   <g id="LineCollection_9">
    <path clip-path="url(#p99d66b13f4)" d="M 436.608 510.336 
L 454.464 510.336 
" style="fill:none;stroke:#ff0000;stroke-dasharray:1.5,2.475;stroke-dashoffset:0;stroke-width:1.5;"/>
   </g>
   <g id="line2d_24">
    <defs>
     <path d="M 3 0 
L -3 -3 
L -3 3 
z
" id="m139b5b7277" style="stroke:#000000;stroke-linejoin:miter;"/>
    </defs>
    <g>
     <use style="stroke:#000000;stroke-linejoin:miter;" x="829.44" xlink:href="#m139b5b7277" y="615.168"/>
    </g>
   </g>
   <g id="line2d_25">
    <defs>
     <path d="M 0 -3 
L -3 3 
L 3 3 
z
" id="m5efea27c9c" style="stroke:#000000;stroke-linejoin:miter;"/>
    </defs>
    <g>
     <use style="stroke:#000000;stroke-linejoin:miter;" x="115.2" xlink:href="#m5efea27c9c" y="82.944"/>
    </g>
   </g>
   <g id="patch_3">
    <path d="M 115.2 615.168 
L 115.2 82.944 
" style="fill:none;stroke:#000000;stroke-linecap:square;stroke-linejoin:miter;stroke-width:0.8;"/>
   </g>
   <g id="patch_4">
    <path d="M 115.2 615.168 
L 829.44 615.168 
" style="fill:none;stroke:#000000;stroke-linecap:square;stroke-linejoin:miter;stroke-width:0.8;"/>
   </g>
   <g id="text_9">
    <!-- Project Manager -->
    <g transform="translate(317.13999 100.190775)scale(0.12 -0.12)">
     <defs>
      <path d="M 1259 4147 
L 1259 2394 
L 2053 2394 
Q 2494 2394 2734 2622 
Q 2975 2850 2975 3272 
Q 2975 3691 2734 3919 
Q 2494 4147 2053 4147 
L 1259 4147 
z
M 628 4666 
L 2053 4666 
Q 2838 4666 3239 4311 
Q 3641 3956 3641 3272 
Q 3641 2581 3239 2228 
Q 2838 1875 2053 1875 
L 1259 1875 
L 1259 0 
L 628 0 
L 628 4666 
z
" id="DejaVuSans-50" transform="scale(0.015625)"/>
      <path d="M 2631 2963 
Q 2534 3019 2420 3045 
Q 2306 3072 2169 3072 
Q 1681 3072 1420 2755 
Q 1159 2438 1159 1844 
L 1159 0 
L 581 0 
L 581 3500 
L 1159 3500 
L 1159 2956 
Q 1341 3275 1631 3429 
Q 1922 3584 2338 3584 
Q 2397 3584 2469 3576 
Q 2541 3569 2628 3553 
L 2631 2963 
z
" id="DejaVuSans-72" transform="scale(0.015625)"/>
      <path d="M 1959 3097 
Q 1497 3097 1228 2736 
Q 959 2375 959 1747 
Q 959 1119 1226 758 
Q 1494 397 1959 397 
Q 2419 397 2687 759 
Q 2956 1122 2956 1747 
Q 2956 2369 2687 2733 
Q 2419 3097 1959 3097 
z
M 1959 3584 
Q 2709 3584 3137 3096 
Q 3566 2609 3566 1747 
Q 3566 888 3137 398 
Q 2709 -91 1959 -91 
Q 1206 -91 779 398 
Q 353 888 353 1747 
Q 353 2609 779 3096 
Q 1206 3584 1959 3584 
z
" id="DejaVuSans-6f" transform="scale(0.015625)"/>
      <path d="M 603 3500 
L 1178 3500 
L 1178 -63 
Q 1178 -731 923 -1031 
Q 669 -1331 103 -1331 
L -116 -1331 
L -116 -844 
L 38 -844 
Q 366 -844 484 -692 
Q 603 -541 603 -63 
L 603 3500 
z
M 603 4863 
L 1178 4863 
L 1178 4134 
L 603 4134 
L 603 4863 
z
" id="DejaVuSans-6a" transform="scale(0.015625)"/>
      <path d="M 3597 1894 
L 3597 1613 
L 953 1613 
Q 991 1019 1311 708 
Q 1631 397 2203 397 
Q 2534 397 2845 478 
Q 3156 559 3463 722 
L 3463 178 
Q 3153 47 2828 -22 
Q 2503 -91 2169 -91 
Q 1331 -91 842 396 
Q 353 884 353 1716 
Q 353 2575 817 3079 
Q 1281 3584 2069 3584 
Q 2775 3584 3186 3129 
Q 3597 2675 3597 1894 
z
M 3022 2063 
Q 3016 2534 2758 2815 
Q 2500 3097 2075 3097 
Q 1594 3097 1305 2825 
Q 1016 2553 972 2059 
L 3022 2063 
z
" id="DejaVuSans-65" transform="scale(0.015625)"/>
      <path d="M 3122 3366 
L 3122 2828 
Q 2878 2963 2633 3030 
Q 2388 3097 2138 3097 
Q 1578 3097 1268 2742 
Q 959 2388 959 1747 
Q 959 1106 1268 751 
Q 1578 397 2138 397 
Q 2388 397 2633 464 
Q 2878 531 3122 666 
L 3122 134 
Q 2881 22 2623 -34 
Q 2366 -91 2075 -91 
Q 1284 -91 818 406 
Q 353 903 353 1747 
Q 353 2603 823 3093 
Q 1294 3584 2113 3584 
Q 2378 3584 2631 3529 
Q 2884 3475 3122 3366 
z
" id="DejaVuSans-63" transform="scale(0.015625)"/>
      <path d="M 1172 4494 
L 1172 3500 
L 2356 3500 
L 2356 3053 
L 1172 3053 
L 1172 1153 
Q 1172 725 1289 603 
Q 1406 481 1766 481 
L 2356 481 
L 2356 0 
L 1766 0 
Q 1100 0 847 248 
Q 594 497 594 1153 
L 594 3053 
L 172 3053 
L 172 3500 
L 594 3500 
L 594 4494 
L 1172 4494 
z
" id="DejaVuSans-74" transform="scale(0.015625)"/>
      <path id="DejaVuSans-20" transform="scale(0.015625)"/>
      <path d="M 628 4666 
L 1569 4666 
L 2759 1491 
L 3956 4666 
L 4897 4666 
L 4897 0 
L 4281 0 
L 4281 4097 
L 3078 897 
L 2444 897 
L 1241 4097 
L 1241 0 
L 628 0 
L 628 4666 
z
" id="DejaVuSans-4d" transform="scale(0.015625)"/>
      <path d="M 2194 1759 
Q 1497 1759 1228 1600 
Q 959 1441 959 1056 
Q 959 750 1161 570 
Q 1363 391 1709 391 
Q 2188 391 2477 730 
Q 2766 1069 2766 1631 
L 2766 1759 
L 2194 1759 
z
M 3341 1997 
L 3341 0 
L 2766 0 
L 2766 531 
Q 2569 213 2275 61 
Q 1981 -91 1556 -91 
Q 1019 -91 701 211 
Q 384 513 384 1019 
Q 384 1609 779 1909 
Q 1175 2209 1959 2209 
L 2766 2209 
L 2766 2266 
Q 2766 2663 2505 2880 
Q 2244 3097 1772 3097 
Q 1472 3097 1187 3025 
Q 903 2953 641 2809 
L 641 3341 
Q 956 3463 1253 3523 
Q 1550 3584 1831 3584 
Q 2591 3584 2966 3190 
Q 3341 2797 3341 1997 
z
" id="DejaVuSans-61" transform="scale(0.015625)"/>
      <path d="M 3513 2113 
L 3513 0 
L 2938 0 
L 2938 2094 
Q 2938 2591 2744 2837 
Q 2550 3084 2163 3084 
Q 1697 3084 1428 2787 
Q 1159 2491 1159 1978 
L 1159 0 
L 581 0 
L 581 3500 
L 1159 3500 
L 1159 2956 
Q 1366 3272 1645 3428 
Q 1925 3584 2291 3584 
Q 2894 3584 3203 3211 
Q 3513 2838 3513 2113 
z
" id="DejaVuSans-6e" transform="scale(0.015625)"/>
      <path d="M 2906 1791 
Q 2906 2416 2648 2759 
Q 2391 3103 1925 3103 
Q 1463 3103 1205 2759 
Q 947 2416 947 1791 
Q 947 1169 1205 825 
Q 1463 481 1925 481 
Q 2391 481 2648 825 
Q 2906 1169 2906 1791 
z
M 3481 434 
Q 3481 -459 3084 -895 
Q 2688 -1331 1869 -1331 
Q 1566 -1331 1297 -1286 
Q 1028 -1241 775 -1147 
L 775 -588 
Q 1028 -725 1275 -790 
Q 1522 -856 1778 -856 
Q 2344 -856 2625 -561 
Q 2906 -266 2906 331 
L 2906 616 
Q 2728 306 2450 153 
Q 2172 0 1784 0 
Q 1141 0 747 490 
Q 353 981 353 1791 
Q 353 2603 747 3093 
Q 1141 3584 1784 3584 
Q 2172 3584 2450 3431 
Q 2728 3278 2906 2969 
L 2906 3500 
L 3481 3500 
L 3481 434 
z
" id="DejaVuSans-67" transform="scale(0.015625)"/>
     </defs>
     <use xlink:href="#DejaVuSans-50"/>
     <use x="58.552734" xlink:href="#DejaVuSans-72"/>
     <use x="97.416016" xlink:href="#DejaVuSans-6f"/>
     <use x="158.597656" xlink:href="#DejaVuSans-6a"/>
     <use x="186.380859" xlink:href="#DejaVuSans-65"/>
     <use x="247.904297" xlink:href="#DejaVuSans-63"/>
     <use x="302.884766" xlink:href="#DejaVuSans-74"/>
     <use x="342.09375" xlink:href="#DejaVuSans-20"/>
     <use x="373.880859" xlink:href="#DejaVuSans-4d"/>
     <use x="460.160156" xlink:href="#DejaVuSans-61"/>
     <use x="521.439453" xlink:href="#DejaVuSans-6e"/>
     <use x="584.818359" xlink:href="#DejaVuSans-61"/>
     <use x="646.097656" xlink:href="#DejaVuSans-67"/>
     <use x="709.574219" xlink:href="#DejaVuSans-65"/>
     <use x="771.097656" xlink:href="#DejaVuSans-72"/>
    </g>
   </g>
   <g id="text_10">
    <!-- Sports Configuration -->
    <g transform="translate(282.763465 239.213806)scale(0.12 -0.12)">
     <defs>
      <path d="M 3425 4513 
L 3425 3897 
Q 3066 4069 2747 4153 
Q 2428 4238 2131 4238 
Q 1616 4238 1336 4038 
Q 1056 3838 1056 3469 
Q 1056 3159 1242 3001 
Q 1428 2844 1947 2747 
L 2328 2669 
Q 3034 2534 3370 2195 
Q 3706 1856 3706 1288 
Q 3706 609 3251 259 
Q 2797 -91 1919 -91 
Q 1588 -91 1214 -16 
Q 841 59 441 206 
L 441 856 
Q 825 641 1194 531 
Q 1563 422 1919 422 
Q 2459 422 2753 634 
Q 3047 847 3047 1241 
Q 3047 1584 2836 1778 
Q 2625 1972 2144 2069 
L 1759 2144 
Q 1053 2284 737 2584 
Q 422 2884 422 3419 
Q 422 4038 858 4394 
Q 1294 4750 2059 4750 
Q 2388 4750 2728 4690 
Q 3069 4631 3425 4513 
z
" id="DejaVuSans-53" transform="scale(0.015625)"/>
      <path d="M 1159 525 
L 1159 -1331 
L 581 -1331 
L 581 3500 
L 1159 3500 
L 1159 2969 
Q 1341 3281 1617 3432 
Q 1894 3584 2278 3584 
Q 2916 3584 3314 3078 
Q 3713 2572 3713 1747 
Q 3713 922 3314 415 
Q 2916 -91 2278 -91 
Q 1894 -91 1617 61 
Q 1341 213 1159 525 
z
M 3116 1747 
Q 3116 2381 2855 2742 
Q 2594 3103 2138 3103 
Q 1681 3103 1420 2742 
Q 1159 2381 1159 1747 
Q 1159 1113 1420 752 
Q 1681 391 2138 391 
Q 2594 391 2855 752 
Q 3116 1113 3116 1747 
z
" id="DejaVuSans-70" transform="scale(0.015625)"/>
      <path d="M 2834 3397 
L 2834 2853 
Q 2591 2978 2328 3040 
Q 2066 3103 1784 3103 
Q 1356 3103 1142 2972 
Q 928 2841 928 2578 
Q 928 2378 1081 2264 
Q 1234 2150 1697 2047 
L 1894 2003 
Q 2506 1872 2764 1633 
Q 3022 1394 3022 966 
Q 3022 478 2636 193 
Q 2250 -91 1575 -91 
Q 1294 -91 989 -36 
Q 684 19 347 128 
L 347 722 
Q 666 556 975 473 
Q 1284 391 1588 391 
Q 1994 391 2212 530 
Q 2431 669 2431 922 
Q 2431 1156 2273 1281 
Q 2116 1406 1581 1522 
L 1381 1569 
Q 847 1681 609 1914 
Q 372 2147 372 2553 
Q 372 3047 722 3315 
Q 1072 3584 1716 3584 
Q 2034 3584 2315 3537 
Q 2597 3491 2834 3397 
z
" id="DejaVuSans-73" transform="scale(0.015625)"/>
      <path d="M 4122 4306 
L 4122 3641 
Q 3803 3938 3442 4084 
Q 3081 4231 2675 4231 
Q 1875 4231 1450 3742 
Q 1025 3253 1025 2328 
Q 1025 1406 1450 917 
Q 1875 428 2675 428 
Q 3081 428 3442 575 
Q 3803 722 4122 1019 
L 4122 359 
Q 3791 134 3420 21 
Q 3050 -91 2638 -91 
Q 1578 -91 968 557 
Q 359 1206 359 2328 
Q 359 3453 968 4101 
Q 1578 4750 2638 4750 
Q 3056 4750 3426 4639 
Q 3797 4528 4122 4306 
z
" id="DejaVuSans-43" transform="scale(0.015625)"/>
      <path d="M 2375 4863 
L 2375 4384 
L 1825 4384 
Q 1516 4384 1395 4259 
Q 1275 4134 1275 3809 
L 1275 3500 
L 2222 3500 
L 2222 3053 
L 1275 3053 
L 1275 0 
L 697 0 
L 697 3053 
L 147 3053 
L 147 3500 
L 697 3500 
L 697 3744 
Q 697 4328 969 4595 
Q 1241 4863 1831 4863 
L 2375 4863 
z
" id="DejaVuSans-66" transform="scale(0.015625)"/>
      <path d="M 603 3500 
L 1178 3500 
L 1178 0 
L 603 0 
L 603 3500 
z
M 603 4863 
L 1178 4863 
L 1178 4134 
L 603 4134 
L 603 4863 
z
" id="DejaVuSans-69" transform="scale(0.015625)"/>
      <path d="M 544 1381 
L 544 3500 
L 1119 3500 
L 1119 1403 
Q 1119 906 1312 657 
Q 1506 409 1894 409 
Q 2359 409 2629 706 
Q 2900 1003 2900 1516 
L 2900 3500 
L 3475 3500 
L 3475 0 
L 2900 0 
L 2900 538 
Q 2691 219 2414 64 
Q 2138 -91 1772 -91 
Q 1169 -91 856 284 
Q 544 659 544 1381 
z
M 1991 3584 
L 1991 3584 
z
" id="DejaVuSans-75" transform="scale(0.015625)"/>
     </defs>
     <use xlink:href="#DejaVuSans-53"/>
     <use x="63.476562" xlink:href="#DejaVuSans-70"/>
     <use x="126.953125" xlink:href="#DejaVuSans-6f"/>
     <use x="188.134766" xlink:href="#DejaVuSans-72"/>
     <use x="229.248047" xlink:href="#DejaVuSans-74"/>
     <use x="268.457031" xlink:href="#DejaVuSans-73"/>
     <use x="320.556641" xlink:href="#DejaVuSans-20"/>
     <use x="352.34375" xlink:href="#DejaVuSans-43"/>
     <use x="422.167969" xlink:href="#DejaVuSans-6f"/>
     <use x="483.349609" xlink:href="#DejaVuSans-6e"/>
     <use x="546.728516" xlink:href="#DejaVuSans-66"/>
     <use x="581.933594" xlink:href="#DejaVuSans-69"/>
     <use x="609.716797" xlink:href="#DejaVuSans-67"/>
     <use x="673.193359" xlink:href="#DejaVuSans-75"/>
     <use x="736.572266" xlink:href="#DejaVuSans-72"/>
     <use x="777.685547" xlink:href="#DejaVuSans-61"/>
     <use x="838.964844" xlink:href="#DejaVuSans-74"/>
     <use x="878.173828" xlink:href="#DejaVuSans-69"/>
     <use x="905.957031" xlink:href="#DejaVuSans-6f"/>
     <use x="967.138672" xlink:href="#DejaVuSans-6e"/>
    </g>
   </g>
   <g id="text_11">
    <!-- JSON examples -->
    <g transform="translate(476.874 199.091284)scale(0.12 -0.12)">
     <defs>
      <path d="M 628 4666 
L 1259 4666 
L 1259 325 
Q 1259 -519 939 -900 
Q 619 -1281 -91 -1281 
L -331 -1281 
L -331 -750 
L -134 -750 
Q 284 -750 456 -515 
Q 628 -281 628 325 
L 628 4666 
z
" id="DejaVuSans-4a" transform="scale(0.015625)"/>
      <path d="M 2522 4238 
Q 1834 4238 1429 3725 
Q 1025 3213 1025 2328 
Q 1025 1447 1429 934 
Q 1834 422 2522 422 
Q 3209 422 3611 934 
Q 4013 1447 4013 2328 
Q 4013 3213 3611 3725 
Q 3209 4238 2522 4238 
z
M 2522 4750 
Q 3503 4750 4090 4092 
Q 4678 3434 4678 2328 
Q 4678 1225 4090 567 
Q 3503 -91 2522 -91 
Q 1538 -91 948 565 
Q 359 1222 359 2328 
Q 359 3434 948 4092 
Q 1538 4750 2522 4750 
z
" id="DejaVuSans-4f" transform="scale(0.015625)"/>
      <path d="M 628 4666 
L 1478 4666 
L 3547 763 
L 3547 4666 
L 4159 4666 
L 4159 0 
L 3309 0 
L 1241 3903 
L 1241 0 
L 628 0 
L 628 4666 
z
" id="DejaVuSans-4e" transform="scale(0.015625)"/>
      <path d="M 3513 3500 
L 2247 1797 
L 3578 0 
L 2900 0 
L 1881 1375 
L 863 0 
L 184 0 
L 1544 1831 
L 300 3500 
L 978 3500 
L 1906 2253 
L 2834 3500 
L 3513 3500 
z
" id="DejaVuSans-78" transform="scale(0.015625)"/>
      <path d="M 3328 2828 
Q 3544 3216 3844 3400 
Q 4144 3584 4550 3584 
Q 5097 3584 5394 3201 
Q 5691 2819 5691 2113 
L 5691 0 
L 5113 0 
L 5113 2094 
Q 5113 2597 4934 2840 
Q 4756 3084 4391 3084 
Q 3944 3084 3684 2787 
Q 3425 2491 3425 1978 
L 3425 0 
L 2847 0 
L 2847 2094 
Q 2847 2600 2669 2842 
Q 2491 3084 2119 3084 
Q 1678 3084 1418 2786 
Q 1159 2488 1159 1978 
L 1159 0 
L 581 0 
L 581 3500 
L 1159 3500 
L 1159 2956 
Q 1356 3278 1631 3431 
Q 1906 3584 2284 3584 
Q 2666 3584 2933 3390 
Q 3200 3197 3328 2828 
z
" id="DejaVuSans-6d" transform="scale(0.015625)"/>
      <path d="M 603 4863 
L 1178 4863 
L 1178 0 
L 603 0 
L 603 4863 
z
" id="DejaVuSans-6c" transform="scale(0.015625)"/>
     </defs>
     <use xlink:href="#DejaVuSans-4a"/>
     <use x="29.492188" xlink:href="#DejaVuSans-53"/>
     <use x="92.96875" xlink:href="#DejaVuSans-4f"/>
     <use x="171.679688" xlink:href="#DejaVuSans-4e"/>
     <use x="246.484375" xlink:href="#DejaVuSans-20"/>
     <use x="278.271484" xlink:href="#DejaVuSans-65"/>
     <use x="338.044922" xlink:href="#DejaVuSans-78"/>
     <use x="397.224609" xlink:href="#DejaVuSans-61"/>
     <use x="458.503906" xlink:href="#DejaVuSans-6d"/>
     <use x="555.916016" xlink:href="#DejaVuSans-70"/>
     <use x="619.392578" xlink:href="#DejaVuSans-6c"/>
     <use x="647.175781" xlink:href="#DejaVuSans-65"/>
     <use x="708.699219" xlink:href="#DejaVuSans-73"/>
    </g>
   </g>
   <g id="text_12">
    <!-- Test Suite -->
    <g transform="translate(437.592857 337.200375)scale(0.12 -0.12)">
     <defs>
      <path d="M -19 4666 
L 3928 4666 
L 3928 4134 
L 2272 4134 
L 2272 0 
L 1638 0 
L 1638 4134 
L -19 4134 
L -19 4666 
z
" id="DejaVuSans-54" transform="scale(0.015625)"/>
     </defs>
     <use xlink:href="#DejaVuSans-54"/>
     <use x="44.083984" xlink:href="#DejaVuSans-65"/>
     <use x="105.607422" xlink:href="#DejaVuSans-73"/>
     <use x="157.707031" xlink:href="#DejaVuSans-74"/>
     <use x="196.916016" xlink:href="#DejaVuSans-20"/>
     <use x="228.703125" xlink:href="#DejaVuSans-53"/>
     <use x="292.179688" xlink:href="#DejaVuSans-75"/>
     <use x="355.558594" xlink:href="#DejaVuSans-69"/>
     <use x="383.341797" xlink:href="#DejaVuSans-74"/>
     <use x="422.550781" xlink:href="#DejaVuSans-65"/>
    </g>
   </g>
   <g id="text_13">
    <!-- pytest -->
    <g transform="translate(559.547625 443.652525)scale(0.12 -0.12)">
     <defs>
      <path d="M 2059 -325 
Q 1816 -950 1584 -1140 
Q 1353 -1331 966 -1331 
L 506 -1331 
L 506 -850 
L 844 -850 
Q 1081 -850 1212 -737 
Q 1344 -625 1503 -206 
L 1606 56 
L 191 3500 
L 800 3500 
L 1894 763 
L 2988 3500 
L 3597 3500 
L 2059 -325 
z
" id="DejaVuSans-79" transform="scale(0.015625)"/>
     </defs>
     <use xlink:href="#DejaVuSans-70"/>
     <use x="63.476562" xlink:href="#DejaVuSans-79"/>
     <use x="122.65625" xlink:href="#DejaVuSans-74"/>
     <use x="161.865234" xlink:href="#DejaVuSans-65"/>
     <use x="223.388672" xlink:href="#DejaVuSans-73"/>
     <use x="275.488281" xlink:href="#DejaVuSans-74"/>
    </g>
   </g>
   <g id="text_14">
    <!-- Interface  -->
    <g transform="translate(275.08281 254.920386)scale(0.12 -0.12)">
     <defs>
      <path d="M 628 4666 
L 1259 4666 
L 1259 0 
L 628 0 
L 628 4666 
z
" id="DejaVuSans-49" transform="scale(0.015625)"/>
     </defs>
     <use xlink:href="#DejaVuSans-49"/>
     <use x="29.492188" xlink:href="#DejaVuSans-6e"/>
     <use x="92.871094" xlink:href="#DejaVuSans-74"/>
     <use x="132.080078" xlink:href="#DejaVuSans-65"/>
     <use x="193.603516" xlink:href="#DejaVuSans-72"/>
     <use x="234.716797" xlink:href="#DejaVuSans-66"/>
     <use x="269.921875" xlink:href="#DejaVuSans-61"/>
     <use x="331.201172" xlink:href="#DejaVuSans-63"/>
     <use x="386.181641" xlink:href="#DejaVuSans-65"/>
     <use x="447.705078" xlink:href="#DejaVuSans-20"/>
    </g>
    <!-- (Docker Image, API, documentation) -->
    <g transform="translate(114.72531 268.357761)scale(0.12 -0.12)">
     <defs>
      <path d="M 1984 4856 
Q 1566 4138 1362 3434 
Q 1159 2731 1159 2009 
Q 1159 1288 1364 580 
Q 1569 -128 1984 -844 
L 1484 -844 
Q 1016 -109 783 600 
Q 550 1309 550 2009 
Q 550 2706 781 3412 
Q 1013 4119 1484 4856 
L 1984 4856 
z
" id="DejaVuSans-28" transform="scale(0.015625)"/>
      <path d="M 1259 4147 
L 1259 519 
L 2022 519 
Q 2988 519 3436 956 
Q 3884 1394 3884 2338 
Q 3884 3275 3436 3711 
Q 2988 4147 2022 4147 
L 1259 4147 
z
M 628 4666 
L 1925 4666 
Q 3281 4666 3915 4102 
Q 4550 3538 4550 2338 
Q 4550 1131 3912 565 
Q 3275 0 1925 0 
L 628 0 
L 628 4666 
z
" id="DejaVuSans-44" transform="scale(0.015625)"/>
      <path d="M 581 4863 
L 1159 4863 
L 1159 1991 
L 2875 3500 
L 3609 3500 
L 1753 1863 
L 3688 0 
L 2938 0 
L 1159 1709 
L 1159 0 
L 581 0 
L 581 4863 
z
" id="DejaVuSans-6b" transform="scale(0.015625)"/>
      <path d="M 750 794 
L 1409 794 
L 1409 256 
L 897 -744 
L 494 -744 
L 750 256 
L 750 794 
z
" id="DejaVuSans-2c" transform="scale(0.015625)"/>
      <path d="M 2188 4044 
L 1331 1722 
L 3047 1722 
L 2188 4044 
z
M 1831 4666 
L 2547 4666 
L 4325 0 
L 3669 0 
L 3244 1197 
L 1141 1197 
L 716 0 
L 50 0 
L 1831 4666 
z
" id="DejaVuSans-41" transform="scale(0.015625)"/>
      <path d="M 2906 2969 
L 2906 4863 
L 3481 4863 
L 3481 0 
L 2906 0 
L 2906 525 
Q 2725 213 2448 61 
Q 2172 -91 1784 -91 
Q 1150 -91 751 415 
Q 353 922 353 1747 
Q 353 2572 751 3078 
Q 1150 3584 1784 3584 
Q 2172 3584 2448 3432 
Q 2725 3281 2906 2969 
z
M 947 1747 
Q 947 1113 1208 752 
Q 1469 391 1925 391 
Q 2381 391 2643 752 
Q 2906 1113 2906 1747 
Q 2906 2381 2643 2742 
Q 2381 3103 1925 3103 
Q 1469 3103 1208 2742 
Q 947 2381 947 1747 
z
" id="DejaVuSans-64" transform="scale(0.015625)"/>
      <path d="M 513 4856 
L 1013 4856 
Q 1481 4119 1714 3412 
Q 1947 2706 1947 2009 
Q 1947 1309 1714 600 
Q 1481 -109 1013 -844 
L 513 -844 
Q 928 -128 1133 580 
Q 1338 1288 1338 2009 
Q 1338 2731 1133 3434 
Q 928 4138 513 4856 
z
" id="DejaVuSans-29" transform="scale(0.015625)"/>
     </defs>
     <use xlink:href="#DejaVuSans-28"/>
     <use x="39.013672" xlink:href="#DejaVuSans-44"/>
     <use x="116.015625" xlink:href="#DejaVuSans-6f"/>
     <use x="177.197266" xlink:href="#DejaVuSans-63"/>
     <use x="232.177734" xlink:href="#DejaVuSans-6b"/>
     <use x="286.462891" xlink:href="#DejaVuSans-65"/>
     <use x="347.986328" xlink:href="#DejaVuSans-72"/>
     <use x="389.099609" xlink:href="#DejaVuSans-20"/>
     <use x="420.886719" xlink:href="#DejaVuSans-49"/>
     <use x="450.378906" xlink:href="#DejaVuSans-6d"/>
     <use x="547.791016" xlink:href="#DejaVuSans-61"/>
     <use x="609.070312" xlink:href="#DejaVuSans-67"/>
     <use x="672.546875" xlink:href="#DejaVuSans-65"/>
     <use x="734.070312" xlink:href="#DejaVuSans-2c"/>
     <use x="765.857422" xlink:href="#DejaVuSans-20"/>
     <use x="797.644531" xlink:href="#DejaVuSans-41"/>
     <use x="866.052734" xlink:href="#DejaVuSans-50"/>
     <use x="926.355469" xlink:href="#DejaVuSans-49"/>
     <use x="955.847656" xlink:href="#DejaVuSans-2c"/>
     <use x="987.634766" xlink:href="#DejaVuSans-20"/>
     <use x="1019.421875" xlink:href="#DejaVuSans-64"/>
     <use x="1082.898438" xlink:href="#DejaVuSans-6f"/>
     <use x="1144.080078" xlink:href="#DejaVuSans-63"/>
     <use x="1199.060547" xlink:href="#DejaVuSans-75"/>
     <use x="1262.439453" xlink:href="#DejaVuSans-6d"/>
     <use x="1359.851562" xlink:href="#DejaVuSans-65"/>
     <use x="1421.375" xlink:href="#DejaVuSans-6e"/>
     <use x="1484.753906" xlink:href="#DejaVuSans-74"/>
     <use x="1523.962891" xlink:href="#DejaVuSans-61"/>
     <use x="1585.242188" xlink:href="#DejaVuSans-74"/>
     <use x="1624.451172" xlink:href="#DejaVuSans-69"/>
     <use x="1652.234375" xlink:href="#DejaVuSans-6f"/>
     <use x="1713.416016" xlink:href="#DejaVuSans-6e"/>
     <use x="1776.794922" xlink:href="#DejaVuSans-29"/>
    </g>
   </g>
   <g id="text_15">
    <!-- Docker -->
    <g transform="translate(633.339893 263.891284)scale(0.12 -0.12)">
     <use xlink:href="#DejaVuSans-44"/>
     <use x="77.001953" xlink:href="#DejaVuSans-6f"/>
     <use x="138.183594" xlink:href="#DejaVuSans-63"/>
     <use x="193.164062" xlink:href="#DejaVuSans-6b"/>
     <use x="247.449219" xlink:href="#DejaVuSans-65"/>
     <use x="308.972656" xlink:href="#DejaVuSans-72"/>
    </g>
   </g>
   <g id="text_16">
    <!-- Config parser, paralleliser -->
    <g transform="translate(274.897753 283.862519)scale(0.12 -0.12)">
     <use xlink:href="#DejaVuSans-43"/>
     <use x="69.824219" xlink:href="#DejaVuSans-6f"/>
     <use x="131.005859" xlink:href="#DejaVuSans-6e"/>
     <use x="194.384766" xlink:href="#DejaVuSans-66"/>
     <use x="229.589844" xlink:href="#DejaVuSans-69"/>
     <use x="257.373047" xlink:href="#DejaVuSans-67"/>
     <use x="320.849609" xlink:href="#DejaVuSans-20"/>
     <use x="352.636719" xlink:href="#DejaVuSans-70"/>
     <use x="416.113281" xlink:href="#DejaVuSans-61"/>
     <use x="477.392578" xlink:href="#DejaVuSans-72"/>
     <use x="518.505859" xlink:href="#DejaVuSans-73"/>
     <use x="570.605469" xlink:href="#DejaVuSans-65"/>
     <use x="632.128906" xlink:href="#DejaVuSans-72"/>
     <use x="673.242188" xlink:href="#DejaVuSans-2c"/>
     <use x="705.029297" xlink:href="#DejaVuSans-20"/>
     <use x="736.816406" xlink:href="#DejaVuSans-70"/>
     <use x="800.292969" xlink:href="#DejaVuSans-61"/>
     <use x="861.572266" xlink:href="#DejaVuSans-72"/>
     <use x="902.685547" xlink:href="#DejaVuSans-61"/>
     <use x="963.964844" xlink:href="#DejaVuSans-6c"/>
     <use x="991.748047" xlink:href="#DejaVuSans-6c"/>
     <use x="1019.53125" xlink:href="#DejaVuSans-65"/>
     <use x="1081.054688" xlink:href="#DejaVuSans-6c"/>
     <use x="1108.837891" xlink:href="#DejaVuSans-69"/>
     <use x="1136.621094" xlink:href="#DejaVuSans-73"/>
     <use x="1188.720703" xlink:href="#DejaVuSans-65"/>
     <use x="1250.244141" xlink:href="#DejaVuSans-72"/>
    </g>
   </g>
   <g id="text_17">
    <!-- Parallel programming -->
    <g transform="translate(686.592 363.012525)scale(0.12 -0.12)">
     <use xlink:href="#DejaVuSans-50"/>
     <use x="55.802734" xlink:href="#DejaVuSans-61"/>
     <use x="117.082031" xlink:href="#DejaVuSans-72"/>
     <use x="158.195312" xlink:href="#DejaVuSans-61"/>
     <use x="219.474609" xlink:href="#DejaVuSans-6c"/>
     <use x="247.257812" xlink:href="#DejaVuSans-6c"/>
     <use x="275.041016" xlink:href="#DejaVuSans-65"/>
     <use x="336.564453" xlink:href="#DejaVuSans-6c"/>
     <use x="364.347656" xlink:href="#DejaVuSans-20"/>
     <use x="396.134766" xlink:href="#DejaVuSans-70"/>
     <use x="459.611328" xlink:href="#DejaVuSans-72"/>
     <use x="498.474609" xlink:href="#DejaVuSans-6f"/>
     <use x="559.65625" xlink:href="#DejaVuSans-67"/>
     <use x="623.132812" xlink:href="#DejaVuSans-72"/>
     <use x="664.246094" xlink:href="#DejaVuSans-61"/>
     <use x="725.525391" xlink:href="#DejaVuSans-6d"/>
     <use x="822.9375" xlink:href="#DejaVuSans-6d"/>
     <use x="920.349609" xlink:href="#DejaVuSans-69"/>
     <use x="948.132812" xlink:href="#DejaVuSans-6e"/>
     <use x="1011.511719" xlink:href="#DejaVuSans-67"/>
    </g>
    <!-- design patterns -->
    <g transform="translate(686.592 376.4499)scale(0.12 -0.12)">
     <use xlink:href="#DejaVuSans-64"/>
     <use x="63.476562" xlink:href="#DejaVuSans-65"/>
     <use x="125" xlink:href="#DejaVuSans-73"/>
     <use x="177.099609" xlink:href="#DejaVuSans-69"/>
     <use x="204.882812" xlink:href="#DejaVuSans-67"/>
     <use x="268.359375" xlink:href="#DejaVuSans-6e"/>
     <use x="331.738281" xlink:href="#DejaVuSans-20"/>
     <use x="363.525391" xlink:href="#DejaVuSans-70"/>
     <use x="427.001953" xlink:href="#DejaVuSans-61"/>
     <use x="488.28125" xlink:href="#DejaVuSans-74"/>
     <use x="527.490234" xlink:href="#DejaVuSans-74"/>
     <use x="566.699219" xlink:href="#DejaVuSans-65"/>
     <use x="628.222656" xlink:href="#DejaVuSans-72"/>
     <use x="667.585938" xlink:href="#DejaVuSans-6e"/>
     <use x="730.964844" xlink:href="#DejaVuSans-73"/>
    </g>
   </g>
   <g id="text_18">
    <!-- Solver -->
    <g transform="translate(411.298091 440.686125)scale(0.12 -0.12)">
     <defs>
      <path d="M 191 3500 
L 800 3500 
L 1894 563 
L 2988 3500 
L 3597 3500 
L 2284 0 
L 1503 0 
L 191 3500 
z
" id="DejaVuSans-76" transform="scale(0.015625)"/>
     </defs>
     <use xlink:href="#DejaVuSans-53"/>
     <use x="63.476562" xlink:href="#DejaVuSans-6f"/>
     <use x="124.658203" xlink:href="#DejaVuSans-6c"/>
     <use x="152.441406" xlink:href="#DejaVuSans-76"/>
     <use x="211.621094" xlink:href="#DejaVuSans-65"/>
     <use x="273.144531" xlink:href="#DejaVuSans-72"/>
    </g>
   </g>
   <g id="text_19">
    <!-- Knowledge,  -->
    <g transform="translate(363.012375 524.292525)scale(0.12 -0.12)">
     <defs>
      <path d="M 628 4666 
L 1259 4666 
L 1259 2694 
L 3353 4666 
L 4166 4666 
L 1850 2491 
L 4331 0 
L 3500 0 
L 1259 2247 
L 1259 0 
L 628 0 
L 628 4666 
z
" id="DejaVuSans-4b" transform="scale(0.015625)"/>
      <path d="M 269 3500 
L 844 3500 
L 1563 769 
L 2278 3500 
L 2956 3500 
L 3675 769 
L 4391 3500 
L 4966 3500 
L 4050 0 
L 3372 0 
L 2619 2869 
L 1863 0 
L 1184 0 
L 269 3500 
z
" id="DejaVuSans-77" transform="scale(0.015625)"/>
     </defs>
     <use xlink:href="#DejaVuSans-4b"/>
     <use x="65.576172" xlink:href="#DejaVuSans-6e"/>
     <use x="128.955078" xlink:href="#DejaVuSans-6f"/>
     <use x="190.136719" xlink:href="#DejaVuSans-77"/>
     <use x="271.923828" xlink:href="#DejaVuSans-6c"/>
     <use x="299.707031" xlink:href="#DejaVuSans-65"/>
     <use x="361.230469" xlink:href="#DejaVuSans-64"/>
     <use x="424.707031" xlink:href="#DejaVuSans-67"/>
     <use x="488.183594" xlink:href="#DejaVuSans-65"/>
     <use x="549.707031" xlink:href="#DejaVuSans-2c"/>
     <use x="581.494141" xlink:href="#DejaVuSans-20"/>
    </g>
    <!-- knapsack problem -->
    <g transform="translate(326.468625 537.7299)scale(0.12 -0.12)">
     <defs>
      <path d="M 3116 1747 
Q 3116 2381 2855 2742 
Q 2594 3103 2138 3103 
Q 1681 3103 1420 2742 
Q 1159 2381 1159 1747 
Q 1159 1113 1420 752 
Q 1681 391 2138 391 
Q 2594 391 2855 752 
Q 3116 1113 3116 1747 
z
M 1159 2969 
Q 1341 3281 1617 3432 
Q 1894 3584 2278 3584 
Q 2916 3584 3314 3078 
Q 3713 2572 3713 1747 
Q 3713 922 3314 415 
Q 2916 -91 2278 -91 
Q 1894 -91 1617 61 
Q 1341 213 1159 525 
L 1159 0 
L 581 0 
L 581 4863 
L 1159 4863 
L 1159 2969 
z
" id="DejaVuSans-62" transform="scale(0.015625)"/>
     </defs>
     <use xlink:href="#DejaVuSans-6b"/>
     <use x="57.910156" xlink:href="#DejaVuSans-6e"/>
     <use x="121.289062" xlink:href="#DejaVuSans-61"/>
     <use x="182.568359" xlink:href="#DejaVuSans-70"/>
     <use x="246.044922" xlink:href="#DejaVuSans-73"/>
     <use x="298.144531" xlink:href="#DejaVuSans-61"/>
     <use x="359.423828" xlink:href="#DejaVuSans-63"/>
     <use x="414.404297" xlink:href="#DejaVuSans-6b"/>
     <use x="472.314453" xlink:href="#DejaVuSans-20"/>
     <use x="504.101562" xlink:href="#DejaVuSans-70"/>
     <use x="567.578125" xlink:href="#DejaVuSans-72"/>
     <use x="606.441406" xlink:href="#DejaVuSans-6f"/>
     <use x="667.623047" xlink:href="#DejaVuSans-62"/>
     <use x="731.099609" xlink:href="#DejaVuSans-6c"/>
     <use x="758.882812" xlink:href="#DejaVuSans-65"/>
     <use x="820.40625" xlink:href="#DejaVuSans-6d"/>
    </g>
   </g>
   <g id="text_20">
    <!-- Cython -->
    <g transform="translate(497.09565 533.356525)scale(0.12 -0.12)">
     <defs>
      <path d="M 3513 2113 
L 3513 0 
L 2938 0 
L 2938 2094 
Q 2938 2591 2744 2837 
Q 2550 3084 2163 3084 
Q 1697 3084 1428 2787 
Q 1159 2491 1159 1978 
L 1159 0 
L 581 0 
L 581 4863 
L 1159 4863 
L 1159 2956 
Q 1366 3272 1645 3428 
Q 1925 3584 2291 3584 
Q 2894 3584 3203 3211 
Q 3513 2838 3513 2113 
z
" id="DejaVuSans-68" transform="scale(0.015625)"/>
     </defs>
     <use xlink:href="#DejaVuSans-43"/>
     <use x="69.824219" xlink:href="#DejaVuSans-79"/>
     <use x="129.003906" xlink:href="#DejaVuSans-74"/>
     <use x="168.212891" xlink:href="#DejaVuSans-68"/>
     <use x="231.591797" xlink:href="#DejaVuSans-6f"/>
     <use x="292.773438" xlink:href="#DejaVuSans-6e"/>
    </g>
   </g>
   <g id="text_21">
    <!-- Python language  -->
    <g transform="translate(691.74432 541.142077)scale(0.12 -0.12)">
     <use xlink:href="#DejaVuSans-50"/>
     <use x="60.302734" xlink:href="#DejaVuSans-79"/>
     <use x="119.482422" xlink:href="#DejaVuSans-74"/>
     <use x="158.691406" xlink:href="#DejaVuSans-68"/>
     <use x="222.070312" xlink:href="#DejaVuSans-6f"/>
     <use x="283.251953" xlink:href="#DejaVuSans-6e"/>
     <use x="346.630859" xlink:href="#DejaVuSans-20"/>
     <use x="378.417969" xlink:href="#DejaVuSans-6c"/>
     <use x="406.201172" xlink:href="#DejaVuSans-61"/>
     <use x="467.480469" xlink:href="#DejaVuSans-6e"/>
     <use x="530.859375" xlink:href="#DejaVuSans-67"/>
     <use x="594.335938" xlink:href="#DejaVuSans-75"/>
     <use x="657.714844" xlink:href="#DejaVuSans-61"/>
     <use x="718.994141" xlink:href="#DejaVuSans-67"/>
     <use x="782.470703" xlink:href="#DejaVuSans-65"/>
     <use x="843.994141" xlink:href="#DejaVuSans-20"/>
    </g>
    <!-- &amp; ecosystem -->
    <g transform="translate(691.74432 554.579452)scale(0.12 -0.12)">
     <defs>
      <path d="M 1556 2509 
Q 1272 2256 1139 2004 
Q 1006 1753 1006 1478 
Q 1006 1022 1337 719 
Q 1669 416 2169 416 
Q 2466 416 2725 514 
Q 2984 613 3213 813 
L 1556 2509 
z
M 1997 2859 
L 3584 1234 
Q 3769 1513 3872 1830 
Q 3975 2147 3994 2503 
L 4575 2503 
Q 4538 2091 4375 1687 
Q 4213 1284 3922 891 
L 4794 0 
L 4006 0 
L 3559 459 
Q 3234 181 2878 45 
Q 2522 -91 2113 -91 
Q 1359 -91 881 339 
Q 403 769 403 1441 
Q 403 1841 612 2192 
Q 822 2544 1241 2853 
Q 1091 3050 1012 3245 
Q 934 3441 934 3628 
Q 934 4134 1281 4442 
Q 1628 4750 2203 4750 
Q 2463 4750 2720 4694 
Q 2978 4638 3244 4525 
L 3244 3956 
Q 2972 4103 2725 4179 
Q 2478 4256 2266 4256 
Q 1938 4256 1733 4082 
Q 1528 3909 1528 3634 
Q 1528 3475 1620 3314 
Q 1713 3153 1997 2859 
z
" id="DejaVuSans-26" transform="scale(0.015625)"/>
     </defs>
     <use xlink:href="#DejaVuSans-26"/>
     <use x="77.978516" xlink:href="#DejaVuSans-20"/>
     <use x="109.765625" xlink:href="#DejaVuSans-65"/>
     <use x="171.289062" xlink:href="#DejaVuSans-63"/>
     <use x="226.269531" xlink:href="#DejaVuSans-6f"/>
     <use x="287.451172" xlink:href="#DejaVuSans-73"/>
     <use x="339.550781" xlink:href="#DejaVuSans-79"/>
     <use x="398.730469" xlink:href="#DejaVuSans-73"/>
     <use x="450.830078" xlink:href="#DejaVuSans-74"/>
     <use x="490.039062" xlink:href="#DejaVuSans-65"/>
     <use x="551.5625" xlink:href="#DejaVuSans-6d"/>
    </g>
   </g>
   <g id="text_22">
    <!-- My laptop, pens, paper -->
    <g transform="translate(476.907375 604.932525)scale(0.12 -0.12)">
     <use xlink:href="#DejaVuSans-4d"/>
     <use x="86.279297" xlink:href="#DejaVuSans-79"/>
     <use x="145.458984" xlink:href="#DejaVuSans-20"/>
     <use x="177.246094" xlink:href="#DejaVuSans-6c"/>
     <use x="205.029297" xlink:href="#DejaVuSans-61"/>
     <use x="266.308594" xlink:href="#DejaVuSans-70"/>
     <use x="329.785156" xlink:href="#DejaVuSans-74"/>
     <use x="368.994141" xlink:href="#DejaVuSans-6f"/>
     <use x="430.175781" xlink:href="#DejaVuSans-70"/>
     <use x="493.652344" xlink:href="#DejaVuSans-2c"/>
     <use x="525.439453" xlink:href="#DejaVuSans-20"/>
     <use x="557.226562" xlink:href="#DejaVuSans-70"/>
     <use x="620.703125" xlink:href="#DejaVuSans-65"/>
     <use x="682.226562" xlink:href="#DejaVuSans-6e"/>
     <use x="745.605469" xlink:href="#DejaVuSans-73"/>
     <use x="797.705078" xlink:href="#DejaVuSans-2c"/>
     <use x="829.492188" xlink:href="#DejaVuSans-20"/>
     <use x="861.279297" xlink:href="#DejaVuSans-70"/>
     <use x="924.755859" xlink:href="#DejaVuSans-61"/>
     <use x="986.035156" xlink:href="#DejaVuSans-70"/>
     <use x="1049.511719" xlink:href="#DejaVuSans-65"/>
     <use x="1111.035156" xlink:href="#DejaVuSans-72"/>
    </g>
   </g>
   <g id="text_23">
    <!-- Rebuild - API, integration tests, TDD -->
    <g transform="translate(328.449219 76.944)scale(0.14 -0.14)">
     <defs>
      <path d="M 2297 2597 
Q 2675 2597 2839 2737 
Q 3003 2878 3003 3200 
Q 3003 3519 2839 3656 
Q 2675 3794 2297 3794 
L 1791 3794 
L 1791 2597 
L 2297 2597 
z
M 1791 1766 
L 1791 0 
L 588 0 
L 588 4666 
L 2425 4666 
Q 3347 4666 3776 4356 
Q 4206 4047 4206 3378 
Q 4206 2916 3982 2619 
Q 3759 2322 3309 2181 
Q 3556 2125 3751 1926 
Q 3947 1728 4147 1325 
L 4800 0 
L 3519 0 
L 2950 1159 
Q 2778 1509 2601 1637 
Q 2425 1766 2131 1766 
L 1791 1766 
z
" id="DejaVuSans-Bold-52" transform="scale(0.015625)"/>
      <path d="M 2400 722 
Q 2759 722 2948 984 
Q 3138 1247 3138 1747 
Q 3138 2247 2948 2509 
Q 2759 2772 2400 2772 
Q 2041 2772 1848 2508 
Q 1656 2244 1656 1747 
Q 1656 1250 1848 986 
Q 2041 722 2400 722 
z
M 1656 2988 
Q 1888 3294 2169 3439 
Q 2450 3584 2816 3584 
Q 3463 3584 3878 3070 
Q 4294 2556 4294 1747 
Q 4294 938 3878 423 
Q 3463 -91 2816 -91 
Q 2450 -91 2169 54 
Q 1888 200 1656 506 
L 1656 0 
L 538 0 
L 538 4863 
L 1656 4863 
L 1656 2988 
z
" id="DejaVuSans-Bold-62" transform="scale(0.015625)"/>
      <path d="M 2919 2988 
L 2919 4863 
L 4044 4863 
L 4044 0 
L 2919 0 
L 2919 506 
Q 2688 197 2409 53 
Q 2131 -91 1766 -91 
Q 1119 -91 703 423 
Q 288 938 288 1747 
Q 288 2556 703 3070 
Q 1119 3584 1766 3584 
Q 2128 3584 2408 3439 
Q 2688 3294 2919 2988 
z
M 2181 722 
Q 2541 722 2730 984 
Q 2919 1247 2919 1747 
Q 2919 2247 2730 2509 
Q 2541 2772 2181 2772 
Q 1825 2772 1636 2509 
Q 1447 2247 1447 1747 
Q 1447 1247 1636 984 
Q 1825 722 2181 722 
z
" id="DejaVuSans-Bold-64" transform="scale(0.015625)"/>
      <path d="M 347 2297 
L 2309 2297 
L 2309 1388 
L 347 1388 
L 347 2297 
z
" id="DejaVuSans-Bold-2d" transform="scale(0.015625)"/>
      <path d="M 3419 850 
L 1538 850 
L 1241 0 
L 31 0 
L 1759 4666 
L 3194 4666 
L 4922 0 
L 3713 0 
L 3419 850 
z
M 1838 1716 
L 3116 1716 
L 2478 3572 
L 1838 1716 
z
" id="DejaVuSans-Bold-41" transform="scale(0.015625)"/>
      <path d="M 588 4666 
L 2584 4666 
Q 3475 4666 3951 4270 
Q 4428 3875 4428 3144 
Q 4428 2409 3951 2014 
Q 3475 1619 2584 1619 
L 1791 1619 
L 1791 0 
L 588 0 
L 588 4666 
z
M 1791 3794 
L 1791 2491 
L 2456 2491 
Q 2806 2491 2997 2661 
Q 3188 2831 3188 3144 
Q 3188 3456 2997 3625 
Q 2806 3794 2456 3794 
L 1791 3794 
z
" id="DejaVuSans-Bold-50" transform="scale(0.015625)"/>
      <path d="M 588 4666 
L 1791 4666 
L 1791 0 
L 588 0 
L 588 4666 
z
" id="DejaVuSans-Bold-49" transform="scale(0.015625)"/>
      <path d="M 653 1209 
L 1778 1209 
L 1778 256 
L 1006 -909 
L 341 -909 
L 653 256 
L 653 1209 
z
" id="DejaVuSans-Bold-2c" transform="scale(0.015625)"/>
      <path d="M 2919 594 
Q 2688 288 2409 144 
Q 2131 0 1766 0 
Q 1125 0 706 504 
Q 288 1009 288 1791 
Q 288 2575 706 3076 
Q 1125 3578 1766 3578 
Q 2131 3578 2409 3434 
Q 2688 3291 2919 2981 
L 2919 3500 
L 4044 3500 
L 4044 353 
Q 4044 -491 3511 -936 
Q 2978 -1381 1966 -1381 
Q 1638 -1381 1331 -1331 
Q 1025 -1281 716 -1178 
L 716 -306 
Q 1009 -475 1290 -558 
Q 1572 -641 1856 -641 
Q 2406 -641 2662 -400 
Q 2919 -159 2919 353 
L 2919 594 
z
M 2181 2772 
Q 1834 2772 1640 2515 
Q 1447 2259 1447 1791 
Q 1447 1309 1634 1061 
Q 1822 813 2181 813 
Q 2531 813 2725 1069 
Q 2919 1325 2919 1791 
Q 2919 2259 2725 2515 
Q 2531 2772 2181 2772 
z
" id="DejaVuSans-Bold-67" transform="scale(0.015625)"/>
      <path d="M 3138 2547 
Q 2991 2616 2845 2648 
Q 2700 2681 2553 2681 
Q 2122 2681 1889 2404 
Q 1656 2128 1656 1613 
L 1656 0 
L 538 0 
L 538 3500 
L 1656 3500 
L 1656 2925 
Q 1872 3269 2151 3426 
Q 2431 3584 2822 3584 
Q 2878 3584 2943 3579 
Q 3009 3575 3134 3559 
L 3138 2547 
z
" id="DejaVuSans-Bold-72" transform="scale(0.015625)"/>
      <path d="M 3272 3391 
L 3272 2541 
Q 2913 2691 2578 2766 
Q 2244 2841 1947 2841 
Q 1628 2841 1473 2761 
Q 1319 2681 1319 2516 
Q 1319 2381 1436 2309 
Q 1553 2238 1856 2203 
L 2053 2175 
Q 2913 2066 3209 1816 
Q 3506 1566 3506 1031 
Q 3506 472 3093 190 
Q 2681 -91 1863 -91 
Q 1516 -91 1145 -36 
Q 775 19 384 128 
L 384 978 
Q 719 816 1070 734 
Q 1422 653 1784 653 
Q 2113 653 2278 743 
Q 2444 834 2444 1013 
Q 2444 1163 2330 1236 
Q 2216 1309 1875 1350 
L 1678 1375 
Q 931 1469 631 1722 
Q 331 1975 331 2491 
Q 331 3047 712 3315 
Q 1094 3584 1881 3584 
Q 2191 3584 2531 3537 
Q 2872 3491 3272 3391 
z
" id="DejaVuSans-Bold-73" transform="scale(0.015625)"/>
      <path d="M 31 4666 
L 4331 4666 
L 4331 3756 
L 2784 3756 
L 2784 0 
L 1581 0 
L 1581 3756 
L 31 3756 
L 31 4666 
z
" id="DejaVuSans-Bold-54" transform="scale(0.015625)"/>
      <path d="M 1791 3756 
L 1791 909 
L 2222 909 
Q 2959 909 3348 1275 
Q 3738 1641 3738 2338 
Q 3738 3031 3350 3393 
Q 2963 3756 2222 3756 
L 1791 3756 
z
M 588 4666 
L 1856 4666 
Q 2919 4666 3439 4514 
Q 3959 4363 4331 4000 
Q 4659 3684 4818 3271 
Q 4978 2859 4978 2338 
Q 4978 1809 4818 1395 
Q 4659 981 4331 666 
Q 3956 303 3431 151 
Q 2906 0 1856 0 
L 588 0 
L 588 4666 
z
" id="DejaVuSans-Bold-44" transform="scale(0.015625)"/>
     </defs>
     <use xlink:href="#DejaVuSans-Bold-52"/>
     <use x="77.001953" xlink:href="#DejaVuSans-Bold-65"/>
     <use x="144.824219" xlink:href="#DejaVuSans-Bold-62"/>
     <use x="216.40625" xlink:href="#DejaVuSans-Bold-75"/>
     <use x="287.597656" xlink:href="#DejaVuSans-Bold-69"/>
     <use x="321.875" xlink:href="#DejaVuSans-Bold-6c"/>
     <use x="356.152344" xlink:href="#DejaVuSans-Bold-64"/>
     <use x="427.734375" xlink:href="#DejaVuSans-Bold-20"/>
     <use x="462.548828" xlink:href="#DejaVuSans-Bold-2d"/>
     <use x="504.052734" xlink:href="#DejaVuSans-Bold-20"/>
     <use x="538.867188" xlink:href="#DejaVuSans-Bold-41"/>
     <use x="616.259766" xlink:href="#DejaVuSans-Bold-50"/>
     <use x="689.550781" xlink:href="#DejaVuSans-Bold-49"/>
     <use x="726.757812" xlink:href="#DejaVuSans-Bold-2c"/>
     <use x="764.746094" xlink:href="#DejaVuSans-Bold-20"/>
     <use x="799.560547" xlink:href="#DejaVuSans-Bold-69"/>
     <use x="833.837891" xlink:href="#DejaVuSans-Bold-6e"/>
     <use x="905.029297" xlink:href="#DejaVuSans-Bold-74"/>
     <use x="952.832031" xlink:href="#DejaVuSans-Bold-65"/>
     <use x="1020.654297" xlink:href="#DejaVuSans-Bold-67"/>
     <use x="1092.236328" xlink:href="#DejaVuSans-Bold-72"/>
     <use x="1141.552734" xlink:href="#DejaVuSans-Bold-61"/>
     <use x="1209.033203" xlink:href="#DejaVuSans-Bold-74"/>
     <use x="1256.835938" xlink:href="#DejaVuSans-Bold-69"/>
     <use x="1291.113281" xlink:href="#DejaVuSans-Bold-6f"/>
     <use x="1359.814453" xlink:href="#DejaVuSans-Bold-6e"/>
     <use x="1431.005859" xlink:href="#DejaVuSans-Bold-20"/>
     <use x="1465.820312" xlink:href="#DejaVuSans-Bold-74"/>
     <use x="1513.623047" xlink:href="#DejaVuSans-Bold-65"/>
     <use x="1581.445312" xlink:href="#DejaVuSans-Bold-73"/>
     <use x="1640.966797" xlink:href="#DejaVuSans-Bold-74"/>
     <use x="1688.769531" xlink:href="#DejaVuSans-Bold-73"/>
     <use x="1748.291016" xlink:href="#DejaVuSans-Bold-2c"/>
     <use x="1786.279297" xlink:href="#DejaVuSans-Bold-20"/>
     <use x="1821.09375" xlink:href="#DejaVuSans-Bold-54"/>
     <use x="1889.306641" xlink:href="#DejaVuSans-Bold-44"/>
     <use x="1972.314453" xlink:href="#DejaVuSans-Bold-44"/>
    </g>
   </g>
   <g id="patch_5">
    <path clip-path="url(#p99d66b13f4)" d="M 448.276944 107.136 
L 448.2496 107.086 
Q 449.048428 107.1085 449.847256 107.121 
L 448.2496 104.136 
Q 452.2496 105.036 456.2496 107.136 
Q 452.2496 109.236 448.2496 110.136 
L 449.847256 107.151 
Q 449.048428 107.1635 448.2496 107.186 
L 448.276944 107.136 
z
" style="fill:#ff0000;stroke:#ff0000;stroke-linecap:round;"/>
   </g>
   <g id="patch_6">
    <path clip-path="url(#p99d66b13f4)" d="M 394.708944 187.776 
L 394.6816 187.726 
Q 395.480428 187.7485 396.279256 187.761 
L 394.6816 184.776 
Q 398.6816 185.676 402.6816 187.776 
Q 398.6816 189.876 394.6816 190.776 
L 396.279256 187.791 
Q 395.480428 187.8035 394.6816 187.826 
L 394.708944 187.776 
z
" style="fill:#ff0000;stroke:#ff0000;stroke-linecap:round;"/>
   </g>
   <g id="patch_7">
    <path clip-path="url(#p99d66b13f4)" d="M 483.988944 187.776 
L 483.9616 187.726 
Q 484.760428 187.7485 485.559256 187.761 
L 483.9616 184.776 
Q 487.9616 185.676 491.9616 187.776 
Q 487.9616 189.876 483.9616 190.776 
L 485.559256 187.791 
Q 484.760428 187.8035 483.9616 187.826 
L 483.988944 187.776 
z
" style="fill:#ff0000;stroke:#ff0000;stroke-linecap:round;"/>
   </g>
   <g id="patch_8">
    <path clip-path="url(#p99d66b13f4)" d="M 483.988944 349.056 
L 483.9616 349.006 
Q 484.760428 349.0285 485.559256 349.041 
L 483.9616 346.056 
Q 487.9616 346.956 491.9616 349.056 
Q 487.9616 351.156 483.9616 352.056 
L 485.559256 349.071 
Q 484.760428 349.0835 483.9616 349.106 
L 483.988944 349.056 
z
" style="fill:#ff0000;stroke:#ff0000;stroke-linecap:round;"/>
   </g>
   <g id="patch_9">
    <path clip-path="url(#p99d66b13f4)" d="M 448.276944 187.776 
L 448.2496 187.726 
Q 449.048428 187.7485 449.847256 187.761 
L 448.2496 184.776 
Q 452.2496 185.676 456.2496 187.776 
Q 452.2496 189.876 448.2496 190.776 
L 449.847256 187.791 
Q 449.048428 187.8035 448.2496 187.826 
L 448.276944 187.776 
z
" style="fill:#ff0000;stroke:#ff0000;stroke-linecap:round;"/>
   </g>
   <g id="patch_10">
    <path clip-path="url(#p99d66b13f4)" d="M 430.420944 268.416 
L 430.3936 268.366 
Q 431.192428 268.3885 431.991256 268.401 
L 430.3936 265.416 
Q 434.3936 266.316 438.3936 268.416 
Q 434.3936 270.516 430.3936 271.416 
L 431.991256 268.431 
Q 431.192428 268.4435 430.3936 268.466 
L 430.420944 268.416 
z
" style="fill:#ff0000;stroke:#ff0000;stroke-linecap:round;"/>
   </g>
   <g id="patch_11">
    <path clip-path="url(#p99d66b13f4)" d="M 466.132944 429.696 
L 466.1056 429.646 
Q 466.904428 429.6685 467.703256 429.681 
L 466.1056 426.696 
Q 470.1056 427.596 474.1056 429.696 
Q 470.1056 431.796 466.1056 432.696 
L 467.703256 429.711 
Q 466.904428 429.7235 466.1056 429.746 
L 466.132944 429.696 
z
" style="fill:#ff0000;stroke:#ff0000;stroke-linecap:round;"/>
   </g>
   <g id="patch_12">
    <path clip-path="url(#p99d66b13f4)" d="M 448.276944 510.336 
L 448.2496 510.286 
Q 449.048428 510.3085 449.847256 510.321 
L 448.2496 507.336 
Q 452.2496 508.236 456.2496 510.336 
Q 452.2496 512.436 448.2496 513.336 
L 449.847256 510.351 
Q 449.048428 510.3635 448.2496 510.386 
L 448.276944 510.336 
z
" style="fill:#ff0000;stroke:#ff0000;stroke-linecap:round;"/>
   </g>
  </g>
 </g>
 <defs>
  <clipPath id="p99d66b13f4">
   <rect height="532.224" width="714.24" x="115.2" y="82.944"/>
  </clipPath>
 </defs>
</svg>
