<?xml version="1.0" encoding="utf-8" standalone="no"?>
<!DOCTYPE svg PUBLIC "-//W3C//DTD SVG 1.1//EN"
  "http://www.w3.org/Graphics/SVG/1.1/DTD/svg11.dtd">
<svg height="691.2pt" version="1.1" viewBox="0 0 921.6 691.2" width="921.6pt" xmlns="http://www.w3.org/2000/svg" xmlns:xlink="http://www.w3.org/1999/xlink">
 <metadata>
  <rdf:RDF xmlns:cc="http://creativecommons.org/ns#" xmlns:dc="http://purl.org/dc/elements/1.1/" xmlns:rdf="http://www.w3.org/1999/02/22-rdf-syntax-ns#">
   <cc:Work>
    <dc:type rdf:resource="http://purl.org/dc/dcmitype/StillImage"/>
    <dc:date>2021-06-15T17:46:11.497527</dc:date>
    <dc:format>image/svg+xml</dc:format>
    <dc:creator>
     <cc:Agent>
      <dc:title>Matplotlib v3.4.2, https://matplotlib.org/</dc:title>
     </cc:Agent>
    </dc:creator>
   </cc:Work>
  </rdf:RDF>
 </metadata>
 <defs>
  <style type="text/css">*{stroke-linecap:butt;stroke-linejoin:round;}</style>
 </defs>
 <g id="figure_1">
  <g id="patch_1">
   <path d="M 0 691.2 
L 921.6 691.2 
L 921.6 0 
L 0 0 
z
" style="fill:#ffffff;"/>
  </g>
  <g id="axes_1">
   <g id="patch_2">
    <path d="M 115.2 615.168 
L 829.44 615.168 
L 829.44 82.944 
L 115.2 82.944 
z
" style="fill:#ffffff;"/>
   </g>
   <g id="LineCollection_1">
    <path clip-path="url(#pb2a53105a3)" d="M 115.2 692.2 
L 115.2 -1 
" style="fill:none;stroke:#d3d3d3;stroke-dasharray:7.5,7.5;stroke-dashoffset:0;stroke-width:1.5;"/>
    <path clip-path="url(#pb2a53105a3)" d="M 293.76 692.2 
L 293.76 -1 
" style="fill:none;stroke:#d3d3d3;stroke-dasharray:7.5,7.5;stroke-dashoffset:0;stroke-width:1.5;"/>
    <path clip-path="url(#pb2a53105a3)" d="M 472.32 692.2 
L 472.32 -1 
" style="fill:none;stroke:#d3d3d3;stroke-dasharray:7.5,7.5;stroke-dashoffset:0;stroke-width:1.5;"/>
    <path clip-path="url(#pb2a53105a3)" d="M 650.88 692.2 
L 650.88 -1 
" style="fill:none;stroke:#d3d3d3;stroke-dasharray:7.5,7.5;stroke-dashoffset:0;stroke-width:1.5;"/>
    <path clip-path="url(#pb2a53105a3)" d="M 829.44 692.2 
L 829.44 -1 
" style="fill:none;stroke:#d3d3d3;stroke-dasharray:7.5,7.5;stroke-dashoffset:0;stroke-width:1.5;"/>
   </g>
   <g id="patch_3">
    <path clip-path="url(#pb2a53105a3)" d="M 115.2 615.168 
L 329.472 615.168 
L 329.472 378.0864 
L 115.2 378.0864 
z
" style="fill:#dda0dd;stroke:#dda0dd;stroke-linejoin:miter;"/>
   </g>
   <g id="line2d_1">
    <path clip-path="url(#pb2a53105a3)" d="M 740.16 107.136 
L 615.168 131.328 
" style="fill:none;stroke:#000000;stroke-linecap:square;stroke-width:1.5;"/>
   </g>
   <g id="line2d_2">
    <path clip-path="url(#pb2a53105a3)" d="M 615.168 131.328 
L 311.616 155.52 
" style="fill:none;stroke:#000000;stroke-linecap:square;stroke-width:1.5;"/>
   </g>
   <g id="line2d_3">
    <path clip-path="url(#pb2a53105a3)" d="M 311.616 155.52 
L 258.048 494.208 
" style="fill:none;stroke:#000000;stroke-linecap:square;stroke-width:1.5;"/>
   </g>
   <g id="line2d_4">
    <path clip-path="url(#pb2a53105a3)" d="M 311.616 155.52 
L 240.192 203.904 
" style="fill:none;stroke:#000000;stroke-linecap:square;stroke-width:1.5;"/>
   </g>
   <g id="line2d_5">
    <path clip-path="url(#pb2a53105a3)" d="M 311.616 155.52 
L 222.336 397.44 
" style="fill:none;stroke:#000000;stroke-linecap:square;stroke-width:1.5;"/>
   </g>
   <g id="line2d_6">
    <path clip-path="url(#pb2a53105a3)" d="M 240.192 203.904 
L 133.056 218.4192 
" style="fill:none;stroke:#000000;stroke-linecap:square;stroke-width:1.5;"/>
   </g>
   <g id="line2d_7">
    <path clip-path="url(#pb2a53105a3)" d="M 240.192 203.904 
L 133.056 300.672 
" style="fill:none;stroke:#000000;stroke-linecap:square;stroke-width:1.5;"/>
   </g>
   <g id="line2d_8">
    <path clip-path="url(#pb2a53105a3)" d="M 240.192 203.904 
L 222.336 252.288 
" style="fill:none;stroke:#000000;stroke-linecap:square;stroke-width:1.5;"/>
   </g>
   <g id="line2d_9">
    <path clip-path="url(#pb2a53105a3)" d="M 240.192 203.904 
L 418.752 213.5808 
" style="fill:none;stroke:#000000;stroke-linecap:square;stroke-width:1.5;"/>
   </g>
   <g id="line2d_10">
    <path clip-path="url(#pb2a53105a3)" d="M 133.056 218.4192 
L 204.48 503.8848 
" style="fill:none;stroke:#000000;stroke-linecap:square;stroke-width:1.5;"/>
   </g>
   <g id="line2d_11">
    <path clip-path="url(#pb2a53105a3)" d="M 133.056 300.672 
L 150.912 349.056 
" style="fill:none;stroke:#000000;stroke-linecap:square;stroke-width:1.5;"/>
   </g>
   <g id="line2d_12">
    <path clip-path="url(#pb2a53105a3)" d="M 150.912 349.056 
L 383.04 397.44 
" style="fill:none;stroke:#000000;stroke-linecap:square;stroke-width:1.5;"/>
   </g>
   <g id="line2d_13">
    <path clip-path="url(#pb2a53105a3)" d="M 383.04 397.44 
L 686.592 445.824 
" style="fill:none;stroke:#000000;stroke-linecap:square;stroke-width:1.5;"/>
   </g>
   <g id="line2d_14">
    <path clip-path="url(#pb2a53105a3)" d="M 383.04 397.44 
L 133.056 494.208 
" style="fill:none;stroke:#000000;stroke-linecap:square;stroke-width:1.5;"/>
   </g>
   <g id="line2d_15">
    <path clip-path="url(#pb2a53105a3)" d="M 222.336 397.44 
L 133.056 494.208 
" style="fill:none;stroke:#000000;stroke-linecap:square;stroke-width:1.5;"/>
   </g>
   <g id="line2d_16">
    <path clip-path="url(#pb2a53105a3)" d="M 222.336 397.44 
L 240.192 421.632 
" style="fill:none;stroke:#000000;stroke-linecap:square;stroke-width:1.5;"/>
   </g>
   <g id="line2d_17">
    <path clip-path="url(#pb2a53105a3)" d="M 133.056 494.208 
L 204.48 503.8848 
" style="fill:none;stroke:#000000;stroke-linecap:square;stroke-width:1.5;"/>
   </g>
   <g id="line2d_18">
    <path clip-path="url(#pb2a53105a3)" d="M 133.056 494.208 
L 186.624 590.976 
" style="fill:none;stroke:#000000;stroke-linecap:square;stroke-width:1.5;"/>
   </g>
   <g id="line2d_19">
    <path clip-path="url(#pb2a53105a3)" d="M 133.056 494.208 
L 150.912 542.592 
" style="fill:none;stroke:#000000;stroke-linecap:square;stroke-width:1.5;"/>
   </g>
   <g id="line2d_20">
    <path clip-path="url(#pb2a53105a3)" d="M 258.048 494.208 
L 240.192 542.592 
" style="fill:none;stroke:#000000;stroke-linecap:square;stroke-width:1.5;"/>
   </g>
   <g id="line2d_21">
    <path clip-path="url(#pb2a53105a3)" d="M 258.048 494.208 
L 150.912 542.592 
" style="fill:none;stroke:#000000;stroke-linecap:square;stroke-width:1.5;"/>
   </g>
   <g id="line2d_22">
    <path clip-path="url(#pb2a53105a3)" d="M 150.912 542.592 
L 186.624 590.976 
" style="fill:none;stroke:#000000;stroke-linecap:square;stroke-width:1.5;"/>
   </g>
   <g id="PathCollection_1">
    <defs>
     <path d="M 0 3 
C 0.795609 3 1.55874 2.683901 2.12132 2.12132 
C 2.683901 1.55874 3 0.795609 3 0 
C 3 -0.795609 2.683901 -1.55874 2.12132 -2.12132 
C 1.55874 -2.683901 0.795609 -3 0 -3 
C -0.795609 -3 -1.55874 -2.683901 -2.12132 -2.12132 
C -2.683901 -1.55874 -3 -0.795609 -3 0 
C -3 0.795609 -2.683901 1.55874 -2.12132 2.12132 
C -1.55874 2.683901 -0.795609 3 0 3 
z
" id="m2499992b97" style="stroke:#000000;"/>
    </defs>
    <g clip-path="url(#pb2a53105a3)">
     <use style="fill:#ffffff;stroke:#000000;" x="740.16" xlink:href="#m2499992b97" y="107.136"/>
     <use style="fill:#ffffff;stroke:#000000;" x="615.168" xlink:href="#m2499992b97" y="131.328"/>
     <use style="fill:#ffffff;stroke:#000000;" x="311.616" xlink:href="#m2499992b97" y="155.52"/>
     <use style="fill:#ffffff;stroke:#000000;" x="240.192" xlink:href="#m2499992b97" y="203.904"/>
     <use style="fill:#ffffff;stroke:#000000;" x="418.752" xlink:href="#m2499992b97" y="213.5808"/>
     <use style="fill:#ffffff;stroke:#000000;" x="133.056" xlink:href="#m2499992b97" y="218.4192"/>
     <use style="fill:#ffffff;stroke:#000000;" x="133.056" xlink:href="#m2499992b97" y="300.672"/>
     <use style="fill:#ffffff;stroke:#000000;" x="222.336" xlink:href="#m2499992b97" y="252.288"/>
     <use style="fill:#ffffff;stroke:#000000;" x="150.912" xlink:href="#m2499992b97" y="349.056"/>
     <use style="fill:#ffffff;stroke:#000000;" x="383.04" xlink:href="#m2499992b97" y="397.44"/>
     <use style="fill:#ffffff;stroke:#000000;" x="686.592" xlink:href="#m2499992b97" y="445.824"/>
     <use style="fill:#ffffff;stroke:#000000;" x="222.336" xlink:href="#m2499992b97" y="397.44"/>
     <use style="fill:#ffffff;stroke:#000000;" x="204.48" xlink:href="#m2499992b97" y="503.8848"/>
     <use style="fill:#ffffff;stroke:#000000;" x="240.192" xlink:href="#m2499992b97" y="421.632"/>
     <use style="fill:#ffffff;stroke:#000000;" x="133.056" xlink:href="#m2499992b97" y="494.208"/>
     <use style="fill:#ffffff;stroke:#000000;" x="258.048" xlink:href="#m2499992b97" y="494.208"/>
     <use style="fill:#ffffff;stroke:#000000;" x="240.192" xlink:href="#m2499992b97" y="542.592"/>
     <use style="fill:#ffffff;stroke:#000000;" x="150.912" xlink:href="#m2499992b97" y="542.592"/>
     <use style="fill:#ffffff;stroke:#000000;" x="186.624" xlink:href="#m2499992b97" y="590.976"/>
    </g>
   </g>
   <g id="matplotlib.axis_1">
    <g id="xtick_1">
     <g id="line2d_23">
      <defs>
       <path d="M 0 0 
L 0 3.5 
" id="mc4b1de37c7" style="stroke:#000000;stroke-width:0.8;"/>
      </defs>
      <g>
       <use style="stroke:#000000;stroke-width:0.8;" x="115.2" xlink:href="#mc4b1de37c7" y="615.168"/>
      </g>
     </g>
     <g id="text_1">
      <!-- Genesis -->
      <g transform="translate(115.2 629.766437)scale(0.1 -0.1)">
       <defs>
        <path d="M 3494 697 
L 3738 1919 
L 2700 1919 
L 2797 2438 
L 4453 2438 
L 4050 384 
Q 3634 156 3143 32 
Q 2653 -91 2156 -91 
Q 1278 -91 783 396 
Q 288 884 288 1753 
Q 288 2475 589 3126 
Q 891 3778 1422 4213 
Q 1756 4484 2153 4617 
Q 2550 4750 3034 4750 
Q 3472 4750 3873 4639 
Q 4275 4528 4641 4306 
L 4513 3634 
Q 4231 3928 3853 4083 
Q 3475 4238 3047 4238 
Q 2550 4238 2172 4048 
Q 1794 3859 1497 3463 
Q 1244 3125 1098 2667 
Q 953 2209 953 1734 
Q 953 1081 1287 751 
Q 1622 422 2284 422 
Q 2616 422 2925 492 
Q 3234 563 3494 697 
z
" id="DejaVuSans-Oblique-47" transform="scale(0.015625)"/>
        <path d="M 3078 2063 
Q 3088 2113 3092 2166 
Q 3097 2219 3097 2272 
Q 3097 2653 2873 2875 
Q 2650 3097 2266 3097 
Q 1838 3097 1509 2826 
Q 1181 2556 1013 2059 
L 3078 2063 
z
M 3578 1613 
L 903 1613 
Q 884 1494 878 1425 
Q 872 1356 872 1306 
Q 872 872 1139 634 
Q 1406 397 1894 397 
Q 2269 397 2603 481 
Q 2938 566 3225 728 
L 3116 159 
Q 2806 34 2476 -28 
Q 2147 -91 1806 -91 
Q 1078 -91 686 257 
Q 294 606 294 1247 
Q 294 1794 489 2264 
Q 684 2734 1063 3103 
Q 1306 3334 1642 3459 
Q 1978 3584 2356 3584 
Q 2950 3584 3301 3228 
Q 3653 2872 3653 2272 
Q 3653 2128 3634 1964 
Q 3616 1800 3578 1613 
z
" id="DejaVuSans-Oblique-65" transform="scale(0.015625)"/>
        <path d="M 3566 2113 
L 3156 0 
L 2578 0 
L 2988 2091 
Q 3016 2238 3031 2350 
Q 3047 2463 3047 2528 
Q 3047 2791 2881 2937 
Q 2716 3084 2419 3084 
Q 1956 3084 1622 2776 
Q 1288 2469 1184 1941 
L 800 0 
L 225 0 
L 903 3500 
L 1478 3500 
L 1363 2950 
Q 1603 3253 1940 3418 
Q 2278 3584 2650 3584 
Q 3113 3584 3367 3334 
Q 3622 3084 3622 2631 
Q 3622 2519 3608 2391 
Q 3594 2263 3566 2113 
z
" id="DejaVuSans-Oblique-6e" transform="scale(0.015625)"/>
        <path d="M 3200 3397 
L 3091 2853 
Q 2863 2978 2609 3040 
Q 2356 3103 2088 3103 
Q 1634 3103 1373 2948 
Q 1113 2794 1113 2528 
Q 1113 2219 1719 2053 
Q 1766 2041 1788 2034 
L 1972 1978 
Q 2547 1819 2739 1644 
Q 2931 1469 2931 1166 
Q 2931 609 2489 259 
Q 2047 -91 1331 -91 
Q 1053 -91 747 -37 
Q 441 16 72 128 
L 184 722 
Q 500 559 806 475 
Q 1113 391 1394 391 
Q 1816 391 2080 572 
Q 2344 753 2344 1031 
Q 2344 1331 1650 1516 
L 1591 1531 
L 1394 1581 
Q 956 1697 753 1886 
Q 550 2075 550 2369 
Q 550 2928 970 3256 
Q 1391 3584 2113 3584 
Q 2397 3584 2667 3537 
Q 2938 3491 3200 3397 
z
" id="DejaVuSans-Oblique-73" transform="scale(0.015625)"/>
        <path d="M 1172 4863 
L 1747 4863 
L 1606 4134 
L 1031 4134 
L 1172 4863 
z
M 909 3500 
L 1484 3500 
L 800 0 
L 225 0 
L 909 3500 
z
" id="DejaVuSans-Oblique-69" transform="scale(0.015625)"/>
       </defs>
       <use xlink:href="#DejaVuSans-Oblique-47"/>
       <use x="77.490234" xlink:href="#DejaVuSans-Oblique-65"/>
       <use x="139.013672" xlink:href="#DejaVuSans-Oblique-6e"/>
       <use x="202.392578" xlink:href="#DejaVuSans-Oblique-65"/>
       <use x="263.916016" xlink:href="#DejaVuSans-Oblique-73"/>
       <use x="316.015625" xlink:href="#DejaVuSans-Oblique-69"/>
       <use x="343.798828" xlink:href="#DejaVuSans-Oblique-73"/>
      </g>
     </g>
    </g>
    <g id="xtick_2">
     <g id="line2d_24">
      <g>
       <use style="stroke:#000000;stroke-width:0.8;" x="293.76" xlink:href="#mc4b1de37c7" y="615.168"/>
      </g>
     </g>
     <g id="text_2">
      <!-- Custom Built -->
      <g transform="translate(293.76 629.766437)scale(0.1 -0.1)">
       <defs>
        <path d="M 4447 4306 
L 4319 3641 
Q 4019 3944 3683 4091 
Q 3347 4238 2956 4238 
Q 2422 4238 2017 3981 
Q 1613 3725 1319 3200 
Q 1131 2863 1032 2486 
Q 934 2109 934 1728 
Q 934 1091 1264 756 
Q 1594 422 2222 422 
Q 2656 422 3056 561 
Q 3456 700 3834 978 
L 3688 231 
Q 3316 72 2936 -9 
Q 2556 -91 2175 -91 
Q 1278 -91 773 396 
Q 269 884 269 1753 
Q 269 2309 461 2846 
Q 653 3384 1013 3828 
Q 1394 4300 1883 4525 
Q 2372 4750 3022 4750 
Q 3422 4750 3780 4639 
Q 4138 4528 4447 4306 
z
" id="DejaVuSans-Oblique-43" transform="scale(0.015625)"/>
        <path d="M 428 1388 
L 838 3500 
L 1416 3500 
L 1006 1409 
Q 975 1256 961 1147 
Q 947 1038 947 966 
Q 947 700 1109 554 
Q 1272 409 1569 409 
Q 2031 409 2368 721 
Q 2706 1034 2809 1563 
L 3194 3500 
L 3769 3500 
L 3091 0 
L 2516 0 
L 2631 550 
Q 2388 244 2052 76 
Q 1716 -91 1338 -91 
Q 878 -91 622 161 
Q 366 413 366 863 
Q 366 956 381 1097 
Q 397 1238 428 1388 
z
" id="DejaVuSans-Oblique-75" transform="scale(0.015625)"/>
        <path d="M 2706 3500 
L 2619 3053 
L 1472 3053 
L 1100 1153 
Q 1081 1047 1072 975 
Q 1063 903 1063 863 
Q 1063 663 1183 572 
Q 1303 481 1569 481 
L 2150 481 
L 2053 0 
L 1503 0 
Q 991 0 739 200 
Q 488 400 488 806 
Q 488 878 497 964 
Q 506 1050 525 1153 
L 897 3053 
L 409 3053 
L 500 3500 
L 978 3500 
L 1172 4494 
L 1747 4494 
L 1556 3500 
L 2706 3500 
z
" id="DejaVuSans-Oblique-74" transform="scale(0.015625)"/>
        <path d="M 1625 -91 
Q 1009 -91 651 289 
Q 294 669 294 1325 
Q 294 1706 417 2101 
Q 541 2497 738 2766 
Q 1047 3184 1428 3384 
Q 1809 3584 2291 3584 
Q 2888 3584 3255 3212 
Q 3622 2841 3622 2241 
Q 3622 1825 3500 1412 
Q 3378 1000 3181 728 
Q 2875 309 2494 109 
Q 2113 -91 1625 -91 
z
M 891 1344 
Q 891 869 1089 633 
Q 1288 397 1691 397 
Q 2269 397 2648 901 
Q 3028 1406 3028 2181 
Q 3028 2634 2825 2865 
Q 2622 3097 2228 3097 
Q 1903 3097 1650 2945 
Q 1397 2794 1197 2484 
Q 1050 2253 970 1956 
Q 891 1659 891 1344 
z
" id="DejaVuSans-Oblique-6f" transform="scale(0.015625)"/>
        <path d="M 5747 2113 
L 5338 0 
L 4763 0 
L 5166 2094 
Q 5191 2228 5203 2325 
Q 5216 2422 5216 2491 
Q 5216 2772 5059 2928 
Q 4903 3084 4622 3084 
Q 4203 3084 3875 2770 
Q 3547 2456 3450 1953 
L 3066 0 
L 2491 0 
L 2900 2094 
Q 2925 2209 2937 2307 
Q 2950 2406 2950 2484 
Q 2950 2769 2794 2926 
Q 2638 3084 2363 3084 
Q 1938 3084 1609 2770 
Q 1281 2456 1184 1953 
L 800 0 
L 225 0 
L 909 3500 
L 1484 3500 
L 1375 2956 
Q 1609 3263 1923 3423 
Q 2238 3584 2597 3584 
Q 2978 3584 3223 3384 
Q 3469 3184 3519 2828 
Q 3781 3197 4126 3390 
Q 4472 3584 4856 3584 
Q 5306 3584 5551 3325 
Q 5797 3066 5797 2591 
Q 5797 2488 5784 2364 
Q 5772 2241 5747 2113 
z
" id="DejaVuSans-Oblique-6d" transform="scale(0.015625)"/>
        <path id="DejaVuSans-Oblique-20" transform="scale(0.015625)"/>
        <path d="M 1081 4666 
L 2694 4666 
Q 3350 4666 3675 4422 
Q 4000 4178 4000 3688 
Q 4000 3238 3720 2911 
Q 3441 2584 2988 2516 
Q 3375 2428 3569 2181 
Q 3763 1934 3763 1522 
Q 3763 819 3242 409 
Q 2722 0 1819 0 
L 172 0 
L 1081 4666 
z
M 1234 2228 
L 903 519 
L 1919 519 
Q 2491 519 2800 781 
Q 3109 1044 3109 1522 
Q 3109 1891 2904 2059 
Q 2700 2228 2247 2228 
L 1234 2228 
z
M 1606 4147 
L 1331 2741 
L 2272 2741 
Q 2775 2741 3058 2959 
Q 3341 3178 3341 3566 
Q 3341 3869 3150 4008 
Q 2959 4147 2541 4147 
L 1606 4147 
z
" id="DejaVuSans-Oblique-42" transform="scale(0.015625)"/>
        <path d="M 1172 4863 
L 1747 4863 
L 800 0 
L 225 0 
L 1172 4863 
z
" id="DejaVuSans-Oblique-6c" transform="scale(0.015625)"/>
       </defs>
       <use xlink:href="#DejaVuSans-Oblique-43"/>
       <use x="69.824219" xlink:href="#DejaVuSans-Oblique-75"/>
       <use x="133.203125" xlink:href="#DejaVuSans-Oblique-73"/>
       <use x="185.302734" xlink:href="#DejaVuSans-Oblique-74"/>
       <use x="224.511719" xlink:href="#DejaVuSans-Oblique-6f"/>
       <use x="285.693359" xlink:href="#DejaVuSans-Oblique-6d"/>
       <use x="383.105469" xlink:href="#DejaVuSans-Oblique-20"/>
       <use x="414.892578" xlink:href="#DejaVuSans-Oblique-42"/>
       <use x="483.496094" xlink:href="#DejaVuSans-Oblique-75"/>
       <use x="546.875" xlink:href="#DejaVuSans-Oblique-69"/>
       <use x="574.658203" xlink:href="#DejaVuSans-Oblique-6c"/>
       <use x="602.441406" xlink:href="#DejaVuSans-Oblique-74"/>
      </g>
     </g>
    </g>
    <g id="xtick_3">
     <g id="line2d_25">
      <g>
       <use style="stroke:#000000;stroke-width:0.8;" x="472.32" xlink:href="#mc4b1de37c7" y="615.168"/>
      </g>
     </g>
     <g id="text_3">
      <!-- Product (+ rental) -->
      <g transform="translate(472.32 629.766437)scale(0.1 -0.1)">
       <defs>
        <path d="M 1081 4666 
L 2541 4666 
Q 3178 4666 3512 4369 
Q 3847 4072 3847 3500 
Q 3847 2731 3353 2303 
Q 2859 1875 1966 1875 
L 1172 1875 
L 806 0 
L 172 0 
L 1081 4666 
z
M 1613 4147 
L 1275 2394 
L 2069 2394 
Q 2606 2394 2893 2669 
Q 3181 2944 3181 3456 
Q 3181 3784 2986 3965 
Q 2791 4147 2438 4147 
L 1613 4147 
z
" id="DejaVuSans-Oblique-50" transform="scale(0.015625)"/>
        <path d="M 2853 2969 
Q 2766 3016 2653 3041 
Q 2541 3066 2413 3066 
Q 1953 3066 1609 2717 
Q 1266 2369 1153 1784 
L 800 0 
L 225 0 
L 909 3500 
L 1484 3500 
L 1375 2956 
Q 1603 3259 1920 3421 
Q 2238 3584 2597 3584 
Q 2691 3584 2781 3573 
Q 2872 3563 2963 3538 
L 2853 2969 
z
" id="DejaVuSans-Oblique-72" transform="scale(0.015625)"/>
        <path d="M 2675 525 
Q 2444 222 2128 65 
Q 1813 -91 1428 -91 
Q 903 -91 598 267 
Q 294 625 294 1247 
Q 294 1766 478 2236 
Q 663 2706 1013 3078 
Q 1244 3325 1534 3454 
Q 1825 3584 2144 3584 
Q 2481 3584 2739 3421 
Q 2997 3259 3138 2956 
L 3513 4863 
L 4091 4863 
L 3144 0 
L 2566 0 
L 2675 525 
z
M 891 1350 
Q 891 897 1095 644 
Q 1300 391 1663 391 
Q 1931 391 2161 520 
Q 2391 650 2566 903 
Q 2750 1166 2856 1509 
Q 2963 1853 2963 2188 
Q 2963 2622 2758 2865 
Q 2553 3109 2194 3109 
Q 1922 3109 1687 2981 
Q 1453 2853 1288 2613 
Q 1106 2353 998 2009 
Q 891 1666 891 1350 
z
" id="DejaVuSans-Oblique-64" transform="scale(0.015625)"/>
        <path d="M 3431 3366 
L 3316 2797 
Q 3109 2947 2876 3022 
Q 2644 3097 2394 3097 
Q 2119 3097 1870 3000 
Q 1622 2903 1453 2725 
Q 1184 2453 1037 2087 
Q 891 1722 891 1331 
Q 891 859 1127 628 
Q 1363 397 1844 397 
Q 2081 397 2348 469 
Q 2616 541 2906 684 
L 2797 116 
Q 2547 13 2283 -39 
Q 2019 -91 1741 -91 
Q 1044 -91 669 257 
Q 294 606 294 1253 
Q 294 1797 489 2255 
Q 684 2713 1069 3078 
Q 1331 3328 1684 3456 
Q 2038 3584 2456 3584 
Q 2700 3584 2940 3529 
Q 3181 3475 3431 3366 
z
" id="DejaVuSans-Oblique-63" transform="scale(0.015625)"/>
        <path d="M 2731 4856 
Q 1903 3822 1495 2892 
Q 1088 1963 1088 1100 
Q 1088 606 1206 120 
Q 1325 -366 1563 -844 
L 1063 -844 
Q 775 -306 634 201 
Q 494 709 494 1197 
Q 494 2125 923 3036 
Q 1353 3947 2222 4856 
L 2731 4856 
z
" id="DejaVuSans-Oblique-28" transform="scale(0.015625)"/>
        <path d="M 2944 4013 
L 2944 2272 
L 4684 2272 
L 4684 1741 
L 2944 1741 
L 2944 0 
L 2419 0 
L 2419 1741 
L 678 1741 
L 678 2272 
L 2419 2272 
L 2419 4013 
L 2944 4013 
z
" id="DejaVuSans-Oblique-2b" transform="scale(0.015625)"/>
        <path d="M 3438 1997 
L 3047 0 
L 2472 0 
L 2578 531 
Q 2325 219 2001 64 
Q 1678 -91 1281 -91 
Q 834 -91 548 182 
Q 263 456 263 884 
Q 263 1497 752 1853 
Q 1241 2209 2100 2209 
L 2900 2209 
L 2931 2363 
Q 2938 2388 2941 2417 
Q 2944 2447 2944 2509 
Q 2944 2788 2717 2942 
Q 2491 3097 2081 3097 
Q 1800 3097 1504 3025 
Q 1209 2953 897 2809 
L 997 3341 
Q 1322 3463 1633 3523 
Q 1944 3584 2234 3584 
Q 2853 3584 3176 3315 
Q 3500 3047 3500 2534 
Q 3500 2431 3484 2292 
Q 3469 2153 3438 1997 
z
M 2816 1759 
L 2241 1759 
Q 1534 1759 1195 1570 
Q 856 1381 856 984 
Q 856 709 1029 553 
Q 1203 397 1509 397 
Q 1978 397 2328 733 
Q 2678 1069 2791 1631 
L 2816 1759 
z
" id="DejaVuSans-Oblique-61" transform="scale(0.015625)"/>
        <path d="M -397 -844 
Q 434 191 840 1120 
Q 1247 2050 1247 2913 
Q 1247 3406 1130 3892 
Q 1013 4378 775 4856 
L 1275 4856 
Q 1563 4316 1703 3812 
Q 1844 3309 1844 2822 
Q 1844 1891 1411 973 
Q 978 56 116 -844 
L -397 -844 
z
" id="DejaVuSans-Oblique-29" transform="scale(0.015625)"/>
       </defs>
       <use xlink:href="#DejaVuSans-Oblique-50"/>
       <use x="60.302734" xlink:href="#DejaVuSans-Oblique-72"/>
       <use x="101.416016" xlink:href="#DejaVuSans-Oblique-6f"/>
       <use x="162.597656" xlink:href="#DejaVuSans-Oblique-64"/>
       <use x="226.074219" xlink:href="#DejaVuSans-Oblique-75"/>
       <use x="289.453125" xlink:href="#DejaVuSans-Oblique-63"/>
       <use x="344.433594" xlink:href="#DejaVuSans-Oblique-74"/>
       <use x="383.642578" xlink:href="#DejaVuSans-Oblique-20"/>
       <use x="415.429688" xlink:href="#DejaVuSans-Oblique-28"/>
       <use x="454.443359" xlink:href="#DejaVuSans-Oblique-2b"/>
       <use x="538.232422" xlink:href="#DejaVuSans-Oblique-20"/>
       <use x="570.019531" xlink:href="#DejaVuSans-Oblique-72"/>
       <use x="611.132812" xlink:href="#DejaVuSans-Oblique-65"/>
       <use x="672.65625" xlink:href="#DejaVuSans-Oblique-6e"/>
       <use x="736.035156" xlink:href="#DejaVuSans-Oblique-74"/>
       <use x="775.244141" xlink:href="#DejaVuSans-Oblique-61"/>
       <use x="836.523438" xlink:href="#DejaVuSans-Oblique-6c"/>
       <use x="864.306641" xlink:href="#DejaVuSans-Oblique-29"/>
      </g>
     </g>
    </g>
    <g id="xtick_4">
     <g id="line2d_26">
      <g>
       <use style="stroke:#000000;stroke-width:0.8;" x="650.88" xlink:href="#mc4b1de37c7" y="615.168"/>
      </g>
     </g>
     <g id="text_4">
      <!-- Commodity (+ utility) -->
      <g transform="translate(650.88 629.766437)scale(0.1 -0.1)">
       <defs>
        <path d="M 1588 -325 
Q 1188 -997 936 -1164 
Q 684 -1331 294 -1331 
L -159 -1331 
L -63 -850 
L 269 -850 
Q 509 -850 678 -719 
Q 847 -588 1056 -206 
L 1234 128 
L 459 3500 
L 1069 3500 
L 1650 819 
L 3256 3500 
L 3859 3500 
L 1588 -325 
z
" id="DejaVuSans-Oblique-79" transform="scale(0.015625)"/>
       </defs>
       <use xlink:href="#DejaVuSans-Oblique-43"/>
       <use x="69.824219" xlink:href="#DejaVuSans-Oblique-6f"/>
       <use x="131.005859" xlink:href="#DejaVuSans-Oblique-6d"/>
       <use x="228.417969" xlink:href="#DejaVuSans-Oblique-6d"/>
       <use x="325.830078" xlink:href="#DejaVuSans-Oblique-6f"/>
       <use x="387.011719" xlink:href="#DejaVuSans-Oblique-64"/>
       <use x="450.488281" xlink:href="#DejaVuSans-Oblique-69"/>
       <use x="478.271484" xlink:href="#DejaVuSans-Oblique-74"/>
       <use x="517.480469" xlink:href="#DejaVuSans-Oblique-79"/>
       <use x="576.660156" xlink:href="#DejaVuSans-Oblique-20"/>
       <use x="608.447266" xlink:href="#DejaVuSans-Oblique-28"/>
       <use x="647.460938" xlink:href="#DejaVuSans-Oblique-2b"/>
       <use x="731.25" xlink:href="#DejaVuSans-Oblique-20"/>
       <use x="763.037109" xlink:href="#DejaVuSans-Oblique-75"/>
       <use x="826.416016" xlink:href="#DejaVuSans-Oblique-74"/>
       <use x="865.625" xlink:href="#DejaVuSans-Oblique-69"/>
       <use x="893.408203" xlink:href="#DejaVuSans-Oblique-6c"/>
       <use x="921.191406" xlink:href="#DejaVuSans-Oblique-69"/>
       <use x="948.974609" xlink:href="#DejaVuSans-Oblique-74"/>
       <use x="988.183594" xlink:href="#DejaVuSans-Oblique-79"/>
       <use x="1047.363281" xlink:href="#DejaVuSans-Oblique-29"/>
      </g>
     </g>
    </g>
    <g id="text_5">
     <!-- Evolution -->
     <g transform="translate(445.837969 643.444562)scale(0.1 -0.1)">
      <defs>
       <path d="M 588 4666 
L 3834 4666 
L 3834 3756 
L 1791 3756 
L 1791 2888 
L 3713 2888 
L 3713 1978 
L 1791 1978 
L 1791 909 
L 3903 909 
L 3903 0 
L 588 0 
L 588 4666 
z
" id="DejaVuSans-Bold-45" transform="scale(0.015625)"/>
       <path d="M 97 3500 
L 1216 3500 
L 2088 1081 
L 2956 3500 
L 4078 3500 
L 2700 0 
L 1472 0 
L 97 3500 
z
" id="DejaVuSans-Bold-76" transform="scale(0.015625)"/>
       <path d="M 2203 2784 
Q 1831 2784 1636 2517 
Q 1441 2250 1441 1747 
Q 1441 1244 1636 976 
Q 1831 709 2203 709 
Q 2569 709 2762 976 
Q 2956 1244 2956 1747 
Q 2956 2250 2762 2517 
Q 2569 2784 2203 2784 
z
M 2203 3584 
Q 3106 3584 3614 3096 
Q 4122 2609 4122 1747 
Q 4122 884 3614 396 
Q 3106 -91 2203 -91 
Q 1297 -91 786 396 
Q 275 884 275 1747 
Q 275 2609 786 3096 
Q 1297 3584 2203 3584 
z
" id="DejaVuSans-Bold-6f" transform="scale(0.015625)"/>
       <path d="M 538 4863 
L 1656 4863 
L 1656 0 
L 538 0 
L 538 4863 
z
" id="DejaVuSans-Bold-6c" transform="scale(0.015625)"/>
       <path d="M 500 1363 
L 500 3500 
L 1625 3500 
L 1625 3150 
Q 1625 2866 1622 2436 
Q 1619 2006 1619 1863 
Q 1619 1441 1641 1255 
Q 1663 1069 1716 984 
Q 1784 875 1895 815 
Q 2006 756 2150 756 
Q 2500 756 2700 1025 
Q 2900 1294 2900 1772 
L 2900 3500 
L 4019 3500 
L 4019 0 
L 2900 0 
L 2900 506 
Q 2647 200 2364 54 
Q 2081 -91 1741 -91 
Q 1134 -91 817 281 
Q 500 653 500 1363 
z
" id="DejaVuSans-Bold-75" transform="scale(0.015625)"/>
       <path d="M 1759 4494 
L 1759 3500 
L 2913 3500 
L 2913 2700 
L 1759 2700 
L 1759 1216 
Q 1759 972 1856 886 
Q 1953 800 2241 800 
L 2816 800 
L 2816 0 
L 1856 0 
Q 1194 0 917 276 
Q 641 553 641 1216 
L 641 2700 
L 84 2700 
L 84 3500 
L 641 3500 
L 641 4494 
L 1759 4494 
z
" id="DejaVuSans-Bold-74" transform="scale(0.015625)"/>
       <path d="M 538 3500 
L 1656 3500 
L 1656 0 
L 538 0 
L 538 3500 
z
M 538 4863 
L 1656 4863 
L 1656 3950 
L 538 3950 
L 538 4863 
z
" id="DejaVuSans-Bold-69" transform="scale(0.015625)"/>
       <path d="M 4056 2131 
L 4056 0 
L 2931 0 
L 2931 347 
L 2931 1631 
Q 2931 2084 2911 2256 
Q 2891 2428 2841 2509 
Q 2775 2619 2662 2680 
Q 2550 2741 2406 2741 
Q 2056 2741 1856 2470 
Q 1656 2200 1656 1722 
L 1656 0 
L 538 0 
L 538 3500 
L 1656 3500 
L 1656 2988 
Q 1909 3294 2193 3439 
Q 2478 3584 2822 3584 
Q 3428 3584 3742 3212 
Q 4056 2841 4056 2131 
z
" id="DejaVuSans-Bold-6e" transform="scale(0.015625)"/>
      </defs>
      <use xlink:href="#DejaVuSans-Bold-45"/>
      <use x="68.310547" xlink:href="#DejaVuSans-Bold-76"/>
      <use x="133.496094" xlink:href="#DejaVuSans-Bold-6f"/>
      <use x="202.197266" xlink:href="#DejaVuSans-Bold-6c"/>
      <use x="236.474609" xlink:href="#DejaVuSans-Bold-75"/>
      <use x="307.666016" xlink:href="#DejaVuSans-Bold-74"/>
      <use x="355.46875" xlink:href="#DejaVuSans-Bold-69"/>
      <use x="389.746094" xlink:href="#DejaVuSans-Bold-6f"/>
      <use x="458.447266" xlink:href="#DejaVuSans-Bold-6e"/>
     </g>
    </g>
   </g>
   <g id="matplotlib.axis_2">
    <g id="ytick_1">
     <g id="line2d_27">
      <defs>
       <path d="M 0 0 
L -3.5 0 
" id="m09e0688d10" style="stroke:#000000;stroke-width:0.8;"/>
      </defs>
      <g>
       <use style="stroke:#000000;stroke-width:0.8;" x="115.2" xlink:href="#m09e0688d10" y="615.168"/>
      </g>
     </g>
     <g id="text_6">
      <!-- Invisible -->
      <g transform="translate(106.120312 615.168)rotate(-90)scale(0.1 -0.1)">
       <defs>
        <path d="M 1081 4666 
L 1716 4666 
L 806 0 
L 172 0 
L 1081 4666 
z
" id="DejaVuSans-Oblique-49" transform="scale(0.015625)"/>
        <path d="M 459 3500 
L 1069 3500 
L 1581 525 
L 3256 3500 
L 3866 3500 
L 1875 0 
L 1100 0 
L 459 3500 
z
" id="DejaVuSans-Oblique-76" transform="scale(0.015625)"/>
        <path d="M 3169 2138 
Q 3169 2591 2961 2847 
Q 2753 3103 2388 3103 
Q 2122 3103 1889 2973 
Q 1656 2844 1484 2597 
Q 1303 2338 1198 1995 
Q 1094 1653 1094 1313 
Q 1094 881 1298 636 
Q 1503 391 1863 391 
Q 2134 391 2365 517 
Q 2597 644 2772 891 
Q 2950 1147 3059 1487 
Q 3169 1828 3169 2138 
z
M 1381 2969 
Q 1594 3256 1914 3420 
Q 2234 3584 2584 3584 
Q 3122 3584 3439 3221 
Q 3756 2859 3756 2241 
Q 3756 1734 3570 1259 
Q 3384 784 3041 416 
Q 2816 172 2522 40 
Q 2228 -91 1906 -91 
Q 1566 -91 1316 65 
Q 1066 222 909 531 
L 806 0 
L 231 0 
L 1178 4863 
L 1753 4863 
L 1381 2969 
z
" id="DejaVuSans-Oblique-62" transform="scale(0.015625)"/>
       </defs>
       <use xlink:href="#DejaVuSans-Oblique-49"/>
       <use x="29.492188" xlink:href="#DejaVuSans-Oblique-6e"/>
       <use x="92.871094" xlink:href="#DejaVuSans-Oblique-76"/>
       <use x="152.050781" xlink:href="#DejaVuSans-Oblique-69"/>
       <use x="179.833984" xlink:href="#DejaVuSans-Oblique-73"/>
       <use x="231.933594" xlink:href="#DejaVuSans-Oblique-69"/>
       <use x="259.716797" xlink:href="#DejaVuSans-Oblique-62"/>
       <use x="323.193359" xlink:href="#DejaVuSans-Oblique-6c"/>
       <use x="350.976562" xlink:href="#DejaVuSans-Oblique-65"/>
      </g>
     </g>
    </g>
    <g id="ytick_2">
     <g id="line2d_28">
      <g>
       <use style="stroke:#000000;stroke-width:0.8;" x="115.2" xlink:href="#m09e0688d10" y="131.328"/>
      </g>
     </g>
     <g id="text_7">
      <!-- Visible -->
      <g transform="translate(106.120312 131.328)rotate(-90)scale(0.1 -0.1)">
       <defs>
        <path d="M 1319 0 
L 500 4666 
L 1119 4666 
L 1797 653 
L 4063 4666 
L 4750 4666 
L 2053 0 
L 1319 0 
z
" id="DejaVuSans-Oblique-56" transform="scale(0.015625)"/>
       </defs>
       <use xlink:href="#DejaVuSans-Oblique-56"/>
       <use x="68.408203" xlink:href="#DejaVuSans-Oblique-69"/>
       <use x="96.191406" xlink:href="#DejaVuSans-Oblique-73"/>
       <use x="148.291016" xlink:href="#DejaVuSans-Oblique-69"/>
       <use x="176.074219" xlink:href="#DejaVuSans-Oblique-62"/>
       <use x="239.550781" xlink:href="#DejaVuSans-Oblique-6c"/>
       <use x="267.333984" xlink:href="#DejaVuSans-Oblique-65"/>
      </g>
     </g>
    </g>
    <g id="text_8">
     <!-- Value Chain -->
     <g transform="translate(92.442187 382.306781)rotate(-90)scale(0.1 -0.1)">
      <defs>
       <path d="M 31 4666 
L 1241 4666 
L 2478 1222 
L 3713 4666 
L 4922 4666 
L 3194 0 
L 1759 0 
L 31 4666 
z
" id="DejaVuSans-Bold-56" transform="scale(0.015625)"/>
       <path d="M 2106 1575 
Q 1756 1575 1579 1456 
Q 1403 1338 1403 1106 
Q 1403 894 1545 773 
Q 1688 653 1941 653 
Q 2256 653 2472 879 
Q 2688 1106 2688 1447 
L 2688 1575 
L 2106 1575 
z
M 3816 1997 
L 3816 0 
L 2688 0 
L 2688 519 
Q 2463 200 2181 54 
Q 1900 -91 1497 -91 
Q 953 -91 614 226 
Q 275 544 275 1050 
Q 275 1666 698 1953 
Q 1122 2241 2028 2241 
L 2688 2241 
L 2688 2328 
Q 2688 2594 2478 2717 
Q 2269 2841 1825 2841 
Q 1466 2841 1156 2769 
Q 847 2697 581 2553 
L 581 3406 
Q 941 3494 1303 3539 
Q 1666 3584 2028 3584 
Q 2975 3584 3395 3211 
Q 3816 2838 3816 1997 
z
" id="DejaVuSans-Bold-61" transform="scale(0.015625)"/>
       <path d="M 4031 1759 
L 4031 1441 
L 1416 1441 
Q 1456 1047 1700 850 
Q 1944 653 2381 653 
Q 2734 653 3104 758 
Q 3475 863 3866 1075 
L 3866 213 
Q 3469 63 3072 -14 
Q 2675 -91 2278 -91 
Q 1328 -91 801 392 
Q 275 875 275 1747 
Q 275 2603 792 3093 
Q 1309 3584 2216 3584 
Q 3041 3584 3536 3087 
Q 4031 2591 4031 1759 
z
M 2881 2131 
Q 2881 2450 2695 2645 
Q 2509 2841 2209 2841 
Q 1884 2841 1681 2658 
Q 1478 2475 1428 2131 
L 2881 2131 
z
" id="DejaVuSans-Bold-65" transform="scale(0.015625)"/>
       <path id="DejaVuSans-Bold-20" transform="scale(0.015625)"/>
       <path d="M 4288 256 
Q 3956 84 3597 -3 
Q 3238 -91 2847 -91 
Q 1681 -91 1000 561 
Q 319 1213 319 2328 
Q 319 3447 1000 4098 
Q 1681 4750 2847 4750 
Q 3238 4750 3597 4662 
Q 3956 4575 4288 4403 
L 4288 3438 
Q 3953 3666 3628 3772 
Q 3303 3878 2944 3878 
Q 2300 3878 1931 3465 
Q 1563 3053 1563 2328 
Q 1563 1606 1931 1193 
Q 2300 781 2944 781 
Q 3303 781 3628 887 
Q 3953 994 4288 1222 
L 4288 256 
z
" id="DejaVuSans-Bold-43" transform="scale(0.015625)"/>
       <path d="M 4056 2131 
L 4056 0 
L 2931 0 
L 2931 347 
L 2931 1625 
Q 2931 2084 2911 2256 
Q 2891 2428 2841 2509 
Q 2775 2619 2662 2680 
Q 2550 2741 2406 2741 
Q 2056 2741 1856 2470 
Q 1656 2200 1656 1722 
L 1656 0 
L 538 0 
L 538 4863 
L 1656 4863 
L 1656 2988 
Q 1909 3294 2193 3439 
Q 2478 3584 2822 3584 
Q 3428 3584 3742 3212 
Q 4056 2841 4056 2131 
z
" id="DejaVuSans-Bold-68" transform="scale(0.015625)"/>
      </defs>
      <use xlink:href="#DejaVuSans-Bold-56"/>
      <use x="71.892578" xlink:href="#DejaVuSans-Bold-61"/>
      <use x="139.373047" xlink:href="#DejaVuSans-Bold-6c"/>
      <use x="173.650391" xlink:href="#DejaVuSans-Bold-75"/>
      <use x="244.841797" xlink:href="#DejaVuSans-Bold-65"/>
      <use x="312.664062" xlink:href="#DejaVuSans-Bold-20"/>
      <use x="347.478516" xlink:href="#DejaVuSans-Bold-43"/>
      <use x="420.867188" xlink:href="#DejaVuSans-Bold-68"/>
      <use x="492.058594" xlink:href="#DejaVuSans-Bold-61"/>
      <use x="559.539062" xlink:href="#DejaVuSans-Bold-69"/>
      <use x="593.816406" xlink:href="#DejaVuSans-Bold-6e"/>
     </g>
    </g>
   </g>
   <g id="line2d_29">
    <defs>
     <path d="M 3 0 
L -3 -3 
L -3 3 
z
" id="m4747228147" style="stroke:#000000;stroke-linejoin:miter;"/>
    </defs>
    <g>
     <use style="stroke:#000000;stroke-linejoin:miter;" x="829.44" xlink:href="#m4747228147" y="615.168"/>
    </g>
   </g>
   <g id="line2d_30">
    <defs>
     <path d="M 0 -3 
L -3 3 
L 3 3 
z
" id="m72842f777c" style="stroke:#000000;stroke-linejoin:miter;"/>
    </defs>
    <g>
     <use style="stroke:#000000;stroke-linejoin:miter;" x="115.2" xlink:href="#m72842f777c" y="82.944"/>
    </g>
   </g>
   <g id="patch_4">
    <path d="M 115.2 615.168 
L 115.2 82.944 
" style="fill:none;stroke:#000000;stroke-linecap:square;stroke-linejoin:miter;stroke-width:0.8;"/>
   </g>
   <g id="patch_5">
    <path d="M 115.2 615.168 
L 829.44 615.168 
" style="fill:none;stroke:#000000;stroke-linecap:square;stroke-linejoin:miter;stroke-width:0.8;"/>
   </g>
   <g id="text_9">
    <!-- Power Grid -->
    <g transform="translate(740.16 121.092525)scale(0.12 -0.12)">
     <defs>
      <path d="M 1259 4147 
L 1259 2394 
L 2053 2394 
Q 2494 2394 2734 2622 
Q 2975 2850 2975 3272 
Q 2975 3691 2734 3919 
Q 2494 4147 2053 4147 
L 1259 4147 
z
M 628 4666 
L 2053 4666 
Q 2838 4666 3239 4311 
Q 3641 3956 3641 3272 
Q 3641 2581 3239 2228 
Q 2838 1875 2053 1875 
L 1259 1875 
L 1259 0 
L 628 0 
L 628 4666 
z
" id="DejaVuSans-50" transform="scale(0.015625)"/>
      <path d="M 1959 3097 
Q 1497 3097 1228 2736 
Q 959 2375 959 1747 
Q 959 1119 1226 758 
Q 1494 397 1959 397 
Q 2419 397 2687 759 
Q 2956 1122 2956 1747 
Q 2956 2369 2687 2733 
Q 2419 3097 1959 3097 
z
M 1959 3584 
Q 2709 3584 3137 3096 
Q 3566 2609 3566 1747 
Q 3566 888 3137 398 
Q 2709 -91 1959 -91 
Q 1206 -91 779 398 
Q 353 888 353 1747 
Q 353 2609 779 3096 
Q 1206 3584 1959 3584 
z
" id="DejaVuSans-6f" transform="scale(0.015625)"/>
      <path d="M 269 3500 
L 844 3500 
L 1563 769 
L 2278 3500 
L 2956 3500 
L 3675 769 
L 4391 3500 
L 4966 3500 
L 4050 0 
L 3372 0 
L 2619 2869 
L 1863 0 
L 1184 0 
L 269 3500 
z
" id="DejaVuSans-77" transform="scale(0.015625)"/>
      <path d="M 3597 1894 
L 3597 1613 
L 953 1613 
Q 991 1019 1311 708 
Q 1631 397 2203 397 
Q 2534 397 2845 478 
Q 3156 559 3463 722 
L 3463 178 
Q 3153 47 2828 -22 
Q 2503 -91 2169 -91 
Q 1331 -91 842 396 
Q 353 884 353 1716 
Q 353 2575 817 3079 
Q 1281 3584 2069 3584 
Q 2775 3584 3186 3129 
Q 3597 2675 3597 1894 
z
M 3022 2063 
Q 3016 2534 2758 2815 
Q 2500 3097 2075 3097 
Q 1594 3097 1305 2825 
Q 1016 2553 972 2059 
L 3022 2063 
z
" id="DejaVuSans-65" transform="scale(0.015625)"/>
      <path d="M 2631 2963 
Q 2534 3019 2420 3045 
Q 2306 3072 2169 3072 
Q 1681 3072 1420 2755 
Q 1159 2438 1159 1844 
L 1159 0 
L 581 0 
L 581 3500 
L 1159 3500 
L 1159 2956 
Q 1341 3275 1631 3429 
Q 1922 3584 2338 3584 
Q 2397 3584 2469 3576 
Q 2541 3569 2628 3553 
L 2631 2963 
z
" id="DejaVuSans-72" transform="scale(0.015625)"/>
      <path id="DejaVuSans-20" transform="scale(0.015625)"/>
      <path d="M 3809 666 
L 3809 1919 
L 2778 1919 
L 2778 2438 
L 4434 2438 
L 4434 434 
Q 4069 175 3628 42 
Q 3188 -91 2688 -91 
Q 1594 -91 976 548 
Q 359 1188 359 2328 
Q 359 3472 976 4111 
Q 1594 4750 2688 4750 
Q 3144 4750 3555 4637 
Q 3966 4525 4313 4306 
L 4313 3634 
Q 3963 3931 3569 4081 
Q 3175 4231 2741 4231 
Q 1884 4231 1454 3753 
Q 1025 3275 1025 2328 
Q 1025 1384 1454 906 
Q 1884 428 2741 428 
Q 3075 428 3337 486 
Q 3600 544 3809 666 
z
" id="DejaVuSans-47" transform="scale(0.015625)"/>
      <path d="M 603 3500 
L 1178 3500 
L 1178 0 
L 603 0 
L 603 3500 
z
M 603 4863 
L 1178 4863 
L 1178 4134 
L 603 4134 
L 603 4863 
z
" id="DejaVuSans-69" transform="scale(0.015625)"/>
      <path d="M 2906 2969 
L 2906 4863 
L 3481 4863 
L 3481 0 
L 2906 0 
L 2906 525 
Q 2725 213 2448 61 
Q 2172 -91 1784 -91 
Q 1150 -91 751 415 
Q 353 922 353 1747 
Q 353 2572 751 3078 
Q 1150 3584 1784 3584 
Q 2172 3584 2448 3432 
Q 2725 3281 2906 2969 
z
M 947 1747 
Q 947 1113 1208 752 
Q 1469 391 1925 391 
Q 2381 391 2643 752 
Q 2906 1113 2906 1747 
Q 2906 2381 2643 2742 
Q 2381 3103 1925 3103 
Q 1469 3103 1208 2742 
Q 947 2381 947 1747 
z
" id="DejaVuSans-64" transform="scale(0.015625)"/>
     </defs>
     <use xlink:href="#DejaVuSans-50"/>
     <use x="56.677734" xlink:href="#DejaVuSans-6f"/>
     <use x="117.859375" xlink:href="#DejaVuSans-77"/>
     <use x="199.646484" xlink:href="#DejaVuSans-65"/>
     <use x="261.169922" xlink:href="#DejaVuSans-72"/>
     <use x="302.283203" xlink:href="#DejaVuSans-20"/>
     <use x="334.070312" xlink:href="#DejaVuSans-47"/>
     <use x="411.560547" xlink:href="#DejaVuSans-72"/>
     <use x="452.673828" xlink:href="#DejaVuSans-69"/>
     <use x="480.457031" xlink:href="#DejaVuSans-64"/>
    </g>
   </g>
   <g id="text_10">
    <!-- Turbine -->
    <g transform="translate(615.168 145.284525)scale(0.12 -0.12)">
     <defs>
      <path d="M -19 4666 
L 3928 4666 
L 3928 4134 
L 2272 4134 
L 2272 0 
L 1638 0 
L 1638 4134 
L -19 4134 
L -19 4666 
z
" id="DejaVuSans-54" transform="scale(0.015625)"/>
      <path d="M 544 1381 
L 544 3500 
L 1119 3500 
L 1119 1403 
Q 1119 906 1312 657 
Q 1506 409 1894 409 
Q 2359 409 2629 706 
Q 2900 1003 2900 1516 
L 2900 3500 
L 3475 3500 
L 3475 0 
L 2900 0 
L 2900 538 
Q 2691 219 2414 64 
Q 2138 -91 1772 -91 
Q 1169 -91 856 284 
Q 544 659 544 1381 
z
M 1991 3584 
L 1991 3584 
z
" id="DejaVuSans-75" transform="scale(0.015625)"/>
      <path d="M 3116 1747 
Q 3116 2381 2855 2742 
Q 2594 3103 2138 3103 
Q 1681 3103 1420 2742 
Q 1159 2381 1159 1747 
Q 1159 1113 1420 752 
Q 1681 391 2138 391 
Q 2594 391 2855 752 
Q 3116 1113 3116 1747 
z
M 1159 2969 
Q 1341 3281 1617 3432 
Q 1894 3584 2278 3584 
Q 2916 3584 3314 3078 
Q 3713 2572 3713 1747 
Q 3713 922 3314 415 
Q 2916 -91 2278 -91 
Q 1894 -91 1617 61 
Q 1341 213 1159 525 
L 1159 0 
L 581 0 
L 581 4863 
L 1159 4863 
L 1159 2969 
z
" id="DejaVuSans-62" transform="scale(0.015625)"/>
      <path d="M 3513 2113 
L 3513 0 
L 2938 0 
L 2938 2094 
Q 2938 2591 2744 2837 
Q 2550 3084 2163 3084 
Q 1697 3084 1428 2787 
Q 1159 2491 1159 1978 
L 1159 0 
L 581 0 
L 581 3500 
L 1159 3500 
L 1159 2956 
Q 1366 3272 1645 3428 
Q 1925 3584 2291 3584 
Q 2894 3584 3203 3211 
Q 3513 2838 3513 2113 
z
" id="DejaVuSans-6e" transform="scale(0.015625)"/>
     </defs>
     <use xlink:href="#DejaVuSans-54"/>
     <use x="45.958984" xlink:href="#DejaVuSans-75"/>
     <use x="109.337891" xlink:href="#DejaVuSans-72"/>
     <use x="150.451172" xlink:href="#DejaVuSans-62"/>
     <use x="213.927734" xlink:href="#DejaVuSans-69"/>
     <use x="241.710938" xlink:href="#DejaVuSans-6e"/>
     <use x="305.089844" xlink:href="#DejaVuSans-65"/>
    </g>
   </g>
   <g id="text_11">
    <!-- Fusion Power Plant -->
    <g transform="translate(315.382932 177.223702)scale(0.12 -0.12)">
     <defs>
      <path d="M 628 4666 
L 3309 4666 
L 3309 4134 
L 1259 4134 
L 1259 2759 
L 3109 2759 
L 3109 2228 
L 1259 2228 
L 1259 0 
L 628 0 
L 628 4666 
z
" id="DejaVuSans-46" transform="scale(0.015625)"/>
      <path d="M 2834 3397 
L 2834 2853 
Q 2591 2978 2328 3040 
Q 2066 3103 1784 3103 
Q 1356 3103 1142 2972 
Q 928 2841 928 2578 
Q 928 2378 1081 2264 
Q 1234 2150 1697 2047 
L 1894 2003 
Q 2506 1872 2764 1633 
Q 3022 1394 3022 966 
Q 3022 478 2636 193 
Q 2250 -91 1575 -91 
Q 1294 -91 989 -36 
Q 684 19 347 128 
L 347 722 
Q 666 556 975 473 
Q 1284 391 1588 391 
Q 1994 391 2212 530 
Q 2431 669 2431 922 
Q 2431 1156 2273 1281 
Q 2116 1406 1581 1522 
L 1381 1569 
Q 847 1681 609 1914 
Q 372 2147 372 2553 
Q 372 3047 722 3315 
Q 1072 3584 1716 3584 
Q 2034 3584 2315 3537 
Q 2597 3491 2834 3397 
z
" id="DejaVuSans-73" transform="scale(0.015625)"/>
      <path d="M 603 4863 
L 1178 4863 
L 1178 0 
L 603 0 
L 603 4863 
z
" id="DejaVuSans-6c" transform="scale(0.015625)"/>
      <path d="M 2194 1759 
Q 1497 1759 1228 1600 
Q 959 1441 959 1056 
Q 959 750 1161 570 
Q 1363 391 1709 391 
Q 2188 391 2477 730 
Q 2766 1069 2766 1631 
L 2766 1759 
L 2194 1759 
z
M 3341 1997 
L 3341 0 
L 2766 0 
L 2766 531 
Q 2569 213 2275 61 
Q 1981 -91 1556 -91 
Q 1019 -91 701 211 
Q 384 513 384 1019 
Q 384 1609 779 1909 
Q 1175 2209 1959 2209 
L 2766 2209 
L 2766 2266 
Q 2766 2663 2505 2880 
Q 2244 3097 1772 3097 
Q 1472 3097 1187 3025 
Q 903 2953 641 2809 
L 641 3341 
Q 956 3463 1253 3523 
Q 1550 3584 1831 3584 
Q 2591 3584 2966 3190 
Q 3341 2797 3341 1997 
z
" id="DejaVuSans-61" transform="scale(0.015625)"/>
      <path d="M 1172 4494 
L 1172 3500 
L 2356 3500 
L 2356 3053 
L 1172 3053 
L 1172 1153 
Q 1172 725 1289 603 
Q 1406 481 1766 481 
L 2356 481 
L 2356 0 
L 1766 0 
Q 1100 0 847 248 
Q 594 497 594 1153 
L 594 3053 
L 172 3053 
L 172 3500 
L 594 3500 
L 594 4494 
L 1172 4494 
z
" id="DejaVuSans-74" transform="scale(0.015625)"/>
     </defs>
     <use xlink:href="#DejaVuSans-46"/>
     <use x="52.019531" xlink:href="#DejaVuSans-75"/>
     <use x="115.398438" xlink:href="#DejaVuSans-73"/>
     <use x="167.498047" xlink:href="#DejaVuSans-69"/>
     <use x="195.28125" xlink:href="#DejaVuSans-6f"/>
     <use x="256.462891" xlink:href="#DejaVuSans-6e"/>
     <use x="319.841797" xlink:href="#DejaVuSans-20"/>
     <use x="351.628906" xlink:href="#DejaVuSans-50"/>
     <use x="408.306641" xlink:href="#DejaVuSans-6f"/>
     <use x="469.488281" xlink:href="#DejaVuSans-77"/>
     <use x="551.275391" xlink:href="#DejaVuSans-65"/>
     <use x="612.798828" xlink:href="#DejaVuSans-72"/>
     <use x="653.912109" xlink:href="#DejaVuSans-20"/>
     <use x="685.699219" xlink:href="#DejaVuSans-50"/>
     <use x="746.001953" xlink:href="#DejaVuSans-6c"/>
     <use x="773.785156" xlink:href="#DejaVuSans-61"/>
     <use x="835.064453" xlink:href="#DejaVuSans-6e"/>
     <use x="898.443359" xlink:href="#DejaVuSans-74"/>
    </g>
   </g>
   <g id="text_12">
    <!-- Targets  -->
    <g transform="translate(290.851174 314.196525)scale(0.12 -0.12)">
     <defs>
      <path d="M 2906 1791 
Q 2906 2416 2648 2759 
Q 2391 3103 1925 3103 
Q 1463 3103 1205 2759 
Q 947 2416 947 1791 
Q 947 1169 1205 825 
Q 1463 481 1925 481 
Q 2391 481 2648 825 
Q 2906 1169 2906 1791 
z
M 3481 434 
Q 3481 -459 3084 -895 
Q 2688 -1331 1869 -1331 
Q 1566 -1331 1297 -1286 
Q 1028 -1241 775 -1147 
L 775 -588 
Q 1028 -725 1275 -790 
Q 1522 -856 1778 -856 
Q 2344 -856 2625 -561 
Q 2906 -266 2906 331 
L 2906 616 
Q 2728 306 2450 153 
Q 2172 0 1784 0 
Q 1141 0 747 490 
Q 353 981 353 1791 
Q 353 2603 747 3093 
Q 1141 3584 1784 3584 
Q 2172 3584 2450 3431 
Q 2728 3278 2906 2969 
L 2906 3500 
L 3481 3500 
L 3481 434 
z
" id="DejaVuSans-67" transform="scale(0.015625)"/>
     </defs>
     <use xlink:href="#DejaVuSans-54"/>
     <use x="44.583984" xlink:href="#DejaVuSans-61"/>
     <use x="105.863281" xlink:href="#DejaVuSans-72"/>
     <use x="145.226562" xlink:href="#DejaVuSans-67"/>
     <use x="208.703125" xlink:href="#DejaVuSans-65"/>
     <use x="270.226562" xlink:href="#DejaVuSans-74"/>
     <use x="309.435547" xlink:href="#DejaVuSans-73"/>
     <use x="361.535156" xlink:href="#DejaVuSans-20"/>
    </g>
    <!-- (design) -->
    <g transform="translate(290.851174 327.6339)scale(0.12 -0.12)">
     <defs>
      <path d="M 1984 4856 
Q 1566 4138 1362 3434 
Q 1159 2731 1159 2009 
Q 1159 1288 1364 580 
Q 1569 -128 1984 -844 
L 1484 -844 
Q 1016 -109 783 600 
Q 550 1309 550 2009 
Q 550 2706 781 3412 
Q 1013 4119 1484 4856 
L 1984 4856 
z
" id="DejaVuSans-28" transform="scale(0.015625)"/>
      <path d="M 513 4856 
L 1013 4856 
Q 1481 4119 1714 3412 
Q 1947 2706 1947 2009 
Q 1947 1309 1714 600 
Q 1481 -109 1013 -844 
L 513 -844 
Q 928 -128 1133 580 
Q 1338 1288 1338 2009 
Q 1338 2731 1133 3434 
Q 928 4138 513 4856 
z
" id="DejaVuSans-29" transform="scale(0.015625)"/>
     </defs>
     <use xlink:href="#DejaVuSans-28"/>
     <use x="39.013672" xlink:href="#DejaVuSans-64"/>
     <use x="102.490234" xlink:href="#DejaVuSans-65"/>
     <use x="164.013672" xlink:href="#DejaVuSans-73"/>
     <use x="216.113281" xlink:href="#DejaVuSans-69"/>
     <use x="243.896484" xlink:href="#DejaVuSans-67"/>
     <use x="307.373047" xlink:href="#DejaVuSans-6e"/>
     <use x="370.751953" xlink:href="#DejaVuSans-29"/>
    </g>
   </g>
   <g id="text_13">
    <!-- Plasma  -->
    <g transform="translate(431.509788 197.158144)scale(0.12 -0.12)">
     <defs>
      <path d="M 3328 2828 
Q 3544 3216 3844 3400 
Q 4144 3584 4550 3584 
Q 5097 3584 5394 3201 
Q 5691 2819 5691 2113 
L 5691 0 
L 5113 0 
L 5113 2094 
Q 5113 2597 4934 2840 
Q 4756 3084 4391 3084 
Q 3944 3084 3684 2787 
Q 3425 2491 3425 1978 
L 3425 0 
L 2847 0 
L 2847 2094 
Q 2847 2600 2669 2842 
Q 2491 3084 2119 3084 
Q 1678 3084 1418 2786 
Q 1159 2488 1159 1978 
L 1159 0 
L 581 0 
L 581 3500 
L 1159 3500 
L 1159 2956 
Q 1356 3278 1631 3431 
Q 1906 3584 2284 3584 
Q 2666 3584 2933 3390 
Q 3200 3197 3328 2828 
z
" id="DejaVuSans-6d" transform="scale(0.015625)"/>
     </defs>
     <use xlink:href="#DejaVuSans-50"/>
     <use x="60.302734" xlink:href="#DejaVuSans-6c"/>
     <use x="88.085938" xlink:href="#DejaVuSans-61"/>
     <use x="149.365234" xlink:href="#DejaVuSans-73"/>
     <use x="201.464844" xlink:href="#DejaVuSans-6d"/>
     <use x="298.876953" xlink:href="#DejaVuSans-61"/>
     <use x="360.15625" xlink:href="#DejaVuSans-20"/>
    </g>
    <!-- Physics -->
    <g transform="translate(431.509788 210.595519)scale(0.12 -0.12)">
     <defs>
      <path d="M 3513 2113 
L 3513 0 
L 2938 0 
L 2938 2094 
Q 2938 2591 2744 2837 
Q 2550 3084 2163 3084 
Q 1697 3084 1428 2787 
Q 1159 2491 1159 1978 
L 1159 0 
L 581 0 
L 581 4863 
L 1159 4863 
L 1159 2956 
Q 1366 3272 1645 3428 
Q 1925 3584 2291 3584 
Q 2894 3584 3203 3211 
Q 3513 2838 3513 2113 
z
" id="DejaVuSans-68" transform="scale(0.015625)"/>
      <path d="M 2059 -325 
Q 1816 -950 1584 -1140 
Q 1353 -1331 966 -1331 
L 506 -1331 
L 506 -850 
L 844 -850 
Q 1081 -850 1212 -737 
Q 1344 -625 1503 -206 
L 1606 56 
L 191 3500 
L 800 3500 
L 1894 763 
L 2988 3500 
L 3597 3500 
L 2059 -325 
z
" id="DejaVuSans-79" transform="scale(0.015625)"/>
      <path d="M 3122 3366 
L 3122 2828 
Q 2878 2963 2633 3030 
Q 2388 3097 2138 3097 
Q 1578 3097 1268 2742 
Q 959 2388 959 1747 
Q 959 1106 1268 751 
Q 1578 397 2138 397 
Q 2388 397 2633 464 
Q 2878 531 3122 666 
L 3122 134 
Q 2881 22 2623 -34 
Q 2366 -91 2075 -91 
Q 1284 -91 818 406 
Q 353 903 353 1747 
Q 353 2603 823 3093 
Q 1294 3584 2113 3584 
Q 2378 3584 2631 3529 
Q 2884 3475 3122 3366 
z
" id="DejaVuSans-63" transform="scale(0.015625)"/>
     </defs>
     <use xlink:href="#DejaVuSans-50"/>
     <use x="60.302734" xlink:href="#DejaVuSans-68"/>
     <use x="123.681641" xlink:href="#DejaVuSans-79"/>
     <use x="182.861328" xlink:href="#DejaVuSans-73"/>
     <use x="234.960938" xlink:href="#DejaVuSans-69"/>
     <use x="262.744141" xlink:href="#DejaVuSans-63"/>
     <use x="317.724609" xlink:href="#DejaVuSans-73"/>
    </g>
   </g>
   <g id="text_14">
    <!-- Injection -->
    <g transform="translate(140.9733 228.107565)scale(0.12 -0.12)">
     <defs>
      <path d="M 628 4666 
L 1259 4666 
L 1259 0 
L 628 0 
L 628 4666 
z
" id="DejaVuSans-49" transform="scale(0.015625)"/>
      <path d="M 603 3500 
L 1178 3500 
L 1178 -63 
Q 1178 -731 923 -1031 
Q 669 -1331 103 -1331 
L -116 -1331 
L -116 -844 
L 38 -844 
Q 366 -844 484 -692 
Q 603 -541 603 -63 
L 603 3500 
z
M 603 4863 
L 1178 4863 
L 1178 4134 
L 603 4134 
L 603 4863 
z
" id="DejaVuSans-6a" transform="scale(0.015625)"/>
     </defs>
     <use xlink:href="#DejaVuSans-49"/>
     <use x="29.492188" xlink:href="#DejaVuSans-6e"/>
     <use x="92.871094" xlink:href="#DejaVuSans-6a"/>
     <use x="120.654297" xlink:href="#DejaVuSans-65"/>
     <use x="182.177734" xlink:href="#DejaVuSans-63"/>
     <use x="237.158203" xlink:href="#DejaVuSans-74"/>
     <use x="276.367188" xlink:href="#DejaVuSans-69"/>
     <use x="304.150391" xlink:href="#DejaVuSans-6f"/>
     <use x="365.332031" xlink:href="#DejaVuSans-6e"/>
    </g>
   </g>
   <g id="text_15">
    <!-- Target  -->
    <g transform="translate(168.4269 308.090925)scale(0.12 -0.12)">
     <use xlink:href="#DejaVuSans-54"/>
     <use x="44.583984" xlink:href="#DejaVuSans-61"/>
     <use x="105.863281" xlink:href="#DejaVuSans-72"/>
     <use x="145.226562" xlink:href="#DejaVuSans-67"/>
     <use x="208.703125" xlink:href="#DejaVuSans-65"/>
     <use x="270.226562" xlink:href="#DejaVuSans-74"/>
     <use x="309.435547" xlink:href="#DejaVuSans-20"/>
    </g>
    <!-- Manufacture -->
    <g transform="translate(168.4269 321.5283)scale(0.12 -0.12)">
     <defs>
      <path d="M 628 4666 
L 1569 4666 
L 2759 1491 
L 3956 4666 
L 4897 4666 
L 4897 0 
L 4281 0 
L 4281 4097 
L 3078 897 
L 2444 897 
L 1241 4097 
L 1241 0 
L 628 0 
L 628 4666 
z
" id="DejaVuSans-4d" transform="scale(0.015625)"/>
      <path d="M 2375 4863 
L 2375 4384 
L 1825 4384 
Q 1516 4384 1395 4259 
Q 1275 4134 1275 3809 
L 1275 3500 
L 2222 3500 
L 2222 3053 
L 1275 3053 
L 1275 0 
L 697 0 
L 697 3053 
L 147 3053 
L 147 3500 
L 697 3500 
L 697 3744 
Q 697 4328 969 4595 
Q 1241 4863 1831 4863 
L 2375 4863 
z
" id="DejaVuSans-66" transform="scale(0.015625)"/>
     </defs>
     <use xlink:href="#DejaVuSans-4d"/>
     <use x="86.279297" xlink:href="#DejaVuSans-61"/>
     <use x="147.558594" xlink:href="#DejaVuSans-6e"/>
     <use x="210.9375" xlink:href="#DejaVuSans-75"/>
     <use x="274.316406" xlink:href="#DejaVuSans-66"/>
     <use x="309.521484" xlink:href="#DejaVuSans-61"/>
     <use x="370.800781" xlink:href="#DejaVuSans-63"/>
     <use x="425.78125" xlink:href="#DejaVuSans-74"/>
     <use x="464.990234" xlink:href="#DejaVuSans-75"/>
     <use x="528.369141" xlink:href="#DejaVuSans-72"/>
     <use x="567.232422" xlink:href="#DejaVuSans-65"/>
    </g>
   </g>
   <g id="text_16">
    <!-- Storage,  -->
    <g transform="translate(195.045375 266.244525)scale(0.12 -0.12)">
     <defs>
      <path d="M 3425 4513 
L 3425 3897 
Q 3066 4069 2747 4153 
Q 2428 4238 2131 4238 
Q 1616 4238 1336 4038 
Q 1056 3838 1056 3469 
Q 1056 3159 1242 3001 
Q 1428 2844 1947 2747 
L 2328 2669 
Q 3034 2534 3370 2195 
Q 3706 1856 3706 1288 
Q 3706 609 3251 259 
Q 2797 -91 1919 -91 
Q 1588 -91 1214 -16 
Q 841 59 441 206 
L 441 856 
Q 825 641 1194 531 
Q 1563 422 1919 422 
Q 2459 422 2753 634 
Q 3047 847 3047 1241 
Q 3047 1584 2836 1778 
Q 2625 1972 2144 2069 
L 1759 2144 
Q 1053 2284 737 2584 
Q 422 2884 422 3419 
Q 422 4038 858 4394 
Q 1294 4750 2059 4750 
Q 2388 4750 2728 4690 
Q 3069 4631 3425 4513 
z
" id="DejaVuSans-53" transform="scale(0.015625)"/>
      <path d="M 750 794 
L 1409 794 
L 1409 256 
L 897 -744 
L 494 -744 
L 750 256 
L 750 794 
z
" id="DejaVuSans-2c" transform="scale(0.015625)"/>
     </defs>
     <use xlink:href="#DejaVuSans-53"/>
     <use x="63.476562" xlink:href="#DejaVuSans-74"/>
     <use x="102.685547" xlink:href="#DejaVuSans-6f"/>
     <use x="163.867188" xlink:href="#DejaVuSans-72"/>
     <use x="204.980469" xlink:href="#DejaVuSans-61"/>
     <use x="266.259766" xlink:href="#DejaVuSans-67"/>
     <use x="329.736328" xlink:href="#DejaVuSans-65"/>
     <use x="391.259766" xlink:href="#DejaVuSans-2c"/>
     <use x="423.046875" xlink:href="#DejaVuSans-20"/>
    </g>
    <!-- Transport -->
    <g transform="translate(194.185688 279.6819)scale(0.12 -0.12)">
     <defs>
      <path d="M 1159 525 
L 1159 -1331 
L 581 -1331 
L 581 3500 
L 1159 3500 
L 1159 2969 
Q 1341 3281 1617 3432 
Q 1894 3584 2278 3584 
Q 2916 3584 3314 3078 
Q 3713 2572 3713 1747 
Q 3713 922 3314 415 
Q 2916 -91 2278 -91 
Q 1894 -91 1617 61 
Q 1341 213 1159 525 
z
M 3116 1747 
Q 3116 2381 2855 2742 
Q 2594 3103 2138 3103 
Q 1681 3103 1420 2742 
Q 1159 2381 1159 1747 
Q 1159 1113 1420 752 
Q 1681 391 2138 391 
Q 2594 391 2855 752 
Q 3116 1113 3116 1747 
z
" id="DejaVuSans-70" transform="scale(0.015625)"/>
     </defs>
     <use xlink:href="#DejaVuSans-54"/>
     <use x="46.333984" xlink:href="#DejaVuSans-72"/>
     <use x="87.447266" xlink:href="#DejaVuSans-61"/>
     <use x="148.726562" xlink:href="#DejaVuSans-6e"/>
     <use x="212.105469" xlink:href="#DejaVuSans-73"/>
     <use x="264.205078" xlink:href="#DejaVuSans-70"/>
     <use x="327.681641" xlink:href="#DejaVuSans-6f"/>
     <use x="388.863281" xlink:href="#DejaVuSans-72"/>
     <use x="429.976562" xlink:href="#DejaVuSans-74"/>
    </g>
   </g>
   <g id="text_17">
    <!-- Tritium  -->
    <g transform="translate(119.462674 379.347663)scale(0.12 -0.12)">
     <use xlink:href="#DejaVuSans-54"/>
     <use x="46.333984" xlink:href="#DejaVuSans-72"/>
     <use x="87.447266" xlink:href="#DejaVuSans-69"/>
     <use x="115.230469" xlink:href="#DejaVuSans-74"/>
     <use x="154.439453" xlink:href="#DejaVuSans-69"/>
     <use x="182.222656" xlink:href="#DejaVuSans-75"/>
     <use x="245.601562" xlink:href="#DejaVuSans-6d"/>
     <use x="343.013672" xlink:href="#DejaVuSans-20"/>
    </g>
    <!-- Market -->
    <g transform="translate(121.327362 392.785038)scale(0.12 -0.12)">
     <defs>
      <path d="M 581 4863 
L 1159 4863 
L 1159 1991 
L 2875 3500 
L 3609 3500 
L 1753 1863 
L 3688 0 
L 2938 0 
L 1159 1709 
L 1159 0 
L 581 0 
L 581 4863 
z
" id="DejaVuSans-6b" transform="scale(0.015625)"/>
     </defs>
     <use xlink:href="#DejaVuSans-4d"/>
     <use x="86.279297" xlink:href="#DejaVuSans-61"/>
     <use x="147.558594" xlink:href="#DejaVuSans-72"/>
     <use x="188.671875" xlink:href="#DejaVuSans-6b"/>
     <use x="242.957031" xlink:href="#DejaVuSans-65"/>
     <use x="304.480469" xlink:href="#DejaVuSans-74"/>
    </g>
   </g>
   <g id="text_18">
    <!-- Tritium  -->
    <g transform="translate(400.14018 325.790272)scale(0.12 -0.12)">
     <use xlink:href="#DejaVuSans-54"/>
     <use x="46.333984" xlink:href="#DejaVuSans-72"/>
     <use x="87.447266" xlink:href="#DejaVuSans-69"/>
     <use x="115.230469" xlink:href="#DejaVuSans-74"/>
     <use x="154.439453" xlink:href="#DejaVuSans-69"/>
     <use x="182.222656" xlink:href="#DejaVuSans-75"/>
     <use x="245.601562" xlink:href="#DejaVuSans-6d"/>
     <use x="343.013672" xlink:href="#DejaVuSans-20"/>
    </g>
    <!-- Production -->
    <g transform="translate(400.14018 339.227647)scale(0.12 -0.12)">
     <use xlink:href="#DejaVuSans-50"/>
     <use x="58.552734" xlink:href="#DejaVuSans-72"/>
     <use x="97.416016" xlink:href="#DejaVuSans-6f"/>
     <use x="158.597656" xlink:href="#DejaVuSans-64"/>
     <use x="222.074219" xlink:href="#DejaVuSans-75"/>
     <use x="285.453125" xlink:href="#DejaVuSans-63"/>
     <use x="340.433594" xlink:href="#DejaVuSans-74"/>
     <use x="379.642578" xlink:href="#DejaVuSans-69"/>
     <use x="407.425781" xlink:href="#DejaVuSans-6f"/>
     <use x="468.607422" xlink:href="#DejaVuSans-6e"/>
    </g>
   </g>
   <g id="text_19">
    <!-- Lithium  -->
    <g transform="translate(686.592 459.780525)scale(0.12 -0.12)">
     <defs>
      <path d="M 628 4666 
L 1259 4666 
L 1259 531 
L 3531 531 
L 3531 0 
L 628 0 
L 628 4666 
z
" id="DejaVuSans-4c" transform="scale(0.015625)"/>
     </defs>
     <use xlink:href="#DejaVuSans-4c"/>
     <use x="55.712891" xlink:href="#DejaVuSans-69"/>
     <use x="83.496094" xlink:href="#DejaVuSans-74"/>
     <use x="122.705078" xlink:href="#DejaVuSans-68"/>
     <use x="186.083984" xlink:href="#DejaVuSans-69"/>
     <use x="213.867188" xlink:href="#DejaVuSans-75"/>
     <use x="277.246094" xlink:href="#DejaVuSans-6d"/>
     <use x="374.658203" xlink:href="#DejaVuSans-20"/>
    </g>
    <!-- Mining -->
    <g transform="translate(686.592 473.2179)scale(0.12 -0.12)">
     <use xlink:href="#DejaVuSans-4d"/>
     <use x="86.279297" xlink:href="#DejaVuSans-69"/>
     <use x="114.0625" xlink:href="#DejaVuSans-6e"/>
     <use x="177.441406" xlink:href="#DejaVuSans-69"/>
     <use x="205.224609" xlink:href="#DejaVuSans-6e"/>
     <use x="268.603516" xlink:href="#DejaVuSans-67"/>
    </g>
   </g>
   <g id="text_20">
    <!-- Structure -->
    <g transform="translate(225.80028 393.709794)scale(0.12 -0.12)">
     <use xlink:href="#DejaVuSans-53"/>
     <use x="63.476562" xlink:href="#DejaVuSans-74"/>
     <use x="102.685547" xlink:href="#DejaVuSans-72"/>
     <use x="143.798828" xlink:href="#DejaVuSans-75"/>
     <use x="207.177734" xlink:href="#DejaVuSans-63"/>
     <use x="262.158203" xlink:href="#DejaVuSans-74"/>
     <use x="301.367188" xlink:href="#DejaVuSans-75"/>
     <use x="364.746094" xlink:href="#DejaVuSans-72"/>
     <use x="403.609375" xlink:href="#DejaVuSans-65"/>
    </g>
   </g>
   <g id="text_21">
    <!-- Control  -->
    <g transform="translate(270.141141 596.349815)scale(0.12 -0.12)">
     <defs>
      <path d="M 4122 4306 
L 4122 3641 
Q 3803 3938 3442 4084 
Q 3081 4231 2675 4231 
Q 1875 4231 1450 3742 
Q 1025 3253 1025 2328 
Q 1025 1406 1450 917 
Q 1875 428 2675 428 
Q 3081 428 3442 575 
Q 3803 722 4122 1019 
L 4122 359 
Q 3791 134 3420 21 
Q 3050 -91 2638 -91 
Q 1578 -91 968 557 
Q 359 1206 359 2328 
Q 359 3453 968 4101 
Q 1578 4750 2638 4750 
Q 3056 4750 3426 4639 
Q 3797 4528 4122 4306 
z
" id="DejaVuSans-43" transform="scale(0.015625)"/>
     </defs>
     <use xlink:href="#DejaVuSans-43"/>
     <use x="69.824219" xlink:href="#DejaVuSans-6f"/>
     <use x="131.005859" xlink:href="#DejaVuSans-6e"/>
     <use x="194.384766" xlink:href="#DejaVuSans-74"/>
     <use x="233.59375" xlink:href="#DejaVuSans-72"/>
     <use x="272.457031" xlink:href="#DejaVuSans-6f"/>
     <use x="333.638672" xlink:href="#DejaVuSans-6c"/>
     <use x="361.421875" xlink:href="#DejaVuSans-20"/>
    </g>
    <!-- Systems -->
    <g transform="translate(270.141141 609.78719)scale(0.12 -0.12)">
     <use xlink:href="#DejaVuSans-53"/>
     <use x="63.476562" xlink:href="#DejaVuSans-79"/>
     <use x="122.65625" xlink:href="#DejaVuSans-73"/>
     <use x="174.755859" xlink:href="#DejaVuSans-74"/>
     <use x="213.964844" xlink:href="#DejaVuSans-65"/>
     <use x="275.488281" xlink:href="#DejaVuSans-6d"/>
     <use x="372.900391" xlink:href="#DejaVuSans-73"/>
    </g>
   </g>
   <g id="text_22">
    <!-- Supports -->
    <g transform="translate(210.727688 432.622125)scale(0.12 -0.12)">
     <use xlink:href="#DejaVuSans-53"/>
     <use x="63.476562" xlink:href="#DejaVuSans-75"/>
     <use x="126.855469" xlink:href="#DejaVuSans-70"/>
     <use x="190.332031" xlink:href="#DejaVuSans-70"/>
     <use x="253.808594" xlink:href="#DejaVuSans-6f"/>
     <use x="314.990234" xlink:href="#DejaVuSans-72"/>
     <use x="356.103516" xlink:href="#DejaVuSans-74"/>
     <use x="395.3125" xlink:href="#DejaVuSans-73"/>
    </g>
   </g>
   <g id="text_23">
    <!-- First  -->
    <g transform="translate(116.867738 544.826925)scale(0.12 -0.12)">
     <use xlink:href="#DejaVuSans-46"/>
     <use x="50.269531" xlink:href="#DejaVuSans-69"/>
     <use x="78.052734" xlink:href="#DejaVuSans-72"/>
     <use x="119.166016" xlink:href="#DejaVuSans-73"/>
     <use x="171.265625" xlink:href="#DejaVuSans-74"/>
     <use x="210.474609" xlink:href="#DejaVuSans-20"/>
    </g>
    <!-- Wall -->
    <g transform="translate(118.841175 558.2643)scale(0.12 -0.12)">
     <defs>
      <path d="M 213 4666 
L 850 4666 
L 1831 722 
L 2809 4666 
L 3519 4666 
L 4500 722 
L 5478 4666 
L 6119 4666 
L 4947 0 
L 4153 0 
L 3169 4050 
L 2175 0 
L 1381 0 
L 213 4666 
z
" id="DejaVuSans-57" transform="scale(0.015625)"/>
     </defs>
     <use xlink:href="#DejaVuSans-57"/>
     <use x="92.501953" xlink:href="#DejaVuSans-61"/>
     <use x="153.78125" xlink:href="#DejaVuSans-6c"/>
     <use x="181.564453" xlink:href="#DejaVuSans-6c"/>
    </g>
   </g>
   <g id="text_24">
    <!-- Laser  -->
    <g transform="translate(258.49889 510.958125)scale(0.12 -0.12)">
     <use xlink:href="#DejaVuSans-4c"/>
     <use x="55.712891" xlink:href="#DejaVuSans-61"/>
     <use x="116.992188" xlink:href="#DejaVuSans-73"/>
     <use x="169.091797" xlink:href="#DejaVuSans-65"/>
     <use x="230.615234" xlink:href="#DejaVuSans-72"/>
     <use x="271.728516" xlink:href="#DejaVuSans-20"/>
    </g>
    <!-- System -->
    <g transform="translate(258.49889 524.3955)scale(0.12 -0.12)">
     <use xlink:href="#DejaVuSans-53"/>
     <use x="63.476562" xlink:href="#DejaVuSans-79"/>
     <use x="122.65625" xlink:href="#DejaVuSans-73"/>
     <use x="174.755859" xlink:href="#DejaVuSans-74"/>
     <use x="213.964844" xlink:href="#DejaVuSans-65"/>
     <use x="275.488281" xlink:href="#DejaVuSans-6d"/>
    </g>
   </g>
   <g id="text_25">
    <!-- Driver -->
    <g transform="translate(249.204379 544.654932)scale(0.12 -0.12)">
     <defs>
      <path d="M 1259 4147 
L 1259 519 
L 2022 519 
Q 2988 519 3436 956 
Q 3884 1394 3884 2338 
Q 3884 3275 3436 3711 
Q 2988 4147 2022 4147 
L 1259 4147 
z
M 628 4666 
L 1925 4666 
Q 3281 4666 3915 4102 
Q 4550 3538 4550 2338 
Q 4550 1131 3912 565 
Q 3275 0 1925 0 
L 628 0 
L 628 4666 
z
" id="DejaVuSans-44" transform="scale(0.015625)"/>
      <path d="M 191 3500 
L 800 3500 
L 1894 563 
L 2988 3500 
L 3597 3500 
L 2284 0 
L 1503 0 
L 191 3500 
z
" id="DejaVuSans-76" transform="scale(0.015625)"/>
     </defs>
     <use xlink:href="#DejaVuSans-44"/>
     <use x="77.001953" xlink:href="#DejaVuSans-72"/>
     <use x="118.115234" xlink:href="#DejaVuSans-69"/>
     <use x="145.898438" xlink:href="#DejaVuSans-76"/>
     <use x="205.078125" xlink:href="#DejaVuSans-65"/>
     <use x="266.601562" xlink:href="#DejaVuSans-72"/>
    </g>
   </g>
   <g id="text_26">
    <!-- Optics -->
    <g transform="translate(166.02472 546.399311)scale(0.12 -0.12)">
     <defs>
      <path d="M 2522 4238 
Q 1834 4238 1429 3725 
Q 1025 3213 1025 2328 
Q 1025 1447 1429 934 
Q 1834 422 2522 422 
Q 3209 422 3611 934 
Q 4013 1447 4013 2328 
Q 4013 3213 3611 3725 
Q 3209 4238 2522 4238 
z
M 2522 4750 
Q 3503 4750 4090 4092 
Q 4678 3434 4678 2328 
Q 4678 1225 4090 567 
Q 3503 -91 2522 -91 
Q 1538 -91 948 565 
Q 359 1222 359 2328 
Q 359 3434 948 4092 
Q 1538 4750 2522 4750 
z
" id="DejaVuSans-4f" transform="scale(0.015625)"/>
     </defs>
     <use xlink:href="#DejaVuSans-4f"/>
     <use x="78.710938" xlink:href="#DejaVuSans-70"/>
     <use x="142.1875" xlink:href="#DejaVuSans-74"/>
     <use x="181.396484" xlink:href="#DejaVuSans-69"/>
     <use x="209.179688" xlink:href="#DejaVuSans-63"/>
     <use x="264.160156" xlink:href="#DejaVuSans-73"/>
    </g>
   </g>
   <g id="text_27">
    <!-- Heat  -->
    <g transform="translate(204.524228 566.022602)scale(0.12 -0.12)">
     <defs>
      <path d="M 628 4666 
L 1259 4666 
L 1259 2753 
L 3553 2753 
L 3553 4666 
L 4184 4666 
L 4184 0 
L 3553 0 
L 3553 2222 
L 1259 2222 
L 1259 0 
L 628 0 
L 628 4666 
z
" id="DejaVuSans-48" transform="scale(0.015625)"/>
     </defs>
     <use xlink:href="#DejaVuSans-48"/>
     <use x="75.195312" xlink:href="#DejaVuSans-65"/>
     <use x="136.71875" xlink:href="#DejaVuSans-61"/>
     <use x="197.998047" xlink:href="#DejaVuSans-74"/>
     <use x="237.207031" xlink:href="#DejaVuSans-20"/>
    </g>
    <!-- Regulation -->
    <g transform="translate(204.524228 579.459977)scale(0.12 -0.12)">
     <defs>
      <path d="M 2841 2188 
Q 3044 2119 3236 1894 
Q 3428 1669 3622 1275 
L 4263 0 
L 3584 0 
L 2988 1197 
Q 2756 1666 2539 1819 
Q 2322 1972 1947 1972 
L 1259 1972 
L 1259 0 
L 628 0 
L 628 4666 
L 2053 4666 
Q 2853 4666 3247 4331 
Q 3641 3997 3641 3322 
Q 3641 2881 3436 2590 
Q 3231 2300 2841 2188 
z
M 1259 4147 
L 1259 2491 
L 2053 2491 
Q 2509 2491 2742 2702 
Q 2975 2913 2975 3322 
Q 2975 3731 2742 3939 
Q 2509 4147 2053 4147 
L 1259 4147 
z
" id="DejaVuSans-52" transform="scale(0.015625)"/>
     </defs>
     <use xlink:href="#DejaVuSans-52"/>
     <use x="64.982422" xlink:href="#DejaVuSans-65"/>
     <use x="126.505859" xlink:href="#DejaVuSans-67"/>
     <use x="189.982422" xlink:href="#DejaVuSans-75"/>
     <use x="253.361328" xlink:href="#DejaVuSans-6c"/>
     <use x="281.144531" xlink:href="#DejaVuSans-61"/>
     <use x="342.423828" xlink:href="#DejaVuSans-74"/>
     <use x="381.632812" xlink:href="#DejaVuSans-69"/>
     <use x="409.416016" xlink:href="#DejaVuSans-6f"/>
     <use x="470.597656" xlink:href="#DejaVuSans-6e"/>
    </g>
   </g>
   <g id="text_28">
    <!-- Current state of Fusion research -->
    <g transform="translate(344.092031 76.944)scale(0.14 -0.14)">
     <defs>
      <path d="M 3138 2547 
Q 2991 2616 2845 2648 
Q 2700 2681 2553 2681 
Q 2122 2681 1889 2404 
Q 1656 2128 1656 1613 
L 1656 0 
L 538 0 
L 538 3500 
L 1656 3500 
L 1656 2925 
Q 1872 3269 2151 3426 
Q 2431 3584 2822 3584 
Q 2878 3584 2943 3579 
Q 3009 3575 3134 3559 
L 3138 2547 
z
" id="DejaVuSans-Bold-72" transform="scale(0.015625)"/>
      <path d="M 3272 3391 
L 3272 2541 
Q 2913 2691 2578 2766 
Q 2244 2841 1947 2841 
Q 1628 2841 1473 2761 
Q 1319 2681 1319 2516 
Q 1319 2381 1436 2309 
Q 1553 2238 1856 2203 
L 2053 2175 
Q 2913 2066 3209 1816 
Q 3506 1566 3506 1031 
Q 3506 472 3093 190 
Q 2681 -91 1863 -91 
Q 1516 -91 1145 -36 
Q 775 19 384 128 
L 384 978 
Q 719 816 1070 734 
Q 1422 653 1784 653 
Q 2113 653 2278 743 
Q 2444 834 2444 1013 
Q 2444 1163 2330 1236 
Q 2216 1309 1875 1350 
L 1678 1375 
Q 931 1469 631 1722 
Q 331 1975 331 2491 
Q 331 3047 712 3315 
Q 1094 3584 1881 3584 
Q 2191 3584 2531 3537 
Q 2872 3491 3272 3391 
z
" id="DejaVuSans-Bold-73" transform="scale(0.015625)"/>
      <path d="M 2841 4863 
L 2841 4128 
L 2222 4128 
Q 1984 4128 1890 4042 
Q 1797 3956 1797 3744 
L 1797 3500 
L 2753 3500 
L 2753 2700 
L 1797 2700 
L 1797 0 
L 678 0 
L 678 2700 
L 122 2700 
L 122 3500 
L 678 3500 
L 678 3744 
Q 678 4316 997 4589 
Q 1316 4863 1984 4863 
L 2841 4863 
z
" id="DejaVuSans-Bold-66" transform="scale(0.015625)"/>
      <path d="M 588 4666 
L 3834 4666 
L 3834 3756 
L 1791 3756 
L 1791 2888 
L 3713 2888 
L 3713 1978 
L 1791 1978 
L 1791 0 
L 588 0 
L 588 4666 
z
" id="DejaVuSans-Bold-46" transform="scale(0.015625)"/>
      <path d="M 3366 3391 
L 3366 2478 
Q 3138 2634 2908 2709 
Q 2678 2784 2431 2784 
Q 1963 2784 1702 2511 
Q 1441 2238 1441 1747 
Q 1441 1256 1702 982 
Q 1963 709 2431 709 
Q 2694 709 2930 787 
Q 3166 866 3366 1019 
L 3366 103 
Q 3103 6 2833 -42 
Q 2563 -91 2291 -91 
Q 1344 -91 809 395 
Q 275 881 275 1747 
Q 275 2613 809 3098 
Q 1344 3584 2291 3584 
Q 2566 3584 2833 3536 
Q 3100 3488 3366 3391 
z
" id="DejaVuSans-Bold-63" transform="scale(0.015625)"/>
     </defs>
     <use xlink:href="#DejaVuSans-Bold-43"/>
     <use x="73.388672" xlink:href="#DejaVuSans-Bold-75"/>
     <use x="144.580078" xlink:href="#DejaVuSans-Bold-72"/>
     <use x="193.896484" xlink:href="#DejaVuSans-Bold-72"/>
     <use x="243.212891" xlink:href="#DejaVuSans-Bold-65"/>
     <use x="311.035156" xlink:href="#DejaVuSans-Bold-6e"/>
     <use x="382.226562" xlink:href="#DejaVuSans-Bold-74"/>
     <use x="430.029297" xlink:href="#DejaVuSans-Bold-20"/>
     <use x="464.84375" xlink:href="#DejaVuSans-Bold-73"/>
     <use x="524.365234" xlink:href="#DejaVuSans-Bold-74"/>
     <use x="572.167969" xlink:href="#DejaVuSans-Bold-61"/>
     <use x="639.648438" xlink:href="#DejaVuSans-Bold-74"/>
     <use x="687.451172" xlink:href="#DejaVuSans-Bold-65"/>
     <use x="755.273438" xlink:href="#DejaVuSans-Bold-20"/>
     <use x="790.087891" xlink:href="#DejaVuSans-Bold-6f"/>
     <use x="858.789062" xlink:href="#DejaVuSans-Bold-66"/>
     <use x="902.294922" xlink:href="#DejaVuSans-Bold-20"/>
     <use x="937.109375" xlink:href="#DejaVuSans-Bold-46"/>
     <use x="1000.419922" xlink:href="#DejaVuSans-Bold-75"/>
     <use x="1071.611328" xlink:href="#DejaVuSans-Bold-73"/>
     <use x="1131.132812" xlink:href="#DejaVuSans-Bold-69"/>
     <use x="1165.410156" xlink:href="#DejaVuSans-Bold-6f"/>
     <use x="1234.111328" xlink:href="#DejaVuSans-Bold-6e"/>
     <use x="1305.302734" xlink:href="#DejaVuSans-Bold-20"/>
     <use x="1340.117188" xlink:href="#DejaVuSans-Bold-72"/>
     <use x="1389.433594" xlink:href="#DejaVuSans-Bold-65"/>
     <use x="1457.255859" xlink:href="#DejaVuSans-Bold-73"/>
     <use x="1516.777344" xlink:href="#DejaVuSans-Bold-65"/>
     <use x="1584.599609" xlink:href="#DejaVuSans-Bold-61"/>
     <use x="1652.080078" xlink:href="#DejaVuSans-Bold-72"/>
     <use x="1701.396484" xlink:href="#DejaVuSans-Bold-63"/>
     <use x="1760.673828" xlink:href="#DejaVuSans-Bold-68"/>
    </g>
   </g>
  </g>
 </g>
 <defs>
  <clipPath id="pb2a53105a3">
   <rect height="532.224" width="714.24" x="115.2" y="82.944"/>
  </clipPath>
 </defs>
</svg>
