<?xml version="1.0" encoding="utf-8" standalone="no"?>
<!DOCTYPE svg PUBLIC "-//W3C//DTD SVG 1.1//EN"
  "http://www.w3.org/Graphics/SVG/1.1/DTD/svg11.dtd">
<svg xmlns:xlink="http://www.w3.org/1999/xlink" width="921.6pt" height="691.2pt" viewBox="0 0 921.6 691.2" xmlns="http://www.w3.org/2000/svg" version="1.1">
 <metadata>
  <rdf:RDF xmlns:dc="http://purl.org/dc/elements/1.1/" xmlns:cc="http://creativecommons.org/ns#" xmlns:rdf="http://www.w3.org/1999/02/22-rdf-syntax-ns#">
   <cc:Work>
    <dc:type rdf:resource="http://purl.org/dc/dcmitype/StillImage"/>
    <dc:date>2022-03-05T13:11:08.345594</dc:date>
    <dc:format>image/svg+xml</dc:format>
    <dc:creator>
     <cc:Agent>
      <dc:title>Matplotlib v3.5.1, https://matplotlib.org/</dc:title>
     </cc:Agent>
    </dc:creator>
   </cc:Work>
  </rdf:RDF>
 </metadata>
 <defs>
  <style type="text/css">*{stroke-linejoin: round; stroke-linecap: butt}</style>
 </defs>
 <g id="figure_1">
  <g id="patch_1">
   <path d="M 0 691.2 
L 921.6 691.2 
L 921.6 0 
L 0 0 
z
" style="fill: #ffffff"/>
  </g>
  <g id="axes_1">
   <g id="patch_2">
    <path d="M 115.2 615.168 
L 829.44 615.168 
L 829.44 82.944 
L 115.2 82.944 
z
" style="fill: #ffffff"/>
   </g>
   <g id="LineCollection_1">
    <path d="M 115.2 692.2 
L 115.2 -1 
" clip-path="url(#p68b6b2a583)" style="fill: none; stroke-dasharray: 7.5,7.5; stroke-dashoffset: 0; stroke: #d3d3d3; stroke-width: 1.5"/>
    <path d="M 293.76 692.2 
L 293.76 -1 
" clip-path="url(#p68b6b2a583)" style="fill: none; stroke-dasharray: 7.5,7.5; stroke-dashoffset: 0; stroke: #d3d3d3; stroke-width: 1.5"/>
    <path d="M 472.32 692.2 
L 472.32 -1 
" clip-path="url(#p68b6b2a583)" style="fill: none; stroke-dasharray: 7.5,7.5; stroke-dashoffset: 0; stroke: #d3d3d3; stroke-width: 1.5"/>
    <path d="M 650.88 692.2 
L 650.88 -1 
" clip-path="url(#p68b6b2a583)" style="fill: none; stroke-dasharray: 7.5,7.5; stroke-dashoffset: 0; stroke: #d3d3d3; stroke-width: 1.5"/>
    <path d="M 829.44 692.2 
L 829.44 -1 
" clip-path="url(#p68b6b2a583)" style="fill: none; stroke-dasharray: 7.5,7.5; stroke-dashoffset: 0; stroke: #d3d3d3; stroke-width: 1.5"/>
   </g>
   <g id="line2d_1">
    <path d="M 740.16 107.136 
L 561.6 120.576 
" clip-path="url(#p68b6b2a583)" style="fill: none; stroke-dasharray: 5.55,2.4; stroke-dashoffset: 0; stroke: #a9a9a9; stroke-width: 1.5"/>
   </g>
   <g id="line2d_2">
    <path d="M 740.16 107.136 
L 204.48 308.736 
" clip-path="url(#p68b6b2a583)" style="fill: none; stroke-dasharray: 5.55,2.4; stroke-dashoffset: 0; stroke: #a9a9a9; stroke-width: 1.5"/>
   </g>
   <g id="line2d_3">
    <path d="M 561.6 120.576 
L 168.768 174.336 
" clip-path="url(#p68b6b2a583)" style="fill: none; stroke-dasharray: 5.55,2.4; stroke-dashoffset: 0; stroke: #a9a9a9; stroke-width: 1.5"/>
   </g>
   <g id="line2d_4">
    <path d="M 168.768 174.336 
L 124.128 241.536 
" clip-path="url(#p68b6b2a583)" style="fill: none; stroke-dasharray: 5.55,2.4; stroke-dashoffset: 0; stroke: #a9a9a9; stroke-width: 1.5"/>
   </g>
   <g id="line2d_5">
    <path d="M 168.768 174.336 
L 195.552 241.536 
" clip-path="url(#p68b6b2a583)" style="fill: none; stroke-dasharray: 5.55,2.4; stroke-dashoffset: 0; stroke: #a9a9a9; stroke-width: 1.5"/>
   </g>
   <g id="line2d_6">
    <path d="M 195.552 241.536 
L 141.984 308.736 
" clip-path="url(#p68b6b2a583)" style="fill: none; stroke-dasharray: 5.55,2.4; stroke-dashoffset: 0; stroke: #a9a9a9; stroke-width: 1.5"/>
   </g>
   <g id="line2d_7">
    <path d="M 195.552 241.536 
L 383.04 308.736 
" clip-path="url(#p68b6b2a583)" style="fill: none; stroke-dasharray: 5.55,2.4; stroke-dashoffset: 0; stroke: #a9a9a9; stroke-width: 1.5"/>
   </g>
   <g id="line2d_8">
    <path d="M 383.04 308.736 
L 686.592 375.936 
" clip-path="url(#p68b6b2a583)" style="fill: none; stroke-dasharray: 5.55,2.4; stroke-dashoffset: 0; stroke: #a9a9a9; stroke-width: 1.5"/>
   </g>
   <g id="line2d_9">
    <path d="M 124.128 241.536 
L 133.056 510.336 
" clip-path="url(#p68b6b2a583)" style="fill: none; stroke-dasharray: 5.55,2.4; stroke-dashoffset: 0; stroke: #a9a9a9; stroke-width: 1.5"/>
   </g>
   <g id="line2d_10">
    <path d="M 124.128 241.536 
L 275.904 308.736 
" clip-path="url(#p68b6b2a583)" style="fill: none; stroke-dasharray: 5.55,2.4; stroke-dashoffset: 0; stroke: #a9a9a9; stroke-width: 1.5"/>
   </g>
   <g id="line2d_11">
    <path d="M 275.904 308.736 
L 204.48 308.736 
" clip-path="url(#p68b6b2a583)" style="fill: none; stroke-dasharray: 5.55,2.4; stroke-dashoffset: 0; stroke: #a9a9a9; stroke-width: 1.5"/>
   </g>
   <g id="line2d_12">
    <path d="M 275.904 308.736 
L 120.5568 443.136 
" clip-path="url(#p68b6b2a583)" style="fill: none; stroke-dasharray: 5.55,2.4; stroke-dashoffset: 0; stroke: #a9a9a9; stroke-width: 1.5"/>
   </g>
   <g id="line2d_13">
    <path d="M 275.904 308.736 
L 204.48 443.136 
" clip-path="url(#p68b6b2a583)" style="fill: none; stroke-dasharray: 5.55,2.4; stroke-dashoffset: 0; stroke: #a9a9a9; stroke-width: 1.5"/>
   </g>
   <g id="line2d_14">
    <path d="M 311.616 349.056 
L 275.904 308.736 
" clip-path="url(#p68b6b2a583)" style="fill: none; stroke-dasharray: 9.6,2.4,1.5,2.4; stroke-dashoffset: 0; stroke: #d3d3d3; stroke-width: 1.5"/>
   </g>
   <g id="line2d_15">
    <path d="M 311.616 349.056 
L 204.48 443.136 
" clip-path="url(#p68b6b2a583)" style="fill: none; stroke-dasharray: 9.6,2.4,1.5,2.4; stroke-dashoffset: 0; stroke: #d3d3d3; stroke-width: 1.5"/>
   </g>
   <g id="line2d_16">
    <path d="M 311.616 349.056 
L 204.48 308.736 
" clip-path="url(#p68b6b2a583)" style="fill: none; stroke-dasharray: 9.6,2.4,1.5,2.4; stroke-dashoffset: 0; stroke: #d3d3d3; stroke-width: 1.5"/>
   </g>
   <g id="line2d_17">
    <path d="M 204.48 443.136 
L 141.984 308.736 
" clip-path="url(#p68b6b2a583)" style="fill: none; stroke-dasharray: 5.55,2.4; stroke-dashoffset: 0; stroke: #a9a9a9; stroke-width: 1.5"/>
   </g>
   <g id="line2d_18">
    <path d="M 141.984 308.736 
L 120.5568 443.136 
" clip-path="url(#p68b6b2a583)" style="fill: none; stroke-dasharray: 5.55,2.4; stroke-dashoffset: 0; stroke: #a9a9a9; stroke-width: 1.5"/>
   </g>
   <g id="line2d_19">
    <path d="M 120.5568 443.136 
L 204.48 577.536 
" clip-path="url(#p68b6b2a583)" style="fill: none; stroke-dasharray: 5.55,2.4; stroke-dashoffset: 0; stroke: #a9a9a9; stroke-width: 1.5"/>
   </g>
   <g id="line2d_20">
    <path d="M 204.48 308.736 
L 150.912 375.936 
" clip-path="url(#p68b6b2a583)" style="fill: none; stroke-dasharray: 5.55,2.4; stroke-dashoffset: 0; stroke: #a9a9a9; stroke-width: 1.5"/>
   </g>
   <g id="line2d_21">
    <path d="M 150.912 375.936 
L 204.48 577.536 
" clip-path="url(#p68b6b2a583)" style="fill: none; stroke-dasharray: 5.55,2.4; stroke-dashoffset: 0; stroke: #a9a9a9; stroke-width: 1.5"/>
   </g>
   <g id="line2d_22">
    <path d="M 150.912 375.936 
L 150.912 590.976 
" clip-path="url(#p68b6b2a583)" style="fill: none; stroke-dasharray: 5.55,2.4; stroke-dashoffset: 0; stroke: #a9a9a9; stroke-width: 1.5"/>
   </g>
   <g id="line2d_23">
    <path d="M 150.912 375.936 
L 347.328 416.256 
" clip-path="url(#p68b6b2a583)" style="fill: none; stroke-dasharray: 5.55,2.4; stroke-dashoffset: 0; stroke: #a9a9a9; stroke-width: 1.5"/>
   </g>
   <g id="line2d_24">
    <path d="M 133.056 510.336 
L 204.48 577.536 
" clip-path="url(#p68b6b2a583)" style="fill: none; stroke-dasharray: 5.55,2.4; stroke-dashoffset: 0; stroke: #a9a9a9; stroke-width: 1.5"/>
   </g>
   <g id="line2d_25">
    <path d="M 133.056 510.336 
L 275.904 577.536 
" clip-path="url(#p68b6b2a583)" style="fill: none; stroke-dasharray: 5.55,2.4; stroke-dashoffset: 0; stroke: #a9a9a9; stroke-width: 1.5"/>
   </g>
   <g id="line2d_26">
    <path d="M 133.056 510.336 
L 347.328 416.256 
" clip-path="url(#p68b6b2a583)" style="fill: none; stroke-dasharray: 5.55,2.4; stroke-dashoffset: 0; stroke: #a9a9a9; stroke-width: 1.5"/>
   </g>
   <g id="line2d_27">
    <path d="M 204.48 577.536 
L 150.912 590.976 
" clip-path="url(#p68b6b2a583)" style="fill: none; stroke-dasharray: 5.55,2.4; stroke-dashoffset: 0; stroke: #a9a9a9; stroke-width: 1.5"/>
   </g>
   <g id="PathCollection_1">
    <defs>
     <path id="me70abff763" d="M 0 -5 
L -5 5 
L 5 5 
z
" style="stroke: #2ca02c"/>
    </defs>
    <g clip-path="url(#p68b6b2a583)">
     <use xlink:href="#me70abff763" x="204.48" y="308.736" style="fill: #2ca02c; stroke: #2ca02c"/>
     <use xlink:href="#me70abff763" x="150.912" y="375.936" style="fill: #2ca02c; stroke: #2ca02c"/>
    </g>
   </g>
   <g id="PathCollection_2">
    <defs>
     <path id="me15ff621b9" d="M -2.5 5 
L 0 2.5 
L 2.5 5 
L 5 2.5 
L 2.5 0 
L 5 -2.5 
L 2.5 -5 
L 0 -2.5 
L -2.5 -5 
L -5 -2.5 
L -2.5 0 
L -5 2.5 
z
" style="stroke: #d62728"/>
    </defs>
    <g clip-path="url(#p68b6b2a583)">
     <use xlink:href="#me15ff621b9" x="195.552" y="241.536" style="fill: #d62728; stroke: #d62728"/>
     <use xlink:href="#me15ff621b9" x="383.04" y="308.736" style="fill: #d62728; stroke: #d62728"/>
     <use xlink:href="#me15ff621b9" x="686.592" y="375.936" style="fill: #d62728; stroke: #d62728"/>
     <use xlink:href="#me15ff621b9" x="275.904" y="308.736" style="fill: #d62728; stroke: #d62728"/>
     <use xlink:href="#me15ff621b9" x="204.48" y="443.136" style="fill: #d62728; stroke: #d62728"/>
     <use xlink:href="#me15ff621b9" x="141.984" y="308.736" style="fill: #d62728; stroke: #d62728"/>
     <use xlink:href="#me15ff621b9" x="120.5568" y="443.136" style="fill: #d62728; stroke: #d62728"/>
    </g>
   </g>
   <g id="PathCollection_3">
    <defs>
     <path id="m0da8c0ac72" d="M -0 7.071068 
L 7.071068 0 
L 0 -7.071068 
L -7.071068 -0 
z
" style="stroke: #9467bd"/>
    </defs>
    <g clip-path="url(#p68b6b2a583)">
     <use xlink:href="#m0da8c0ac72" x="124.128" y="241.536" style="fill: #9467bd; stroke: #9467bd"/>
     <use xlink:href="#m0da8c0ac72" x="347.328" y="416.256" style="fill: #9467bd; stroke: #9467bd"/>
     <use xlink:href="#m0da8c0ac72" x="133.056" y="510.336" style="fill: #9467bd; stroke: #9467bd"/>
     <use xlink:href="#m0da8c0ac72" x="275.904" y="577.536" style="fill: #9467bd; stroke: #9467bd"/>
     <use xlink:href="#m0da8c0ac72" x="204.48" y="577.536" style="fill: #9467bd; stroke: #9467bd"/>
     <use xlink:href="#m0da8c0ac72" x="150.912" y="590.976" style="fill: #9467bd; stroke: #9467bd"/>
    </g>
   </g>
   <g id="PathCollection_4">
    <defs>
     <path id="m15678d643d" d="M -5 5 
L 5 5 
L 5 -5 
L -5 -5 
z
" style="stroke: #8c564b"/>
    </defs>
    <g clip-path="url(#p68b6b2a583)">
     <use xlink:href="#m15678d643d" x="311.616" y="349.056" style="fill: #8c564b; stroke: #8c564b"/>
    </g>
   </g>
   <g id="PathCollection_5">
    <defs>
     <path id="ma4fd00d289" d="M 0 5 
C 1.326016 5 2.597899 4.473168 3.535534 3.535534 
C 4.473168 2.597899 5 1.326016 5 0 
C 5 -1.326016 4.473168 -2.597899 3.535534 -3.535534 
C 2.597899 -4.473168 1.326016 -5 0 -5 
C -1.326016 -5 -2.597899 -4.473168 -3.535534 -3.535534 
C -4.473168 -2.597899 -5 -1.326016 -5 0 
C -5 1.326016 -4.473168 2.597899 -3.535534 3.535534 
C -2.597899 4.473168 -1.326016 5 0 5 
z
" style="stroke: #000000"/>
    </defs>
    <g clip-path="url(#p68b6b2a583)">
     <use xlink:href="#ma4fd00d289" x="740.16" y="107.136" style="fill: #ffffff; stroke: #000000"/>
     <use xlink:href="#ma4fd00d289" x="561.6" y="120.576" style="fill: #ffffff; stroke: #000000"/>
     <use xlink:href="#ma4fd00d289" x="168.768" y="174.336" style="fill: #ffffff; stroke: #000000"/>
    </g>
   </g>
   <g id="matplotlib.axis_1">
    <g id="xtick_1">
     <g id="line2d_28">
      <defs>
       <path id="m7ed76254fa" d="M 0 0 
L 0 3.5 
" style="stroke: #000000; stroke-width: 0.8"/>
      </defs>
      <g>
       <use xlink:href="#m7ed76254fa" x="115.2" y="615.168" style="stroke: #000000; stroke-width: 0.8"/>
      </g>
     </g>
     <g id="text_1">
      <!-- Genesis -->
      <g transform="translate(115.2 631.286125)scale(0.12 -0.12)">
       <defs>
        <path id="DejaVuSans-Oblique-47" d="M 3494 697 
L 3738 1919 
L 2700 1919 
L 2797 2438 
L 4453 2438 
L 4050 384 
Q 3634 156 3143 32 
Q 2653 -91 2156 -91 
Q 1278 -91 783 396 
Q 288 884 288 1753 
Q 288 2475 589 3126 
Q 891 3778 1422 4213 
Q 1756 4484 2153 4617 
Q 2550 4750 3034 4750 
Q 3472 4750 3873 4639 
Q 4275 4528 4641 4306 
L 4513 3634 
Q 4231 3928 3853 4083 
Q 3475 4238 3047 4238 
Q 2550 4238 2172 4048 
Q 1794 3859 1497 3463 
Q 1244 3125 1098 2667 
Q 953 2209 953 1734 
Q 953 1081 1287 751 
Q 1622 422 2284 422 
Q 2616 422 2925 492 
Q 3234 563 3494 697 
z
" transform="scale(0.015625)"/>
        <path id="DejaVuSans-Oblique-65" d="M 3078 2063 
Q 3088 2113 3092 2166 
Q 3097 2219 3097 2272 
Q 3097 2653 2873 2875 
Q 2650 3097 2266 3097 
Q 1838 3097 1509 2826 
Q 1181 2556 1013 2059 
L 3078 2063 
z
M 3578 1613 
L 903 1613 
Q 884 1494 878 1425 
Q 872 1356 872 1306 
Q 872 872 1139 634 
Q 1406 397 1894 397 
Q 2269 397 2603 481 
Q 2938 566 3225 728 
L 3116 159 
Q 2806 34 2476 -28 
Q 2147 -91 1806 -91 
Q 1078 -91 686 257 
Q 294 606 294 1247 
Q 294 1794 489 2264 
Q 684 2734 1063 3103 
Q 1306 3334 1642 3459 
Q 1978 3584 2356 3584 
Q 2950 3584 3301 3228 
Q 3653 2872 3653 2272 
Q 3653 2128 3634 1964 
Q 3616 1800 3578 1613 
z
" transform="scale(0.015625)"/>
        <path id="DejaVuSans-Oblique-6e" d="M 3566 2113 
L 3156 0 
L 2578 0 
L 2988 2091 
Q 3016 2238 3031 2350 
Q 3047 2463 3047 2528 
Q 3047 2791 2881 2937 
Q 2716 3084 2419 3084 
Q 1956 3084 1622 2776 
Q 1288 2469 1184 1941 
L 800 0 
L 225 0 
L 903 3500 
L 1478 3500 
L 1363 2950 
Q 1603 3253 1940 3418 
Q 2278 3584 2650 3584 
Q 3113 3584 3367 3334 
Q 3622 3084 3622 2631 
Q 3622 2519 3608 2391 
Q 3594 2263 3566 2113 
z
" transform="scale(0.015625)"/>
        <path id="DejaVuSans-Oblique-73" d="M 3200 3397 
L 3091 2853 
Q 2863 2978 2609 3040 
Q 2356 3103 2088 3103 
Q 1634 3103 1373 2948 
Q 1113 2794 1113 2528 
Q 1113 2219 1719 2053 
Q 1766 2041 1788 2034 
L 1972 1978 
Q 2547 1819 2739 1644 
Q 2931 1469 2931 1166 
Q 2931 609 2489 259 
Q 2047 -91 1331 -91 
Q 1053 -91 747 -37 
Q 441 16 72 128 
L 184 722 
Q 500 559 806 475 
Q 1113 391 1394 391 
Q 1816 391 2080 572 
Q 2344 753 2344 1031 
Q 2344 1331 1650 1516 
L 1591 1531 
L 1394 1581 
Q 956 1697 753 1886 
Q 550 2075 550 2369 
Q 550 2928 970 3256 
Q 1391 3584 2113 3584 
Q 2397 3584 2667 3537 
Q 2938 3491 3200 3397 
z
" transform="scale(0.015625)"/>
        <path id="DejaVuSans-Oblique-69" d="M 1172 4863 
L 1747 4863 
L 1606 4134 
L 1031 4134 
L 1172 4863 
z
M 909 3500 
L 1484 3500 
L 800 0 
L 225 0 
L 909 3500 
z
" transform="scale(0.015625)"/>
       </defs>
       <use xlink:href="#DejaVuSans-Oblique-47"/>
       <use xlink:href="#DejaVuSans-Oblique-65" x="77.490234"/>
       <use xlink:href="#DejaVuSans-Oblique-6e" x="139.013672"/>
       <use xlink:href="#DejaVuSans-Oblique-65" x="202.392578"/>
       <use xlink:href="#DejaVuSans-Oblique-73" x="263.916016"/>
       <use xlink:href="#DejaVuSans-Oblique-69" x="316.015625"/>
       <use xlink:href="#DejaVuSans-Oblique-73" x="343.798828"/>
      </g>
     </g>
    </g>
    <g id="xtick_2">
     <g id="line2d_29">
      <g>
       <use xlink:href="#m7ed76254fa" x="293.76" y="615.168" style="stroke: #000000; stroke-width: 0.8"/>
      </g>
     </g>
     <g id="text_2">
      <!-- Custom Built -->
      <g transform="translate(293.76 631.286125)scale(0.12 -0.12)">
       <defs>
        <path id="DejaVuSans-Oblique-43" d="M 4447 4306 
L 4319 3641 
Q 4019 3944 3683 4091 
Q 3347 4238 2956 4238 
Q 2422 4238 2017 3981 
Q 1613 3725 1319 3200 
Q 1131 2863 1032 2486 
Q 934 2109 934 1728 
Q 934 1091 1264 756 
Q 1594 422 2222 422 
Q 2656 422 3056 561 
Q 3456 700 3834 978 
L 3688 231 
Q 3316 72 2936 -9 
Q 2556 -91 2175 -91 
Q 1278 -91 773 396 
Q 269 884 269 1753 
Q 269 2309 461 2846 
Q 653 3384 1013 3828 
Q 1394 4300 1883 4525 
Q 2372 4750 3022 4750 
Q 3422 4750 3780 4639 
Q 4138 4528 4447 4306 
z
" transform="scale(0.015625)"/>
        <path id="DejaVuSans-Oblique-75" d="M 428 1388 
L 838 3500 
L 1416 3500 
L 1006 1409 
Q 975 1256 961 1147 
Q 947 1038 947 966 
Q 947 700 1109 554 
Q 1272 409 1569 409 
Q 2031 409 2368 721 
Q 2706 1034 2809 1563 
L 3194 3500 
L 3769 3500 
L 3091 0 
L 2516 0 
L 2631 550 
Q 2388 244 2052 76 
Q 1716 -91 1338 -91 
Q 878 -91 622 161 
Q 366 413 366 863 
Q 366 956 381 1097 
Q 397 1238 428 1388 
z
" transform="scale(0.015625)"/>
        <path id="DejaVuSans-Oblique-74" d="M 2706 3500 
L 2619 3053 
L 1472 3053 
L 1100 1153 
Q 1081 1047 1072 975 
Q 1063 903 1063 863 
Q 1063 663 1183 572 
Q 1303 481 1569 481 
L 2150 481 
L 2053 0 
L 1503 0 
Q 991 0 739 200 
Q 488 400 488 806 
Q 488 878 497 964 
Q 506 1050 525 1153 
L 897 3053 
L 409 3053 
L 500 3500 
L 978 3500 
L 1172 4494 
L 1747 4494 
L 1556 3500 
L 2706 3500 
z
" transform="scale(0.015625)"/>
        <path id="DejaVuSans-Oblique-6f" d="M 1625 -91 
Q 1009 -91 651 289 
Q 294 669 294 1325 
Q 294 1706 417 2101 
Q 541 2497 738 2766 
Q 1047 3184 1428 3384 
Q 1809 3584 2291 3584 
Q 2888 3584 3255 3212 
Q 3622 2841 3622 2241 
Q 3622 1825 3500 1412 
Q 3378 1000 3181 728 
Q 2875 309 2494 109 
Q 2113 -91 1625 -91 
z
M 891 1344 
Q 891 869 1089 633 
Q 1288 397 1691 397 
Q 2269 397 2648 901 
Q 3028 1406 3028 2181 
Q 3028 2634 2825 2865 
Q 2622 3097 2228 3097 
Q 1903 3097 1650 2945 
Q 1397 2794 1197 2484 
Q 1050 2253 970 1956 
Q 891 1659 891 1344 
z
" transform="scale(0.015625)"/>
        <path id="DejaVuSans-Oblique-6d" d="M 5747 2113 
L 5338 0 
L 4763 0 
L 5166 2094 
Q 5191 2228 5203 2325 
Q 5216 2422 5216 2491 
Q 5216 2772 5059 2928 
Q 4903 3084 4622 3084 
Q 4203 3084 3875 2770 
Q 3547 2456 3450 1953 
L 3066 0 
L 2491 0 
L 2900 2094 
Q 2925 2209 2937 2307 
Q 2950 2406 2950 2484 
Q 2950 2769 2794 2926 
Q 2638 3084 2363 3084 
Q 1938 3084 1609 2770 
Q 1281 2456 1184 1953 
L 800 0 
L 225 0 
L 909 3500 
L 1484 3500 
L 1375 2956 
Q 1609 3263 1923 3423 
Q 2238 3584 2597 3584 
Q 2978 3584 3223 3384 
Q 3469 3184 3519 2828 
Q 3781 3197 4126 3390 
Q 4472 3584 4856 3584 
Q 5306 3584 5551 3325 
Q 5797 3066 5797 2591 
Q 5797 2488 5784 2364 
Q 5772 2241 5747 2113 
z
" transform="scale(0.015625)"/>
        <path id="DejaVuSans-Oblique-20" transform="scale(0.015625)"/>
        <path id="DejaVuSans-Oblique-42" d="M 1081 4666 
L 2694 4666 
Q 3350 4666 3675 4422 
Q 4000 4178 4000 3688 
Q 4000 3238 3720 2911 
Q 3441 2584 2988 2516 
Q 3375 2428 3569 2181 
Q 3763 1934 3763 1522 
Q 3763 819 3242 409 
Q 2722 0 1819 0 
L 172 0 
L 1081 4666 
z
M 1234 2228 
L 903 519 
L 1919 519 
Q 2491 519 2800 781 
Q 3109 1044 3109 1522 
Q 3109 1891 2904 2059 
Q 2700 2228 2247 2228 
L 1234 2228 
z
M 1606 4147 
L 1331 2741 
L 2272 2741 
Q 2775 2741 3058 2959 
Q 3341 3178 3341 3566 
Q 3341 3869 3150 4008 
Q 2959 4147 2541 4147 
L 1606 4147 
z
" transform="scale(0.015625)"/>
        <path id="DejaVuSans-Oblique-6c" d="M 1172 4863 
L 1747 4863 
L 800 0 
L 225 0 
L 1172 4863 
z
" transform="scale(0.015625)"/>
       </defs>
       <use xlink:href="#DejaVuSans-Oblique-43"/>
       <use xlink:href="#DejaVuSans-Oblique-75" x="69.824219"/>
       <use xlink:href="#DejaVuSans-Oblique-73" x="133.203125"/>
       <use xlink:href="#DejaVuSans-Oblique-74" x="185.302734"/>
       <use xlink:href="#DejaVuSans-Oblique-6f" x="224.511719"/>
       <use xlink:href="#DejaVuSans-Oblique-6d" x="285.693359"/>
       <use xlink:href="#DejaVuSans-Oblique-20" x="383.105469"/>
       <use xlink:href="#DejaVuSans-Oblique-42" x="414.892578"/>
       <use xlink:href="#DejaVuSans-Oblique-75" x="483.496094"/>
       <use xlink:href="#DejaVuSans-Oblique-69" x="546.875"/>
       <use xlink:href="#DejaVuSans-Oblique-6c" x="574.658203"/>
       <use xlink:href="#DejaVuSans-Oblique-74" x="602.441406"/>
      </g>
     </g>
    </g>
    <g id="xtick_3">
     <g id="line2d_30">
      <g>
       <use xlink:href="#m7ed76254fa" x="472.32" y="615.168" style="stroke: #000000; stroke-width: 0.8"/>
      </g>
     </g>
     <g id="text_3">
      <!-- Product (+ rental) -->
      <g transform="translate(472.32 631.286125)scale(0.12 -0.12)">
       <defs>
        <path id="DejaVuSans-Oblique-50" d="M 1081 4666 
L 2541 4666 
Q 3178 4666 3512 4369 
Q 3847 4072 3847 3500 
Q 3847 2731 3353 2303 
Q 2859 1875 1966 1875 
L 1172 1875 
L 806 0 
L 172 0 
L 1081 4666 
z
M 1613 4147 
L 1275 2394 
L 2069 2394 
Q 2606 2394 2893 2669 
Q 3181 2944 3181 3456 
Q 3181 3784 2986 3965 
Q 2791 4147 2438 4147 
L 1613 4147 
z
" transform="scale(0.015625)"/>
        <path id="DejaVuSans-Oblique-72" d="M 2853 2969 
Q 2766 3016 2653 3041 
Q 2541 3066 2413 3066 
Q 1953 3066 1609 2717 
Q 1266 2369 1153 1784 
L 800 0 
L 225 0 
L 909 3500 
L 1484 3500 
L 1375 2956 
Q 1603 3259 1920 3421 
Q 2238 3584 2597 3584 
Q 2691 3584 2781 3573 
Q 2872 3563 2963 3538 
L 2853 2969 
z
" transform="scale(0.015625)"/>
        <path id="DejaVuSans-Oblique-64" d="M 2675 525 
Q 2444 222 2128 65 
Q 1813 -91 1428 -91 
Q 903 -91 598 267 
Q 294 625 294 1247 
Q 294 1766 478 2236 
Q 663 2706 1013 3078 
Q 1244 3325 1534 3454 
Q 1825 3584 2144 3584 
Q 2481 3584 2739 3421 
Q 2997 3259 3138 2956 
L 3513 4863 
L 4091 4863 
L 3144 0 
L 2566 0 
L 2675 525 
z
M 891 1350 
Q 891 897 1095 644 
Q 1300 391 1663 391 
Q 1931 391 2161 520 
Q 2391 650 2566 903 
Q 2750 1166 2856 1509 
Q 2963 1853 2963 2188 
Q 2963 2622 2758 2865 
Q 2553 3109 2194 3109 
Q 1922 3109 1687 2981 
Q 1453 2853 1288 2613 
Q 1106 2353 998 2009 
Q 891 1666 891 1350 
z
" transform="scale(0.015625)"/>
        <path id="DejaVuSans-Oblique-63" d="M 3431 3366 
L 3316 2797 
Q 3109 2947 2876 3022 
Q 2644 3097 2394 3097 
Q 2119 3097 1870 3000 
Q 1622 2903 1453 2725 
Q 1184 2453 1037 2087 
Q 891 1722 891 1331 
Q 891 859 1127 628 
Q 1363 397 1844 397 
Q 2081 397 2348 469 
Q 2616 541 2906 684 
L 2797 116 
Q 2547 13 2283 -39 
Q 2019 -91 1741 -91 
Q 1044 -91 669 257 
Q 294 606 294 1253 
Q 294 1797 489 2255 
Q 684 2713 1069 3078 
Q 1331 3328 1684 3456 
Q 2038 3584 2456 3584 
Q 2700 3584 2940 3529 
Q 3181 3475 3431 3366 
z
" transform="scale(0.015625)"/>
        <path id="DejaVuSans-Oblique-28" d="M 2731 4856 
Q 1903 3822 1495 2892 
Q 1088 1963 1088 1100 
Q 1088 606 1206 120 
Q 1325 -366 1563 -844 
L 1063 -844 
Q 775 -306 634 201 
Q 494 709 494 1197 
Q 494 2125 923 3036 
Q 1353 3947 2222 4856 
L 2731 4856 
z
" transform="scale(0.015625)"/>
        <path id="DejaVuSans-Oblique-2b" d="M 2944 4013 
L 2944 2272 
L 4684 2272 
L 4684 1741 
L 2944 1741 
L 2944 0 
L 2419 0 
L 2419 1741 
L 678 1741 
L 678 2272 
L 2419 2272 
L 2419 4013 
L 2944 4013 
z
" transform="scale(0.015625)"/>
        <path id="DejaVuSans-Oblique-61" d="M 3438 1997 
L 3047 0 
L 2472 0 
L 2578 531 
Q 2325 219 2001 64 
Q 1678 -91 1281 -91 
Q 834 -91 548 182 
Q 263 456 263 884 
Q 263 1497 752 1853 
Q 1241 2209 2100 2209 
L 2900 2209 
L 2931 2363 
Q 2938 2388 2941 2417 
Q 2944 2447 2944 2509 
Q 2944 2788 2717 2942 
Q 2491 3097 2081 3097 
Q 1800 3097 1504 3025 
Q 1209 2953 897 2809 
L 997 3341 
Q 1322 3463 1633 3523 
Q 1944 3584 2234 3584 
Q 2853 3584 3176 3315 
Q 3500 3047 3500 2534 
Q 3500 2431 3484 2292 
Q 3469 2153 3438 1997 
z
M 2816 1759 
L 2241 1759 
Q 1534 1759 1195 1570 
Q 856 1381 856 984 
Q 856 709 1029 553 
Q 1203 397 1509 397 
Q 1978 397 2328 733 
Q 2678 1069 2791 1631 
L 2816 1759 
z
" transform="scale(0.015625)"/>
        <path id="DejaVuSans-Oblique-29" d="M -397 -844 
Q 434 191 840 1120 
Q 1247 2050 1247 2913 
Q 1247 3406 1130 3892 
Q 1013 4378 775 4856 
L 1275 4856 
Q 1563 4316 1703 3812 
Q 1844 3309 1844 2822 
Q 1844 1891 1411 973 
Q 978 56 116 -844 
L -397 -844 
z
" transform="scale(0.015625)"/>
       </defs>
       <use xlink:href="#DejaVuSans-Oblique-50"/>
       <use xlink:href="#DejaVuSans-Oblique-72" x="60.302734"/>
       <use xlink:href="#DejaVuSans-Oblique-6f" x="101.416016"/>
       <use xlink:href="#DejaVuSans-Oblique-64" x="162.597656"/>
       <use xlink:href="#DejaVuSans-Oblique-75" x="226.074219"/>
       <use xlink:href="#DejaVuSans-Oblique-63" x="289.453125"/>
       <use xlink:href="#DejaVuSans-Oblique-74" x="344.433594"/>
       <use xlink:href="#DejaVuSans-Oblique-20" x="383.642578"/>
       <use xlink:href="#DejaVuSans-Oblique-28" x="415.429688"/>
       <use xlink:href="#DejaVuSans-Oblique-2b" x="454.443359"/>
       <use xlink:href="#DejaVuSans-Oblique-20" x="538.232422"/>
       <use xlink:href="#DejaVuSans-Oblique-72" x="570.019531"/>
       <use xlink:href="#DejaVuSans-Oblique-65" x="611.132812"/>
       <use xlink:href="#DejaVuSans-Oblique-6e" x="672.65625"/>
       <use xlink:href="#DejaVuSans-Oblique-74" x="736.035156"/>
       <use xlink:href="#DejaVuSans-Oblique-61" x="775.244141"/>
       <use xlink:href="#DejaVuSans-Oblique-6c" x="836.523438"/>
       <use xlink:href="#DejaVuSans-Oblique-29" x="864.306641"/>
      </g>
     </g>
    </g>
    <g id="xtick_4">
     <g id="line2d_31">
      <g>
       <use xlink:href="#m7ed76254fa" x="650.88" y="615.168" style="stroke: #000000; stroke-width: 0.8"/>
      </g>
     </g>
     <g id="text_4">
      <!-- Commodity (+ utility) -->
      <g transform="translate(650.88 631.286125)scale(0.12 -0.12)">
       <defs>
        <path id="DejaVuSans-Oblique-79" d="M 1588 -325 
Q 1188 -997 936 -1164 
Q 684 -1331 294 -1331 
L -159 -1331 
L -63 -850 
L 269 -850 
Q 509 -850 678 -719 
Q 847 -588 1056 -206 
L 1234 128 
L 459 3500 
L 1069 3500 
L 1650 819 
L 3256 3500 
L 3859 3500 
L 1588 -325 
z
" transform="scale(0.015625)"/>
       </defs>
       <use xlink:href="#DejaVuSans-Oblique-43"/>
       <use xlink:href="#DejaVuSans-Oblique-6f" x="69.824219"/>
       <use xlink:href="#DejaVuSans-Oblique-6d" x="131.005859"/>
       <use xlink:href="#DejaVuSans-Oblique-6d" x="228.417969"/>
       <use xlink:href="#DejaVuSans-Oblique-6f" x="325.830078"/>
       <use xlink:href="#DejaVuSans-Oblique-64" x="387.011719"/>
       <use xlink:href="#DejaVuSans-Oblique-69" x="450.488281"/>
       <use xlink:href="#DejaVuSans-Oblique-74" x="478.271484"/>
       <use xlink:href="#DejaVuSans-Oblique-79" x="517.480469"/>
       <use xlink:href="#DejaVuSans-Oblique-20" x="576.660156"/>
       <use xlink:href="#DejaVuSans-Oblique-28" x="608.447266"/>
       <use xlink:href="#DejaVuSans-Oblique-2b" x="647.460938"/>
       <use xlink:href="#DejaVuSans-Oblique-20" x="731.25"/>
       <use xlink:href="#DejaVuSans-Oblique-75" x="763.037109"/>
       <use xlink:href="#DejaVuSans-Oblique-74" x="826.416016"/>
       <use xlink:href="#DejaVuSans-Oblique-69" x="865.625"/>
       <use xlink:href="#DejaVuSans-Oblique-6c" x="893.408203"/>
       <use xlink:href="#DejaVuSans-Oblique-69" x="921.191406"/>
       <use xlink:href="#DejaVuSans-Oblique-74" x="948.974609"/>
       <use xlink:href="#DejaVuSans-Oblique-79" x="988.183594"/>
       <use xlink:href="#DejaVuSans-Oblique-29" x="1047.363281"/>
      </g>
     </g>
    </g>
    <g id="text_5">
     <!-- Evolution -->
     <g transform="translate(435.245156 648.419562)scale(0.14 -0.14)">
      <defs>
       <path id="DejaVuSans-Bold-45" d="M 588 4666 
L 3834 4666 
L 3834 3756 
L 1791 3756 
L 1791 2888 
L 3713 2888 
L 3713 1978 
L 1791 1978 
L 1791 909 
L 3903 909 
L 3903 0 
L 588 0 
L 588 4666 
z
" transform="scale(0.015625)"/>
       <path id="DejaVuSans-Bold-76" d="M 97 3500 
L 1216 3500 
L 2088 1081 
L 2956 3500 
L 4078 3500 
L 2700 0 
L 1472 0 
L 97 3500 
z
" transform="scale(0.015625)"/>
       <path id="DejaVuSans-Bold-6f" d="M 2203 2784 
Q 1831 2784 1636 2517 
Q 1441 2250 1441 1747 
Q 1441 1244 1636 976 
Q 1831 709 2203 709 
Q 2569 709 2762 976 
Q 2956 1244 2956 1747 
Q 2956 2250 2762 2517 
Q 2569 2784 2203 2784 
z
M 2203 3584 
Q 3106 3584 3614 3096 
Q 4122 2609 4122 1747 
Q 4122 884 3614 396 
Q 3106 -91 2203 -91 
Q 1297 -91 786 396 
Q 275 884 275 1747 
Q 275 2609 786 3096 
Q 1297 3584 2203 3584 
z
" transform="scale(0.015625)"/>
       <path id="DejaVuSans-Bold-6c" d="M 538 4863 
L 1656 4863 
L 1656 0 
L 538 0 
L 538 4863 
z
" transform="scale(0.015625)"/>
       <path id="DejaVuSans-Bold-75" d="M 500 1363 
L 500 3500 
L 1625 3500 
L 1625 3150 
Q 1625 2866 1622 2436 
Q 1619 2006 1619 1863 
Q 1619 1441 1641 1255 
Q 1663 1069 1716 984 
Q 1784 875 1895 815 
Q 2006 756 2150 756 
Q 2500 756 2700 1025 
Q 2900 1294 2900 1772 
L 2900 3500 
L 4019 3500 
L 4019 0 
L 2900 0 
L 2900 506 
Q 2647 200 2364 54 
Q 2081 -91 1741 -91 
Q 1134 -91 817 281 
Q 500 653 500 1363 
z
" transform="scale(0.015625)"/>
       <path id="DejaVuSans-Bold-74" d="M 1759 4494 
L 1759 3500 
L 2913 3500 
L 2913 2700 
L 1759 2700 
L 1759 1216 
Q 1759 972 1856 886 
Q 1953 800 2241 800 
L 2816 800 
L 2816 0 
L 1856 0 
Q 1194 0 917 276 
Q 641 553 641 1216 
L 641 2700 
L 84 2700 
L 84 3500 
L 641 3500 
L 641 4494 
L 1759 4494 
z
" transform="scale(0.015625)"/>
       <path id="DejaVuSans-Bold-69" d="M 538 3500 
L 1656 3500 
L 1656 0 
L 538 0 
L 538 3500 
z
M 538 4863 
L 1656 4863 
L 1656 3950 
L 538 3950 
L 538 4863 
z
" transform="scale(0.015625)"/>
       <path id="DejaVuSans-Bold-6e" d="M 4056 2131 
L 4056 0 
L 2931 0 
L 2931 347 
L 2931 1631 
Q 2931 2084 2911 2256 
Q 2891 2428 2841 2509 
Q 2775 2619 2662 2680 
Q 2550 2741 2406 2741 
Q 2056 2741 1856 2470 
Q 1656 2200 1656 1722 
L 1656 0 
L 538 0 
L 538 3500 
L 1656 3500 
L 1656 2988 
Q 1909 3294 2193 3439 
Q 2478 3584 2822 3584 
Q 3428 3584 3742 3212 
Q 4056 2841 4056 2131 
z
" transform="scale(0.015625)"/>
      </defs>
      <use xlink:href="#DejaVuSans-Bold-45"/>
      <use xlink:href="#DejaVuSans-Bold-76" x="68.310547"/>
      <use xlink:href="#DejaVuSans-Bold-6f" x="133.496094"/>
      <use xlink:href="#DejaVuSans-Bold-6c" x="202.197266"/>
      <use xlink:href="#DejaVuSans-Bold-75" x="236.474609"/>
      <use xlink:href="#DejaVuSans-Bold-74" x="307.666016"/>
      <use xlink:href="#DejaVuSans-Bold-69" x="355.46875"/>
      <use xlink:href="#DejaVuSans-Bold-6f" x="389.746094"/>
      <use xlink:href="#DejaVuSans-Bold-6e" x="458.447266"/>
     </g>
    </g>
   </g>
   <g id="matplotlib.axis_2">
    <g id="ytick_1">
     <g id="line2d_32">
      <defs>
       <path id="mee88bd179b" d="M 0 0 
L -3.5 0 
" style="stroke: #000000; stroke-width: 0.8"/>
      </defs>
      <g>
       <use xlink:href="#mee88bd179b" x="115.2" y="615.168" style="stroke: #000000; stroke-width: 0.8"/>
      </g>
     </g>
     <g id="text_6">
      <!-- Invisible -->
      <g transform="translate(105.704375 615.168)rotate(-90)scale(0.12 -0.12)">
       <defs>
        <path id="DejaVuSans-Oblique-49" d="M 1081 4666 
L 1716 4666 
L 806 0 
L 172 0 
L 1081 4666 
z
" transform="scale(0.015625)"/>
        <path id="DejaVuSans-Oblique-76" d="M 459 3500 
L 1069 3500 
L 1581 525 
L 3256 3500 
L 3866 3500 
L 1875 0 
L 1100 0 
L 459 3500 
z
" transform="scale(0.015625)"/>
        <path id="DejaVuSans-Oblique-62" d="M 3169 2138 
Q 3169 2591 2961 2847 
Q 2753 3103 2388 3103 
Q 2122 3103 1889 2973 
Q 1656 2844 1484 2597 
Q 1303 2338 1198 1995 
Q 1094 1653 1094 1313 
Q 1094 881 1298 636 
Q 1503 391 1863 391 
Q 2134 391 2365 517 
Q 2597 644 2772 891 
Q 2950 1147 3059 1487 
Q 3169 1828 3169 2138 
z
M 1381 2969 
Q 1594 3256 1914 3420 
Q 2234 3584 2584 3584 
Q 3122 3584 3439 3221 
Q 3756 2859 3756 2241 
Q 3756 1734 3570 1259 
Q 3384 784 3041 416 
Q 2816 172 2522 40 
Q 2228 -91 1906 -91 
Q 1566 -91 1316 65 
Q 1066 222 909 531 
L 806 0 
L 231 0 
L 1178 4863 
L 1753 4863 
L 1381 2969 
z
" transform="scale(0.015625)"/>
       </defs>
       <use xlink:href="#DejaVuSans-Oblique-49"/>
       <use xlink:href="#DejaVuSans-Oblique-6e" x="29.492188"/>
       <use xlink:href="#DejaVuSans-Oblique-76" x="92.871094"/>
       <use xlink:href="#DejaVuSans-Oblique-69" x="152.050781"/>
       <use xlink:href="#DejaVuSans-Oblique-73" x="179.833984"/>
       <use xlink:href="#DejaVuSans-Oblique-69" x="231.933594"/>
       <use xlink:href="#DejaVuSans-Oblique-62" x="259.716797"/>
       <use xlink:href="#DejaVuSans-Oblique-6c" x="323.193359"/>
       <use xlink:href="#DejaVuSans-Oblique-65" x="350.976562"/>
      </g>
     </g>
    </g>
    <g id="ytick_2">
     <g id="line2d_33">
      <g>
       <use xlink:href="#mee88bd179b" x="115.2" y="131.328" style="stroke: #000000; stroke-width: 0.8"/>
      </g>
     </g>
     <g id="text_7">
      <!-- Visible -->
      <g transform="translate(105.704375 131.328)rotate(-90)scale(0.12 -0.12)">
       <defs>
        <path id="DejaVuSans-Oblique-56" d="M 1319 0 
L 500 4666 
L 1119 4666 
L 1797 653 
L 4063 4666 
L 4750 4666 
L 2053 0 
L 1319 0 
z
" transform="scale(0.015625)"/>
       </defs>
       <use xlink:href="#DejaVuSans-Oblique-56"/>
       <use xlink:href="#DejaVuSans-Oblique-69" x="68.408203"/>
       <use xlink:href="#DejaVuSans-Oblique-73" x="96.191406"/>
       <use xlink:href="#DejaVuSans-Oblique-69" x="148.291016"/>
       <use xlink:href="#DejaVuSans-Oblique-62" x="176.074219"/>
       <use xlink:href="#DejaVuSans-Oblique-6c" x="239.550781"/>
       <use xlink:href="#DejaVuSans-Oblique-65" x="267.333984"/>
      </g>
     </g>
    </g>
    <g id="text_8">
     <!-- Value Chain -->
     <g transform="translate(89.674688 395.607094)rotate(-90)scale(0.14 -0.14)">
      <defs>
       <path id="DejaVuSans-Bold-56" d="M 31 4666 
L 1241 4666 
L 2478 1222 
L 3713 4666 
L 4922 4666 
L 3194 0 
L 1759 0 
L 31 4666 
z
" transform="scale(0.015625)"/>
       <path id="DejaVuSans-Bold-61" d="M 2106 1575 
Q 1756 1575 1579 1456 
Q 1403 1338 1403 1106 
Q 1403 894 1545 773 
Q 1688 653 1941 653 
Q 2256 653 2472 879 
Q 2688 1106 2688 1447 
L 2688 1575 
L 2106 1575 
z
M 3816 1997 
L 3816 0 
L 2688 0 
L 2688 519 
Q 2463 200 2181 54 
Q 1900 -91 1497 -91 
Q 953 -91 614 226 
Q 275 544 275 1050 
Q 275 1666 698 1953 
Q 1122 2241 2028 2241 
L 2688 2241 
L 2688 2328 
Q 2688 2594 2478 2717 
Q 2269 2841 1825 2841 
Q 1466 2841 1156 2769 
Q 847 2697 581 2553 
L 581 3406 
Q 941 3494 1303 3539 
Q 1666 3584 2028 3584 
Q 2975 3584 3395 3211 
Q 3816 2838 3816 1997 
z
" transform="scale(0.015625)"/>
       <path id="DejaVuSans-Bold-65" d="M 4031 1759 
L 4031 1441 
L 1416 1441 
Q 1456 1047 1700 850 
Q 1944 653 2381 653 
Q 2734 653 3104 758 
Q 3475 863 3866 1075 
L 3866 213 
Q 3469 63 3072 -14 
Q 2675 -91 2278 -91 
Q 1328 -91 801 392 
Q 275 875 275 1747 
Q 275 2603 792 3093 
Q 1309 3584 2216 3584 
Q 3041 3584 3536 3087 
Q 4031 2591 4031 1759 
z
M 2881 2131 
Q 2881 2450 2695 2645 
Q 2509 2841 2209 2841 
Q 1884 2841 1681 2658 
Q 1478 2475 1428 2131 
L 2881 2131 
z
" transform="scale(0.015625)"/>
       <path id="DejaVuSans-Bold-20" transform="scale(0.015625)"/>
       <path id="DejaVuSans-Bold-43" d="M 4288 256 
Q 3956 84 3597 -3 
Q 3238 -91 2847 -91 
Q 1681 -91 1000 561 
Q 319 1213 319 2328 
Q 319 3447 1000 4098 
Q 1681 4750 2847 4750 
Q 3238 4750 3597 4662 
Q 3956 4575 4288 4403 
L 4288 3438 
Q 3953 3666 3628 3772 
Q 3303 3878 2944 3878 
Q 2300 3878 1931 3465 
Q 1563 3053 1563 2328 
Q 1563 1606 1931 1193 
Q 2300 781 2944 781 
Q 3303 781 3628 887 
Q 3953 994 4288 1222 
L 4288 256 
z
" transform="scale(0.015625)"/>
       <path id="DejaVuSans-Bold-68" d="M 4056 2131 
L 4056 0 
L 2931 0 
L 2931 347 
L 2931 1625 
Q 2931 2084 2911 2256 
Q 2891 2428 2841 2509 
Q 2775 2619 2662 2680 
Q 2550 2741 2406 2741 
Q 2056 2741 1856 2470 
Q 1656 2200 1656 1722 
L 1656 0 
L 538 0 
L 538 4863 
L 1656 4863 
L 1656 2988 
Q 1909 3294 2193 3439 
Q 2478 3584 2822 3584 
Q 3428 3584 3742 3212 
Q 4056 2841 4056 2131 
z
" transform="scale(0.015625)"/>
      </defs>
      <use xlink:href="#DejaVuSans-Bold-56"/>
      <use xlink:href="#DejaVuSans-Bold-61" x="71.892578"/>
      <use xlink:href="#DejaVuSans-Bold-6c" x="139.373047"/>
      <use xlink:href="#DejaVuSans-Bold-75" x="173.650391"/>
      <use xlink:href="#DejaVuSans-Bold-65" x="244.841797"/>
      <use xlink:href="#DejaVuSans-Bold-20" x="312.664062"/>
      <use xlink:href="#DejaVuSans-Bold-43" x="347.478516"/>
      <use xlink:href="#DejaVuSans-Bold-68" x="420.867188"/>
      <use xlink:href="#DejaVuSans-Bold-61" x="492.058594"/>
      <use xlink:href="#DejaVuSans-Bold-69" x="559.539062"/>
      <use xlink:href="#DejaVuSans-Bold-6e" x="593.816406"/>
     </g>
    </g>
   </g>
   <g id="line2d_34">
    <defs>
     <path id="m086a7dad2e" d="M 3 0 
L -3 -3 
L -3 3 
z
" style="stroke: #000000; stroke-linejoin: miter"/>
    </defs>
    <g>
     <use xlink:href="#m086a7dad2e" x="829.44" y="615.168" style="stroke: #000000; stroke-linejoin: miter"/>
    </g>
   </g>
   <g id="line2d_35">
    <defs>
     <path id="m08b51dad3d" d="M 0 -3 
L -3 3 
L 3 3 
z
" style="stroke: #000000; stroke-linejoin: miter"/>
    </defs>
    <g>
     <use xlink:href="#m08b51dad3d" x="115.2" y="82.944" style="stroke: #000000; stroke-linejoin: miter"/>
    </g>
   </g>
   <g id="line2d_36">
    <path d="M 275.904 308.736 
L 311.616 308.736 
" clip-path="url(#p68b6b2a583)" style="fill: none; stroke-dasharray: 1.5,2.475; stroke-dashoffset: 0; stroke: #ff7f0e; stroke-width: 1.5"/>
    <defs>
     <path id="m6774a03ed6" d="M 3 0 
L -3 -3 
L -3 3 
z
" style="stroke: #ff7f0e; stroke-linejoin: miter"/>
    </defs>
    <g clip-path="url(#p68b6b2a583)">
     <use xlink:href="#m6774a03ed6" x="311.616" y="308.736" style="fill: #ff7f0e; stroke: #ff7f0e; stroke-linejoin: miter"/>
    </g>
   </g>
   <g id="line2d_37">
    <path d="M 311.616 349.056 
L 418.752 349.056 
" clip-path="url(#p68b6b2a583)" style="fill: none; stroke-dasharray: 1.5,2.475; stroke-dashoffset: 0; stroke: #ff7f0e; stroke-width: 1.5"/>
    <g clip-path="url(#p68b6b2a583)">
     <use xlink:href="#m6774a03ed6" x="418.752" y="349.056" style="fill: #ff7f0e; stroke: #ff7f0e; stroke-linejoin: miter"/>
    </g>
   </g>
   <g id="line2d_38">
    <path d="M 204.48 443.136 
L 222.336 443.136 
" clip-path="url(#p68b6b2a583)" style="fill: none; stroke-dasharray: 1.5,2.475; stroke-dashoffset: 0; stroke: #ff7f0e; stroke-width: 1.5"/>
    <g clip-path="url(#p68b6b2a583)">
     <use xlink:href="#m6774a03ed6" x="222.336" y="443.136" style="fill: #ff7f0e; stroke: #ff7f0e; stroke-linejoin: miter"/>
    </g>
   </g>
   <g id="line2d_39">
    <path d="M 141.984 308.736 
L 154.4832 308.736 
" clip-path="url(#p68b6b2a583)" style="fill: none; stroke-dasharray: 1.5,2.475; stroke-dashoffset: 0; stroke: #ff7f0e; stroke-width: 1.5"/>
    <g clip-path="url(#p68b6b2a583)">
     <use xlink:href="#m6774a03ed6" x="154.4832" y="308.736" style="fill: #ff7f0e; stroke: #ff7f0e; stroke-linejoin: miter"/>
    </g>
   </g>
   <g id="line2d_40">
    <path d="M 204.48 308.736 
L 240.192 308.736 
" clip-path="url(#p68b6b2a583)" style="fill: none; stroke-dasharray: 1.5,2.475; stroke-dashoffset: 0; stroke: #ff7f0e; stroke-width: 1.5"/>
    <g clip-path="url(#p68b6b2a583)">
     <use xlink:href="#m6774a03ed6" x="240.192" y="308.736" style="fill: #ff7f0e; stroke: #ff7f0e; stroke-linejoin: miter"/>
    </g>
   </g>
   <g id="line2d_41">
    <path d="M 204.48 577.536 
L 222.336 577.536 
" clip-path="url(#p68b6b2a583)" style="fill: none; stroke-dasharray: 1.5,2.475; stroke-dashoffset: 0; stroke: #ff7f0e; stroke-width: 1.5"/>
    <g clip-path="url(#p68b6b2a583)">
     <use xlink:href="#m6774a03ed6" x="222.336" y="577.536" style="fill: #ff7f0e; stroke: #ff7f0e; stroke-linejoin: miter"/>
    </g>
   </g>
   <g id="patch_3">
    <path d="M 115.2 615.168 
L 115.2 82.944 
" style="fill: none; stroke: #000000; stroke-width: 0.8; stroke-linejoin: miter; stroke-linecap: square"/>
   </g>
   <g id="patch_4">
    <path d="M 115.2 615.168 
L 829.44 615.168 
" style="fill: none; stroke: #000000; stroke-width: 0.8; stroke-linejoin: miter; stroke-linecap: square"/>
   </g>
   <g id="text_9">
    <!-- Power -->
    <g transform="translate(740.16 93.3859)scale(0.14 -0.14)">
     <defs>
      <path id="DejaVuSans-50" d="M 1259 4147 
L 1259 2394 
L 2053 2394 
Q 2494 2394 2734 2622 
Q 2975 2850 2975 3272 
Q 2975 3691 2734 3919 
Q 2494 4147 2053 4147 
L 1259 4147 
z
M 628 4666 
L 2053 4666 
Q 2838 4666 3239 4311 
Q 3641 3956 3641 3272 
Q 3641 2581 3239 2228 
Q 2838 1875 2053 1875 
L 1259 1875 
L 1259 0 
L 628 0 
L 628 4666 
z
" transform="scale(0.015625)"/>
      <path id="DejaVuSans-6f" d="M 1959 3097 
Q 1497 3097 1228 2736 
Q 959 2375 959 1747 
Q 959 1119 1226 758 
Q 1494 397 1959 397 
Q 2419 397 2687 759 
Q 2956 1122 2956 1747 
Q 2956 2369 2687 2733 
Q 2419 3097 1959 3097 
z
M 1959 3584 
Q 2709 3584 3137 3096 
Q 3566 2609 3566 1747 
Q 3566 888 3137 398 
Q 2709 -91 1959 -91 
Q 1206 -91 779 398 
Q 353 888 353 1747 
Q 353 2609 779 3096 
Q 1206 3584 1959 3584 
z
" transform="scale(0.015625)"/>
      <path id="DejaVuSans-77" d="M 269 3500 
L 844 3500 
L 1563 769 
L 2278 3500 
L 2956 3500 
L 3675 769 
L 4391 3500 
L 4966 3500 
L 4050 0 
L 3372 0 
L 2619 2869 
L 1863 0 
L 1184 0 
L 269 3500 
z
" transform="scale(0.015625)"/>
      <path id="DejaVuSans-65" d="M 3597 1894 
L 3597 1613 
L 953 1613 
Q 991 1019 1311 708 
Q 1631 397 2203 397 
Q 2534 397 2845 478 
Q 3156 559 3463 722 
L 3463 178 
Q 3153 47 2828 -22 
Q 2503 -91 2169 -91 
Q 1331 -91 842 396 
Q 353 884 353 1716 
Q 353 2575 817 3079 
Q 1281 3584 2069 3584 
Q 2775 3584 3186 3129 
Q 3597 2675 3597 1894 
z
M 3022 2063 
Q 3016 2534 2758 2815 
Q 2500 3097 2075 3097 
Q 1594 3097 1305 2825 
Q 1016 2553 972 2059 
L 3022 2063 
z
" transform="scale(0.015625)"/>
      <path id="DejaVuSans-72" d="M 2631 2963 
Q 2534 3019 2420 3045 
Q 2306 3072 2169 3072 
Q 1681 3072 1420 2755 
Q 1159 2438 1159 1844 
L 1159 0 
L 581 0 
L 581 3500 
L 1159 3500 
L 1159 2956 
Q 1341 3275 1631 3429 
Q 1922 3584 2338 3584 
Q 2397 3584 2469 3576 
Q 2541 3569 2628 3553 
L 2631 2963 
z
" transform="scale(0.015625)"/>
     </defs>
     <use xlink:href="#DejaVuSans-50"/>
     <use xlink:href="#DejaVuSans-6f" x="56.677734"/>
     <use xlink:href="#DejaVuSans-77" x="117.859375"/>
     <use xlink:href="#DejaVuSans-65" x="199.646484"/>
     <use xlink:href="#DejaVuSans-72" x="261.169922"/>
    </g>
    <!-- grid -->
    <g transform="translate(740.16 109.062838)scale(0.14 -0.14)">
     <defs>
      <path id="DejaVuSans-67" d="M 2906 1791 
Q 2906 2416 2648 2759 
Q 2391 3103 1925 3103 
Q 1463 3103 1205 2759 
Q 947 2416 947 1791 
Q 947 1169 1205 825 
Q 1463 481 1925 481 
Q 2391 481 2648 825 
Q 2906 1169 2906 1791 
z
M 3481 434 
Q 3481 -459 3084 -895 
Q 2688 -1331 1869 -1331 
Q 1566 -1331 1297 -1286 
Q 1028 -1241 775 -1147 
L 775 -588 
Q 1028 -725 1275 -790 
Q 1522 -856 1778 -856 
Q 2344 -856 2625 -561 
Q 2906 -266 2906 331 
L 2906 616 
Q 2728 306 2450 153 
Q 2172 0 1784 0 
Q 1141 0 747 490 
Q 353 981 353 1791 
Q 353 2603 747 3093 
Q 1141 3584 1784 3584 
Q 2172 3584 2450 3431 
Q 2728 3278 2906 2969 
L 2906 3500 
L 3481 3500 
L 3481 434 
z
" transform="scale(0.015625)"/>
      <path id="DejaVuSans-69" d="M 603 3500 
L 1178 3500 
L 1178 0 
L 603 0 
L 603 3500 
z
M 603 4863 
L 1178 4863 
L 1178 4134 
L 603 4134 
L 603 4863 
z
" transform="scale(0.015625)"/>
      <path id="DejaVuSans-64" d="M 2906 2969 
L 2906 4863 
L 3481 4863 
L 3481 0 
L 2906 0 
L 2906 525 
Q 2725 213 2448 61 
Q 2172 -91 1784 -91 
Q 1150 -91 751 415 
Q 353 922 353 1747 
Q 353 2572 751 3078 
Q 1150 3584 1784 3584 
Q 2172 3584 2448 3432 
Q 2725 3281 2906 2969 
z
M 947 1747 
Q 947 1113 1208 752 
Q 1469 391 1925 391 
Q 2381 391 2643 752 
Q 2906 1113 2906 1747 
Q 2906 2381 2643 2742 
Q 2381 3103 1925 3103 
Q 1469 3103 1208 2742 
Q 947 2381 947 1747 
z
" transform="scale(0.015625)"/>
     </defs>
     <use xlink:href="#DejaVuSans-67"/>
     <use xlink:href="#DejaVuSans-72" x="63.476562"/>
     <use xlink:href="#DejaVuSans-69" x="104.589844"/>
     <use xlink:href="#DejaVuSans-64" x="132.373047"/>
    </g>
   </g>
   <g id="text_10">
    <!-- Turbine -->
    <g transform="translate(561.6 122.502838)scale(0.14 -0.14)">
     <defs>
      <path id="DejaVuSans-54" d="M -19 4666 
L 3928 4666 
L 3928 4134 
L 2272 4134 
L 2272 0 
L 1638 0 
L 1638 4134 
L -19 4134 
L -19 4666 
z
" transform="scale(0.015625)"/>
      <path id="DejaVuSans-75" d="M 544 1381 
L 544 3500 
L 1119 3500 
L 1119 1403 
Q 1119 906 1312 657 
Q 1506 409 1894 409 
Q 2359 409 2629 706 
Q 2900 1003 2900 1516 
L 2900 3500 
L 3475 3500 
L 3475 0 
L 2900 0 
L 2900 538 
Q 2691 219 2414 64 
Q 2138 -91 1772 -91 
Q 1169 -91 856 284 
Q 544 659 544 1381 
z
M 1991 3584 
L 1991 3584 
z
" transform="scale(0.015625)"/>
      <path id="DejaVuSans-62" d="M 3116 1747 
Q 3116 2381 2855 2742 
Q 2594 3103 2138 3103 
Q 1681 3103 1420 2742 
Q 1159 2381 1159 1747 
Q 1159 1113 1420 752 
Q 1681 391 2138 391 
Q 2594 391 2855 752 
Q 3116 1113 3116 1747 
z
M 1159 2969 
Q 1341 3281 1617 3432 
Q 1894 3584 2278 3584 
Q 2916 3584 3314 3078 
Q 3713 2572 3713 1747 
Q 3713 922 3314 415 
Q 2916 -91 2278 -91 
Q 1894 -91 1617 61 
Q 1341 213 1159 525 
L 1159 0 
L 581 0 
L 581 4863 
L 1159 4863 
L 1159 2969 
z
" transform="scale(0.015625)"/>
      <path id="DejaVuSans-6e" d="M 3513 2113 
L 3513 0 
L 2938 0 
L 2938 2094 
Q 2938 2591 2744 2837 
Q 2550 3084 2163 3084 
Q 1697 3084 1428 2787 
Q 1159 2491 1159 1978 
L 1159 0 
L 581 0 
L 581 3500 
L 1159 3500 
L 1159 2956 
Q 1366 3272 1645 3428 
Q 1925 3584 2291 3584 
Q 2894 3584 3203 3211 
Q 3513 2838 3513 2113 
z
" transform="scale(0.015625)"/>
     </defs>
     <use xlink:href="#DejaVuSans-54"/>
     <use xlink:href="#DejaVuSans-75" x="45.958984"/>
     <use xlink:href="#DejaVuSans-72" x="109.337891"/>
     <use xlink:href="#DejaVuSans-62" x="150.451172"/>
     <use xlink:href="#DejaVuSans-69" x="213.927734"/>
     <use xlink:href="#DejaVuSans-6e" x="241.710938"/>
     <use xlink:href="#DejaVuSans-65" x="305.089844"/>
    </g>
   </g>
   <g id="text_11">
    <!-- Heat exchanger, -->
    <g transform="translate(168.768 160.5859)scale(0.14 -0.14)">
     <defs>
      <path id="DejaVuSans-48" d="M 628 4666 
L 1259 4666 
L 1259 2753 
L 3553 2753 
L 3553 4666 
L 4184 4666 
L 4184 0 
L 3553 0 
L 3553 2222 
L 1259 2222 
L 1259 0 
L 628 0 
L 628 4666 
z
" transform="scale(0.015625)"/>
      <path id="DejaVuSans-61" d="M 2194 1759 
Q 1497 1759 1228 1600 
Q 959 1441 959 1056 
Q 959 750 1161 570 
Q 1363 391 1709 391 
Q 2188 391 2477 730 
Q 2766 1069 2766 1631 
L 2766 1759 
L 2194 1759 
z
M 3341 1997 
L 3341 0 
L 2766 0 
L 2766 531 
Q 2569 213 2275 61 
Q 1981 -91 1556 -91 
Q 1019 -91 701 211 
Q 384 513 384 1019 
Q 384 1609 779 1909 
Q 1175 2209 1959 2209 
L 2766 2209 
L 2766 2266 
Q 2766 2663 2505 2880 
Q 2244 3097 1772 3097 
Q 1472 3097 1187 3025 
Q 903 2953 641 2809 
L 641 3341 
Q 956 3463 1253 3523 
Q 1550 3584 1831 3584 
Q 2591 3584 2966 3190 
Q 3341 2797 3341 1997 
z
" transform="scale(0.015625)"/>
      <path id="DejaVuSans-74" d="M 1172 4494 
L 1172 3500 
L 2356 3500 
L 2356 3053 
L 1172 3053 
L 1172 1153 
Q 1172 725 1289 603 
Q 1406 481 1766 481 
L 2356 481 
L 2356 0 
L 1766 0 
Q 1100 0 847 248 
Q 594 497 594 1153 
L 594 3053 
L 172 3053 
L 172 3500 
L 594 3500 
L 594 4494 
L 1172 4494 
z
" transform="scale(0.015625)"/>
      <path id="DejaVuSans-20" transform="scale(0.015625)"/>
      <path id="DejaVuSans-78" d="M 3513 3500 
L 2247 1797 
L 3578 0 
L 2900 0 
L 1881 1375 
L 863 0 
L 184 0 
L 1544 1831 
L 300 3500 
L 978 3500 
L 1906 2253 
L 2834 3500 
L 3513 3500 
z
" transform="scale(0.015625)"/>
      <path id="DejaVuSans-63" d="M 3122 3366 
L 3122 2828 
Q 2878 2963 2633 3030 
Q 2388 3097 2138 3097 
Q 1578 3097 1268 2742 
Q 959 2388 959 1747 
Q 959 1106 1268 751 
Q 1578 397 2138 397 
Q 2388 397 2633 464 
Q 2878 531 3122 666 
L 3122 134 
Q 2881 22 2623 -34 
Q 2366 -91 2075 -91 
Q 1284 -91 818 406 
Q 353 903 353 1747 
Q 353 2603 823 3093 
Q 1294 3584 2113 3584 
Q 2378 3584 2631 3529 
Q 2884 3475 3122 3366 
z
" transform="scale(0.015625)"/>
      <path id="DejaVuSans-68" d="M 3513 2113 
L 3513 0 
L 2938 0 
L 2938 2094 
Q 2938 2591 2744 2837 
Q 2550 3084 2163 3084 
Q 1697 3084 1428 2787 
Q 1159 2491 1159 1978 
L 1159 0 
L 581 0 
L 581 4863 
L 1159 4863 
L 1159 2956 
Q 1366 3272 1645 3428 
Q 1925 3584 2291 3584 
Q 2894 3584 3203 3211 
Q 3513 2838 3513 2113 
z
" transform="scale(0.015625)"/>
      <path id="DejaVuSans-2c" d="M 750 794 
L 1409 794 
L 1409 256 
L 897 -744 
L 494 -744 
L 750 256 
L 750 794 
z
" transform="scale(0.015625)"/>
     </defs>
     <use xlink:href="#DejaVuSans-48"/>
     <use xlink:href="#DejaVuSans-65" x="75.195312"/>
     <use xlink:href="#DejaVuSans-61" x="136.71875"/>
     <use xlink:href="#DejaVuSans-74" x="197.998047"/>
     <use xlink:href="#DejaVuSans-20" x="237.207031"/>
     <use xlink:href="#DejaVuSans-65" x="268.994141"/>
     <use xlink:href="#DejaVuSans-78" x="328.767578"/>
     <use xlink:href="#DejaVuSans-63" x="386.197266"/>
     <use xlink:href="#DejaVuSans-68" x="441.177734"/>
     <use xlink:href="#DejaVuSans-61" x="504.556641"/>
     <use xlink:href="#DejaVuSans-6e" x="565.835938"/>
     <use xlink:href="#DejaVuSans-67" x="629.214844"/>
     <use xlink:href="#DejaVuSans-65" x="692.691406"/>
     <use xlink:href="#DejaVuSans-72" x="754.214844"/>
     <use xlink:href="#DejaVuSans-2c" x="795.328125"/>
    </g>
    <!-- tritium extractor -->
    <g transform="translate(168.768 176.262838)scale(0.14 -0.14)">
     <defs>
      <path id="DejaVuSans-6d" d="M 3328 2828 
Q 3544 3216 3844 3400 
Q 4144 3584 4550 3584 
Q 5097 3584 5394 3201 
Q 5691 2819 5691 2113 
L 5691 0 
L 5113 0 
L 5113 2094 
Q 5113 2597 4934 2840 
Q 4756 3084 4391 3084 
Q 3944 3084 3684 2787 
Q 3425 2491 3425 1978 
L 3425 0 
L 2847 0 
L 2847 2094 
Q 2847 2600 2669 2842 
Q 2491 3084 2119 3084 
Q 1678 3084 1418 2786 
Q 1159 2488 1159 1978 
L 1159 0 
L 581 0 
L 581 3500 
L 1159 3500 
L 1159 2956 
Q 1356 3278 1631 3431 
Q 1906 3584 2284 3584 
Q 2666 3584 2933 3390 
Q 3200 3197 3328 2828 
z
" transform="scale(0.015625)"/>
     </defs>
     <use xlink:href="#DejaVuSans-74"/>
     <use xlink:href="#DejaVuSans-72" x="39.208984"/>
     <use xlink:href="#DejaVuSans-69" x="80.322266"/>
     <use xlink:href="#DejaVuSans-74" x="108.105469"/>
     <use xlink:href="#DejaVuSans-69" x="147.314453"/>
     <use xlink:href="#DejaVuSans-75" x="175.097656"/>
     <use xlink:href="#DejaVuSans-6d" x="238.476562"/>
     <use xlink:href="#DejaVuSans-20" x="335.888672"/>
     <use xlink:href="#DejaVuSans-65" x="367.675781"/>
     <use xlink:href="#DejaVuSans-78" x="427.449219"/>
     <use xlink:href="#DejaVuSans-74" x="486.628906"/>
     <use xlink:href="#DejaVuSans-72" x="525.837891"/>
     <use xlink:href="#DejaVuSans-61" x="566.951172"/>
     <use xlink:href="#DejaVuSans-63" x="628.230469"/>
     <use xlink:href="#DejaVuSans-74" x="683.210938"/>
     <use xlink:href="#DejaVuSans-6f" x="722.419922"/>
     <use xlink:href="#DejaVuSans-72" x="783.601562"/>
    </g>
   </g>
   <g id="text_12">
    <!-- Tritium -->
    <g transform="translate(195.552 227.7859)scale(0.14 -0.14)">
     <use xlink:href="#DejaVuSans-54"/>
     <use xlink:href="#DejaVuSans-72" x="46.333984"/>
     <use xlink:href="#DejaVuSans-69" x="87.447266"/>
     <use xlink:href="#DejaVuSans-74" x="115.230469"/>
     <use xlink:href="#DejaVuSans-69" x="154.439453"/>
     <use xlink:href="#DejaVuSans-75" x="182.222656"/>
     <use xlink:href="#DejaVuSans-6d" x="245.601562"/>
    </g>
    <!-- market -->
    <g transform="translate(195.552 243.462837)scale(0.14 -0.14)">
     <defs>
      <path id="DejaVuSans-6b" d="M 581 4863 
L 1159 4863 
L 1159 1991 
L 2875 3500 
L 3609 3500 
L 1753 1863 
L 3688 0 
L 2938 0 
L 1159 1709 
L 1159 0 
L 581 0 
L 581 4863 
z
" transform="scale(0.015625)"/>
     </defs>
     <use xlink:href="#DejaVuSans-6d"/>
     <use xlink:href="#DejaVuSans-61" x="97.412109"/>
     <use xlink:href="#DejaVuSans-72" x="158.691406"/>
     <use xlink:href="#DejaVuSans-6b" x="199.804688"/>
     <use xlink:href="#DejaVuSans-65" x="254.089844"/>
     <use xlink:href="#DejaVuSans-74" x="315.613281"/>
    </g>
   </g>
   <g id="text_13">
    <!-- Tritium -->
    <g transform="translate(383.04 294.9859)scale(0.14 -0.14)">
     <use xlink:href="#DejaVuSans-54"/>
     <use xlink:href="#DejaVuSans-72" x="46.333984"/>
     <use xlink:href="#DejaVuSans-69" x="87.447266"/>
     <use xlink:href="#DejaVuSans-74" x="115.230469"/>
     <use xlink:href="#DejaVuSans-69" x="154.439453"/>
     <use xlink:href="#DejaVuSans-75" x="182.222656"/>
     <use xlink:href="#DejaVuSans-6d" x="245.601562"/>
    </g>
    <!-- production -->
    <g transform="translate(383.04 310.662838)scale(0.14 -0.14)">
     <defs>
      <path id="DejaVuSans-70" d="M 1159 525 
L 1159 -1331 
L 581 -1331 
L 581 3500 
L 1159 3500 
L 1159 2969 
Q 1341 3281 1617 3432 
Q 1894 3584 2278 3584 
Q 2916 3584 3314 3078 
Q 3713 2572 3713 1747 
Q 3713 922 3314 415 
Q 2916 -91 2278 -91 
Q 1894 -91 1617 61 
Q 1341 213 1159 525 
z
M 3116 1747 
Q 3116 2381 2855 2742 
Q 2594 3103 2138 3103 
Q 1681 3103 1420 2742 
Q 1159 2381 1159 1747 
Q 1159 1113 1420 752 
Q 1681 391 2138 391 
Q 2594 391 2855 752 
Q 3116 1113 3116 1747 
z
" transform="scale(0.015625)"/>
     </defs>
     <use xlink:href="#DejaVuSans-70"/>
     <use xlink:href="#DejaVuSans-72" x="63.476562"/>
     <use xlink:href="#DejaVuSans-6f" x="102.339844"/>
     <use xlink:href="#DejaVuSans-64" x="163.521484"/>
     <use xlink:href="#DejaVuSans-75" x="226.998047"/>
     <use xlink:href="#DejaVuSans-63" x="290.376953"/>
     <use xlink:href="#DejaVuSans-74" x="345.357422"/>
     <use xlink:href="#DejaVuSans-69" x="384.566406"/>
     <use xlink:href="#DejaVuSans-6f" x="412.349609"/>
     <use xlink:href="#DejaVuSans-6e" x="473.53125"/>
    </g>
   </g>
   <g id="text_14">
    <!-- Lithium -->
    <g transform="translate(686.592 362.1859)scale(0.14 -0.14)">
     <defs>
      <path id="DejaVuSans-4c" d="M 628 4666 
L 1259 4666 
L 1259 531 
L 3531 531 
L 3531 0 
L 628 0 
L 628 4666 
z
" transform="scale(0.015625)"/>
     </defs>
     <use xlink:href="#DejaVuSans-4c"/>
     <use xlink:href="#DejaVuSans-69" x="55.712891"/>
     <use xlink:href="#DejaVuSans-74" x="83.496094"/>
     <use xlink:href="#DejaVuSans-68" x="122.705078"/>
     <use xlink:href="#DejaVuSans-69" x="186.083984"/>
     <use xlink:href="#DejaVuSans-75" x="213.867188"/>
     <use xlink:href="#DejaVuSans-6d" x="277.246094"/>
    </g>
    <!-- market -->
    <g transform="translate(686.592 377.862838)scale(0.14 -0.14)">
     <use xlink:href="#DejaVuSans-6d"/>
     <use xlink:href="#DejaVuSans-61" x="97.412109"/>
     <use xlink:href="#DejaVuSans-72" x="158.691406"/>
     <use xlink:href="#DejaVuSans-6b" x="199.804688"/>
     <use xlink:href="#DejaVuSans-65" x="254.089844"/>
     <use xlink:href="#DejaVuSans-74" x="315.613281"/>
    </g>
   </g>
   <g id="text_15">
    <!-- Breeder -->
    <g transform="translate(124.128 227.7859)scale(0.14 -0.14)">
     <defs>
      <path id="DejaVuSans-42" d="M 1259 2228 
L 1259 519 
L 2272 519 
Q 2781 519 3026 730 
Q 3272 941 3272 1375 
Q 3272 1813 3026 2020 
Q 2781 2228 2272 2228 
L 1259 2228 
z
M 1259 4147 
L 1259 2741 
L 2194 2741 
Q 2656 2741 2882 2914 
Q 3109 3088 3109 3444 
Q 3109 3797 2882 3972 
Q 2656 4147 2194 4147 
L 1259 4147 
z
M 628 4666 
L 2241 4666 
Q 2963 4666 3353 4366 
Q 3744 4066 3744 3513 
Q 3744 3084 3544 2831 
Q 3344 2578 2956 2516 
Q 3422 2416 3680 2098 
Q 3938 1781 3938 1306 
Q 3938 681 3513 340 
Q 3088 0 2303 0 
L 628 0 
L 628 4666 
z
" transform="scale(0.015625)"/>
     </defs>
     <use xlink:href="#DejaVuSans-42"/>
     <use xlink:href="#DejaVuSans-72" x="68.603516"/>
     <use xlink:href="#DejaVuSans-65" x="107.466797"/>
     <use xlink:href="#DejaVuSans-65" x="168.990234"/>
     <use xlink:href="#DejaVuSans-64" x="230.513672"/>
     <use xlink:href="#DejaVuSans-65" x="293.990234"/>
     <use xlink:href="#DejaVuSans-72" x="355.513672"/>
    </g>
    <!-- blanket -->
    <g transform="translate(124.128 243.462837)scale(0.14 -0.14)">
     <defs>
      <path id="DejaVuSans-6c" d="M 603 4863 
L 1178 4863 
L 1178 0 
L 603 0 
L 603 4863 
z
" transform="scale(0.015625)"/>
     </defs>
     <use xlink:href="#DejaVuSans-62"/>
     <use xlink:href="#DejaVuSans-6c" x="63.476562"/>
     <use xlink:href="#DejaVuSans-61" x="91.259766"/>
     <use xlink:href="#DejaVuSans-6e" x="152.539062"/>
     <use xlink:href="#DejaVuSans-6b" x="215.917969"/>
     <use xlink:href="#DejaVuSans-65" x="270.203125"/>
     <use xlink:href="#DejaVuSans-74" x="331.726562"/>
    </g>
   </g>
   <g id="text_16">
    <!-- Pellet -->
    <g transform="translate(275.904 294.9859)scale(0.14 -0.14)">
     <use xlink:href="#DejaVuSans-50"/>
     <use xlink:href="#DejaVuSans-65" x="56.677734"/>
     <use xlink:href="#DejaVuSans-6c" x="118.201172"/>
     <use xlink:href="#DejaVuSans-6c" x="145.984375"/>
     <use xlink:href="#DejaVuSans-65" x="173.767578"/>
     <use xlink:href="#DejaVuSans-74" x="235.291016"/>
    </g>
    <!-- ignition -->
    <g transform="translate(275.904 310.662838)scale(0.14 -0.14)">
     <use xlink:href="#DejaVuSans-69"/>
     <use xlink:href="#DejaVuSans-67" x="27.783203"/>
     <use xlink:href="#DejaVuSans-6e" x="91.259766"/>
     <use xlink:href="#DejaVuSans-69" x="154.638672"/>
     <use xlink:href="#DejaVuSans-74" x="182.421875"/>
     <use xlink:href="#DejaVuSans-69" x="221.630859"/>
     <use xlink:href="#DejaVuSans-6f" x="249.414062"/>
     <use xlink:href="#DejaVuSans-6e" x="310.595703"/>
    </g>
   </g>
   <g id="text_17">
    <!-- Plasma -->
    <g transform="translate(311.616 335.3059)scale(0.14 -0.14)">
     <defs>
      <path id="DejaVuSans-73" d="M 2834 3397 
L 2834 2853 
Q 2591 2978 2328 3040 
Q 2066 3103 1784 3103 
Q 1356 3103 1142 2972 
Q 928 2841 928 2578 
Q 928 2378 1081 2264 
Q 1234 2150 1697 2047 
L 1894 2003 
Q 2506 1872 2764 1633 
Q 3022 1394 3022 966 
Q 3022 478 2636 193 
Q 2250 -91 1575 -91 
Q 1294 -91 989 -36 
Q 684 19 347 128 
L 347 722 
Q 666 556 975 473 
Q 1284 391 1588 391 
Q 1994 391 2212 530 
Q 2431 669 2431 922 
Q 2431 1156 2273 1281 
Q 2116 1406 1581 1522 
L 1381 1569 
Q 847 1681 609 1914 
Q 372 2147 372 2553 
Q 372 3047 722 3315 
Q 1072 3584 1716 3584 
Q 2034 3584 2315 3537 
Q 2597 3491 2834 3397 
z
" transform="scale(0.015625)"/>
     </defs>
     <use xlink:href="#DejaVuSans-50"/>
     <use xlink:href="#DejaVuSans-6c" x="60.302734"/>
     <use xlink:href="#DejaVuSans-61" x="88.085938"/>
     <use xlink:href="#DejaVuSans-73" x="149.365234"/>
     <use xlink:href="#DejaVuSans-6d" x="201.464844"/>
     <use xlink:href="#DejaVuSans-61" x="298.876953"/>
    </g>
    <!-- physics (IFE) -->
    <g transform="translate(311.616 350.982838)scale(0.14 -0.14)">
     <defs>
      <path id="DejaVuSans-79" d="M 2059 -325 
Q 1816 -950 1584 -1140 
Q 1353 -1331 966 -1331 
L 506 -1331 
L 506 -850 
L 844 -850 
Q 1081 -850 1212 -737 
Q 1344 -625 1503 -206 
L 1606 56 
L 191 3500 
L 800 3500 
L 1894 763 
L 2988 3500 
L 3597 3500 
L 2059 -325 
z
" transform="scale(0.015625)"/>
      <path id="DejaVuSans-28" d="M 1984 4856 
Q 1566 4138 1362 3434 
Q 1159 2731 1159 2009 
Q 1159 1288 1364 580 
Q 1569 -128 1984 -844 
L 1484 -844 
Q 1016 -109 783 600 
Q 550 1309 550 2009 
Q 550 2706 781 3412 
Q 1013 4119 1484 4856 
L 1984 4856 
z
" transform="scale(0.015625)"/>
      <path id="DejaVuSans-49" d="M 628 4666 
L 1259 4666 
L 1259 0 
L 628 0 
L 628 4666 
z
" transform="scale(0.015625)"/>
      <path id="DejaVuSans-46" d="M 628 4666 
L 3309 4666 
L 3309 4134 
L 1259 4134 
L 1259 2759 
L 3109 2759 
L 3109 2228 
L 1259 2228 
L 1259 0 
L 628 0 
L 628 4666 
z
" transform="scale(0.015625)"/>
      <path id="DejaVuSans-45" d="M 628 4666 
L 3578 4666 
L 3578 4134 
L 1259 4134 
L 1259 2753 
L 3481 2753 
L 3481 2222 
L 1259 2222 
L 1259 531 
L 3634 531 
L 3634 0 
L 628 0 
L 628 4666 
z
" transform="scale(0.015625)"/>
      <path id="DejaVuSans-29" d="M 513 4856 
L 1013 4856 
Q 1481 4119 1714 3412 
Q 1947 2706 1947 2009 
Q 1947 1309 1714 600 
Q 1481 -109 1013 -844 
L 513 -844 
Q 928 -128 1133 580 
Q 1338 1288 1338 2009 
Q 1338 2731 1133 3434 
Q 928 4138 513 4856 
z
" transform="scale(0.015625)"/>
     </defs>
     <use xlink:href="#DejaVuSans-70"/>
     <use xlink:href="#DejaVuSans-68" x="63.476562"/>
     <use xlink:href="#DejaVuSans-79" x="126.855469"/>
     <use xlink:href="#DejaVuSans-73" x="186.035156"/>
     <use xlink:href="#DejaVuSans-69" x="238.134766"/>
     <use xlink:href="#DejaVuSans-63" x="265.917969"/>
     <use xlink:href="#DejaVuSans-73" x="320.898438"/>
     <use xlink:href="#DejaVuSans-20" x="372.998047"/>
     <use xlink:href="#DejaVuSans-28" x="404.785156"/>
     <use xlink:href="#DejaVuSans-49" x="443.798828"/>
     <use xlink:href="#DejaVuSans-46" x="473.291016"/>
     <use xlink:href="#DejaVuSans-45" x="530.810547"/>
     <use xlink:href="#DejaVuSans-29" x="593.994141"/>
    </g>
   </g>
   <g id="text_18">
    <!-- Pellet -->
    <g transform="translate(204.48 429.3859)scale(0.14 -0.14)">
     <use xlink:href="#DejaVuSans-50"/>
     <use xlink:href="#DejaVuSans-65" x="56.677734"/>
     <use xlink:href="#DejaVuSans-6c" x="118.201172"/>
     <use xlink:href="#DejaVuSans-6c" x="145.984375"/>
     <use xlink:href="#DejaVuSans-65" x="173.767578"/>
     <use xlink:href="#DejaVuSans-74" x="235.291016"/>
    </g>
    <!-- design -->
    <g transform="translate(204.48 445.062837)scale(0.14 -0.14)">
     <use xlink:href="#DejaVuSans-64"/>
     <use xlink:href="#DejaVuSans-65" x="63.476562"/>
     <use xlink:href="#DejaVuSans-73" x="125"/>
     <use xlink:href="#DejaVuSans-69" x="177.099609"/>
     <use xlink:href="#DejaVuSans-67" x="204.882812"/>
     <use xlink:href="#DejaVuSans-6e" x="268.359375"/>
    </g>
   </g>
   <g id="text_19">
    <!-- Pellet -->
    <g transform="translate(141.984 294.9859)scale(0.14 -0.14)">
     <use xlink:href="#DejaVuSans-50"/>
     <use xlink:href="#DejaVuSans-65" x="56.677734"/>
     <use xlink:href="#DejaVuSans-6c" x="118.201172"/>
     <use xlink:href="#DejaVuSans-6c" x="145.984375"/>
     <use xlink:href="#DejaVuSans-65" x="173.767578"/>
     <use xlink:href="#DejaVuSans-74" x="235.291016"/>
    </g>
    <!-- production -->
    <g transform="translate(141.984 310.662838)scale(0.14 -0.14)">
     <use xlink:href="#DejaVuSans-70"/>
     <use xlink:href="#DejaVuSans-72" x="63.476562"/>
     <use xlink:href="#DejaVuSans-6f" x="102.339844"/>
     <use xlink:href="#DejaVuSans-64" x="163.521484"/>
     <use xlink:href="#DejaVuSans-75" x="226.998047"/>
     <use xlink:href="#DejaVuSans-63" x="290.376953"/>
     <use xlink:href="#DejaVuSans-74" x="345.357422"/>
     <use xlink:href="#DejaVuSans-69" x="384.566406"/>
     <use xlink:href="#DejaVuSans-6f" x="412.349609"/>
     <use xlink:href="#DejaVuSans-6e" x="473.53125"/>
    </g>
   </g>
   <g id="text_20">
    <!-- Pellet -->
    <g transform="translate(120.5568 429.3859)scale(0.14 -0.14)">
     <use xlink:href="#DejaVuSans-50"/>
     <use xlink:href="#DejaVuSans-65" x="56.677734"/>
     <use xlink:href="#DejaVuSans-6c" x="118.201172"/>
     <use xlink:href="#DejaVuSans-6c" x="145.984375"/>
     <use xlink:href="#DejaVuSans-65" x="173.767578"/>
     <use xlink:href="#DejaVuSans-74" x="235.291016"/>
    </g>
    <!-- injection -->
    <g transform="translate(120.5568 445.062837)scale(0.14 -0.14)">
     <defs>
      <path id="DejaVuSans-6a" d="M 603 3500 
L 1178 3500 
L 1178 -63 
Q 1178 -731 923 -1031 
Q 669 -1331 103 -1331 
L -116 -1331 
L -116 -844 
L 38 -844 
Q 366 -844 484 -692 
Q 603 -541 603 -63 
L 603 3500 
z
M 603 4863 
L 1178 4863 
L 1178 4134 
L 603 4134 
L 603 4863 
z
" transform="scale(0.015625)"/>
     </defs>
     <use xlink:href="#DejaVuSans-69"/>
     <use xlink:href="#DejaVuSans-6e" x="27.783203"/>
     <use xlink:href="#DejaVuSans-6a" x="91.162109"/>
     <use xlink:href="#DejaVuSans-65" x="118.945312"/>
     <use xlink:href="#DejaVuSans-63" x="180.46875"/>
     <use xlink:href="#DejaVuSans-74" x="235.449219"/>
     <use xlink:href="#DejaVuSans-69" x="274.658203"/>
     <use xlink:href="#DejaVuSans-6f" x="302.441406"/>
     <use xlink:href="#DejaVuSans-6e" x="363.623047"/>
    </g>
   </g>
   <g id="text_21">
    <!-- Laser -->
    <g transform="translate(204.48 294.9859)scale(0.14 -0.14)">
     <use xlink:href="#DejaVuSans-4c"/>
     <use xlink:href="#DejaVuSans-61" x="55.712891"/>
     <use xlink:href="#DejaVuSans-73" x="116.992188"/>
     <use xlink:href="#DejaVuSans-65" x="169.091797"/>
     <use xlink:href="#DejaVuSans-72" x="230.615234"/>
    </g>
    <!-- system -->
    <g transform="translate(204.48 310.662838)scale(0.14 -0.14)">
     <use xlink:href="#DejaVuSans-73"/>
     <use xlink:href="#DejaVuSans-79" x="52.099609"/>
     <use xlink:href="#DejaVuSans-73" x="111.279297"/>
     <use xlink:href="#DejaVuSans-74" x="163.378906"/>
     <use xlink:href="#DejaVuSans-65" x="202.587891"/>
     <use xlink:href="#DejaVuSans-6d" x="264.111328"/>
    </g>
   </g>
   <g id="text_22">
    <!-- Lenses -->
    <g transform="translate(150.912 377.862838)scale(0.14 -0.14)">
     <use xlink:href="#DejaVuSans-4c"/>
     <use xlink:href="#DejaVuSans-65" x="53.962891"/>
     <use xlink:href="#DejaVuSans-6e" x="115.486328"/>
     <use xlink:href="#DejaVuSans-73" x="178.865234"/>
     <use xlink:href="#DejaVuSans-65" x="230.964844"/>
     <use xlink:href="#DejaVuSans-73" x="292.488281"/>
    </g>
   </g>
   <g id="text_23">
    <!-- Radioactive waste -->
    <g transform="translate(347.328 402.5059)scale(0.14 -0.14)">
     <defs>
      <path id="DejaVuSans-52" d="M 2841 2188 
Q 3044 2119 3236 1894 
Q 3428 1669 3622 1275 
L 4263 0 
L 3584 0 
L 2988 1197 
Q 2756 1666 2539 1819 
Q 2322 1972 1947 1972 
L 1259 1972 
L 1259 0 
L 628 0 
L 628 4666 
L 2053 4666 
Q 2853 4666 3247 4331 
Q 3641 3997 3641 3322 
Q 3641 2881 3436 2590 
Q 3231 2300 2841 2188 
z
M 1259 4147 
L 1259 2491 
L 2053 2491 
Q 2509 2491 2742 2702 
Q 2975 2913 2975 3322 
Q 2975 3731 2742 3939 
Q 2509 4147 2053 4147 
L 1259 4147 
z
" transform="scale(0.015625)"/>
      <path id="DejaVuSans-76" d="M 191 3500 
L 800 3500 
L 1894 563 
L 2988 3500 
L 3597 3500 
L 2284 0 
L 1503 0 
L 191 3500 
z
" transform="scale(0.015625)"/>
     </defs>
     <use xlink:href="#DejaVuSans-52"/>
     <use xlink:href="#DejaVuSans-61" x="67.232422"/>
     <use xlink:href="#DejaVuSans-64" x="128.511719"/>
     <use xlink:href="#DejaVuSans-69" x="191.988281"/>
     <use xlink:href="#DejaVuSans-6f" x="219.771484"/>
     <use xlink:href="#DejaVuSans-61" x="280.953125"/>
     <use xlink:href="#DejaVuSans-63" x="342.232422"/>
     <use xlink:href="#DejaVuSans-74" x="397.212891"/>
     <use xlink:href="#DejaVuSans-69" x="436.421875"/>
     <use xlink:href="#DejaVuSans-76" x="464.205078"/>
     <use xlink:href="#DejaVuSans-65" x="523.384766"/>
     <use xlink:href="#DejaVuSans-20" x="584.908203"/>
     <use xlink:href="#DejaVuSans-77" x="616.695312"/>
     <use xlink:href="#DejaVuSans-61" x="698.482422"/>
     <use xlink:href="#DejaVuSans-73" x="759.761719"/>
     <use xlink:href="#DejaVuSans-74" x="811.861328"/>
     <use xlink:href="#DejaVuSans-65" x="851.070312"/>
    </g>
    <!-- management -->
    <g transform="translate(347.328 418.182837)scale(0.14 -0.14)">
     <use xlink:href="#DejaVuSans-6d"/>
     <use xlink:href="#DejaVuSans-61" x="97.412109"/>
     <use xlink:href="#DejaVuSans-6e" x="158.691406"/>
     <use xlink:href="#DejaVuSans-61" x="222.070312"/>
     <use xlink:href="#DejaVuSans-67" x="283.349609"/>
     <use xlink:href="#DejaVuSans-65" x="346.826172"/>
     <use xlink:href="#DejaVuSans-6d" x="408.349609"/>
     <use xlink:href="#DejaVuSans-65" x="505.761719"/>
     <use xlink:href="#DejaVuSans-6e" x="567.285156"/>
     <use xlink:href="#DejaVuSans-74" x="630.664062"/>
    </g>
   </g>
   <g id="text_24">
    <!-- Structure -->
    <g transform="translate(133.056 512.262837)scale(0.14 -0.14)">
     <defs>
      <path id="DejaVuSans-53" d="M 3425 4513 
L 3425 3897 
Q 3066 4069 2747 4153 
Q 2428 4238 2131 4238 
Q 1616 4238 1336 4038 
Q 1056 3838 1056 3469 
Q 1056 3159 1242 3001 
Q 1428 2844 1947 2747 
L 2328 2669 
Q 3034 2534 3370 2195 
Q 3706 1856 3706 1288 
Q 3706 609 3251 259 
Q 2797 -91 1919 -91 
Q 1588 -91 1214 -16 
Q 841 59 441 206 
L 441 856 
Q 825 641 1194 531 
Q 1563 422 1919 422 
Q 2459 422 2753 634 
Q 3047 847 3047 1241 
Q 3047 1584 2836 1778 
Q 2625 1972 2144 2069 
L 1759 2144 
Q 1053 2284 737 2584 
Q 422 2884 422 3419 
Q 422 4038 858 4394 
Q 1294 4750 2059 4750 
Q 2388 4750 2728 4690 
Q 3069 4631 3425 4513 
z
" transform="scale(0.015625)"/>
     </defs>
     <use xlink:href="#DejaVuSans-53"/>
     <use xlink:href="#DejaVuSans-74" x="63.476562"/>
     <use xlink:href="#DejaVuSans-72" x="102.685547"/>
     <use xlink:href="#DejaVuSans-75" x="143.798828"/>
     <use xlink:href="#DejaVuSans-63" x="207.177734"/>
     <use xlink:href="#DejaVuSans-74" x="262.158203"/>
     <use xlink:href="#DejaVuSans-75" x="301.367188"/>
     <use xlink:href="#DejaVuSans-72" x="364.746094"/>
     <use xlink:href="#DejaVuSans-65" x="403.609375"/>
    </g>
   </g>
   <g id="text_25">
    <!-- Steel -->
    <g transform="translate(275.904 579.462837)scale(0.14 -0.14)">
     <use xlink:href="#DejaVuSans-53"/>
     <use xlink:href="#DejaVuSans-74" x="63.476562"/>
     <use xlink:href="#DejaVuSans-65" x="102.685547"/>
     <use xlink:href="#DejaVuSans-65" x="164.208984"/>
     <use xlink:href="#DejaVuSans-6c" x="225.732422"/>
    </g>
   </g>
   <g id="text_26">
    <!-- First -->
    <g transform="translate(204.48 563.7859)scale(0.14 -0.14)">
     <use xlink:href="#DejaVuSans-46"/>
     <use xlink:href="#DejaVuSans-69" x="50.269531"/>
     <use xlink:href="#DejaVuSans-72" x="78.052734"/>
     <use xlink:href="#DejaVuSans-73" x="119.166016"/>
     <use xlink:href="#DejaVuSans-74" x="171.265625"/>
    </g>
    <!-- wall -->
    <g transform="translate(204.48 579.462837)scale(0.14 -0.14)">
     <use xlink:href="#DejaVuSans-77"/>
     <use xlink:href="#DejaVuSans-61" x="81.787109"/>
     <use xlink:href="#DejaVuSans-6c" x="143.066406"/>
     <use xlink:href="#DejaVuSans-6c" x="170.849609"/>
    </g>
   </g>
   <g id="text_27">
    <!-- Heat -->
    <g transform="translate(150.912 577.2259)scale(0.14 -0.14)">
     <use xlink:href="#DejaVuSans-48"/>
     <use xlink:href="#DejaVuSans-65" x="75.195312"/>
     <use xlink:href="#DejaVuSans-61" x="136.71875"/>
     <use xlink:href="#DejaVuSans-74" x="197.998047"/>
    </g>
    <!-- regulation -->
    <g transform="translate(150.912 592.902837)scale(0.14 -0.14)">
     <use xlink:href="#DejaVuSans-72"/>
     <use xlink:href="#DejaVuSans-65" x="38.863281"/>
     <use xlink:href="#DejaVuSans-67" x="100.386719"/>
     <use xlink:href="#DejaVuSans-75" x="163.863281"/>
     <use xlink:href="#DejaVuSans-6c" x="227.242188"/>
     <use xlink:href="#DejaVuSans-61" x="255.025391"/>
     <use xlink:href="#DejaVuSans-74" x="316.304688"/>
     <use xlink:href="#DejaVuSans-69" x="355.513672"/>
     <use xlink:href="#DejaVuSans-6f" x="383.296875"/>
     <use xlink:href="#DejaVuSans-6e" x="444.478516"/>
    </g>
   </g>
   <g id="text_28">
    <!-- Simplified Inertial Fusion Research -->
    <g transform="translate(334.471406 76.944)scale(0.14 -0.14)">
     <defs>
      <path id="DejaVuSans-Bold-53" d="M 3834 4519 
L 3834 3531 
Q 3450 3703 3084 3790 
Q 2719 3878 2394 3878 
Q 1963 3878 1756 3759 
Q 1550 3641 1550 3391 
Q 1550 3203 1689 3098 
Q 1828 2994 2194 2919 
L 2706 2816 
Q 3484 2659 3812 2340 
Q 4141 2022 4141 1434 
Q 4141 663 3683 286 
Q 3225 -91 2284 -91 
Q 1841 -91 1394 -6 
Q 947 78 500 244 
L 500 1259 
Q 947 1022 1364 901 
Q 1781 781 2169 781 
Q 2563 781 2772 912 
Q 2981 1044 2981 1288 
Q 2981 1506 2839 1625 
Q 2697 1744 2272 1838 
L 1806 1941 
Q 1106 2091 782 2419 
Q 459 2747 459 3303 
Q 459 4000 909 4375 
Q 1359 4750 2203 4750 
Q 2588 4750 2994 4692 
Q 3400 4634 3834 4519 
z
" transform="scale(0.015625)"/>
      <path id="DejaVuSans-Bold-6d" d="M 3781 2919 
Q 3994 3244 4286 3414 
Q 4578 3584 4928 3584 
Q 5531 3584 5847 3212 
Q 6163 2841 6163 2131 
L 6163 0 
L 5038 0 
L 5038 1825 
Q 5041 1866 5042 1909 
Q 5044 1953 5044 2034 
Q 5044 2406 4934 2573 
Q 4825 2741 4581 2741 
Q 4263 2741 4089 2478 
Q 3916 2216 3909 1719 
L 3909 0 
L 2784 0 
L 2784 1825 
Q 2784 2406 2684 2573 
Q 2584 2741 2328 2741 
Q 2006 2741 1831 2477 
Q 1656 2213 1656 1722 
L 1656 0 
L 531 0 
L 531 3500 
L 1656 3500 
L 1656 2988 
Q 1863 3284 2130 3434 
Q 2397 3584 2719 3584 
Q 3081 3584 3359 3409 
Q 3638 3234 3781 2919 
z
" transform="scale(0.015625)"/>
      <path id="DejaVuSans-Bold-70" d="M 1656 506 
L 1656 -1331 
L 538 -1331 
L 538 3500 
L 1656 3500 
L 1656 2988 
Q 1888 3294 2169 3439 
Q 2450 3584 2816 3584 
Q 3463 3584 3878 3070 
Q 4294 2556 4294 1747 
Q 4294 938 3878 423 
Q 3463 -91 2816 -91 
Q 2450 -91 2169 54 
Q 1888 200 1656 506 
z
M 2400 2772 
Q 2041 2772 1848 2508 
Q 1656 2244 1656 1747 
Q 1656 1250 1848 986 
Q 2041 722 2400 722 
Q 2759 722 2948 984 
Q 3138 1247 3138 1747 
Q 3138 2247 2948 2509 
Q 2759 2772 2400 2772 
z
" transform="scale(0.015625)"/>
      <path id="DejaVuSans-Bold-66" d="M 2841 4863 
L 2841 4128 
L 2222 4128 
Q 1984 4128 1890 4042 
Q 1797 3956 1797 3744 
L 1797 3500 
L 2753 3500 
L 2753 2700 
L 1797 2700 
L 1797 0 
L 678 0 
L 678 2700 
L 122 2700 
L 122 3500 
L 678 3500 
L 678 3744 
Q 678 4316 997 4589 
Q 1316 4863 1984 4863 
L 2841 4863 
z
" transform="scale(0.015625)"/>
      <path id="DejaVuSans-Bold-64" d="M 2919 2988 
L 2919 4863 
L 4044 4863 
L 4044 0 
L 2919 0 
L 2919 506 
Q 2688 197 2409 53 
Q 2131 -91 1766 -91 
Q 1119 -91 703 423 
Q 288 938 288 1747 
Q 288 2556 703 3070 
Q 1119 3584 1766 3584 
Q 2128 3584 2408 3439 
Q 2688 3294 2919 2988 
z
M 2181 722 
Q 2541 722 2730 984 
Q 2919 1247 2919 1747 
Q 2919 2247 2730 2509 
Q 2541 2772 2181 2772 
Q 1825 2772 1636 2509 
Q 1447 2247 1447 1747 
Q 1447 1247 1636 984 
Q 1825 722 2181 722 
z
" transform="scale(0.015625)"/>
      <path id="DejaVuSans-Bold-49" d="M 588 4666 
L 1791 4666 
L 1791 0 
L 588 0 
L 588 4666 
z
" transform="scale(0.015625)"/>
      <path id="DejaVuSans-Bold-72" d="M 3138 2547 
Q 2991 2616 2845 2648 
Q 2700 2681 2553 2681 
Q 2122 2681 1889 2404 
Q 1656 2128 1656 1613 
L 1656 0 
L 538 0 
L 538 3500 
L 1656 3500 
L 1656 2925 
Q 1872 3269 2151 3426 
Q 2431 3584 2822 3584 
Q 2878 3584 2943 3579 
Q 3009 3575 3134 3559 
L 3138 2547 
z
" transform="scale(0.015625)"/>
      <path id="DejaVuSans-Bold-46" d="M 588 4666 
L 3834 4666 
L 3834 3756 
L 1791 3756 
L 1791 2888 
L 3713 2888 
L 3713 1978 
L 1791 1978 
L 1791 0 
L 588 0 
L 588 4666 
z
" transform="scale(0.015625)"/>
      <path id="DejaVuSans-Bold-73" d="M 3272 3391 
L 3272 2541 
Q 2913 2691 2578 2766 
Q 2244 2841 1947 2841 
Q 1628 2841 1473 2761 
Q 1319 2681 1319 2516 
Q 1319 2381 1436 2309 
Q 1553 2238 1856 2203 
L 2053 2175 
Q 2913 2066 3209 1816 
Q 3506 1566 3506 1031 
Q 3506 472 3093 190 
Q 2681 -91 1863 -91 
Q 1516 -91 1145 -36 
Q 775 19 384 128 
L 384 978 
Q 719 816 1070 734 
Q 1422 653 1784 653 
Q 2113 653 2278 743 
Q 2444 834 2444 1013 
Q 2444 1163 2330 1236 
Q 2216 1309 1875 1350 
L 1678 1375 
Q 931 1469 631 1722 
Q 331 1975 331 2491 
Q 331 3047 712 3315 
Q 1094 3584 1881 3584 
Q 2191 3584 2531 3537 
Q 2872 3491 3272 3391 
z
" transform="scale(0.015625)"/>
      <path id="DejaVuSans-Bold-52" d="M 2297 2597 
Q 2675 2597 2839 2737 
Q 3003 2878 3003 3200 
Q 3003 3519 2839 3656 
Q 2675 3794 2297 3794 
L 1791 3794 
L 1791 2597 
L 2297 2597 
z
M 1791 1766 
L 1791 0 
L 588 0 
L 588 4666 
L 2425 4666 
Q 3347 4666 3776 4356 
Q 4206 4047 4206 3378 
Q 4206 2916 3982 2619 
Q 3759 2322 3309 2181 
Q 3556 2125 3751 1926 
Q 3947 1728 4147 1325 
L 4800 0 
L 3519 0 
L 2950 1159 
Q 2778 1509 2601 1637 
Q 2425 1766 2131 1766 
L 1791 1766 
z
" transform="scale(0.015625)"/>
      <path id="DejaVuSans-Bold-63" d="M 3366 3391 
L 3366 2478 
Q 3138 2634 2908 2709 
Q 2678 2784 2431 2784 
Q 1963 2784 1702 2511 
Q 1441 2238 1441 1747 
Q 1441 1256 1702 982 
Q 1963 709 2431 709 
Q 2694 709 2930 787 
Q 3166 866 3366 1019 
L 3366 103 
Q 3103 6 2833 -42 
Q 2563 -91 2291 -91 
Q 1344 -91 809 395 
Q 275 881 275 1747 
Q 275 2613 809 3098 
Q 1344 3584 2291 3584 
Q 2566 3584 2833 3536 
Q 3100 3488 3366 3391 
z
" transform="scale(0.015625)"/>
     </defs>
     <use xlink:href="#DejaVuSans-Bold-53"/>
     <use xlink:href="#DejaVuSans-Bold-69" x="72.021484"/>
     <use xlink:href="#DejaVuSans-Bold-6d" x="106.298828"/>
     <use xlink:href="#DejaVuSans-Bold-70" x="210.498047"/>
     <use xlink:href="#DejaVuSans-Bold-6c" x="282.080078"/>
     <use xlink:href="#DejaVuSans-Bold-69" x="316.357422"/>
     <use xlink:href="#DejaVuSans-Bold-66" x="350.634766"/>
     <use xlink:href="#DejaVuSans-Bold-69" x="394.140625"/>
     <use xlink:href="#DejaVuSans-Bold-65" x="428.417969"/>
     <use xlink:href="#DejaVuSans-Bold-64" x="496.240234"/>
     <use xlink:href="#DejaVuSans-Bold-20" x="567.822266"/>
     <use xlink:href="#DejaVuSans-Bold-49" x="602.636719"/>
     <use xlink:href="#DejaVuSans-Bold-6e" x="639.84375"/>
     <use xlink:href="#DejaVuSans-Bold-65" x="711.035156"/>
     <use xlink:href="#DejaVuSans-Bold-72" x="778.857422"/>
     <use xlink:href="#DejaVuSans-Bold-74" x="828.173828"/>
     <use xlink:href="#DejaVuSans-Bold-69" x="875.976562"/>
     <use xlink:href="#DejaVuSans-Bold-61" x="910.253906"/>
     <use xlink:href="#DejaVuSans-Bold-6c" x="977.734375"/>
     <use xlink:href="#DejaVuSans-Bold-20" x="1012.011719"/>
     <use xlink:href="#DejaVuSans-Bold-46" x="1046.826172"/>
     <use xlink:href="#DejaVuSans-Bold-75" x="1110.136719"/>
     <use xlink:href="#DejaVuSans-Bold-73" x="1181.328125"/>
     <use xlink:href="#DejaVuSans-Bold-69" x="1240.849609"/>
     <use xlink:href="#DejaVuSans-Bold-6f" x="1275.126953"/>
     <use xlink:href="#DejaVuSans-Bold-6e" x="1343.828125"/>
     <use xlink:href="#DejaVuSans-Bold-20" x="1415.019531"/>
     <use xlink:href="#DejaVuSans-Bold-52" x="1449.833984"/>
     <use xlink:href="#DejaVuSans-Bold-65" x="1526.835938"/>
     <use xlink:href="#DejaVuSans-Bold-73" x="1594.658203"/>
     <use xlink:href="#DejaVuSans-Bold-65" x="1654.179688"/>
     <use xlink:href="#DejaVuSans-Bold-61" x="1722.001953"/>
     <use xlink:href="#DejaVuSans-Bold-72" x="1789.482422"/>
     <use xlink:href="#DejaVuSans-Bold-63" x="1838.798828"/>
     <use xlink:href="#DejaVuSans-Bold-68" x="1898.076172"/>
    </g>
   </g>
   <g id="legend_1">
    <g id="patch_5">
     <path d="M 610.648125 609.168 
L 821.04 609.168 
Q 823.44 609.168 823.44 606.768 
L 823.44 484.67175 
Q 823.44 482.27175 821.04 482.27175 
L 610.648125 482.27175 
Q 608.248125 482.27175 608.248125 484.67175 
L 608.248125 606.768 
Q 608.248125 609.168 610.648125 609.168 
z
" style="fill: #ffffff; opacity: 0.8; stroke: #cccccc; stroke-linejoin: miter"/>
    </g>
    <g id="line2d_42">
     <path d="M 613.048125 491.989875 
L 637.048125 491.989875 
" style="fill: none; stroke-dasharray: 1.5,2.475; stroke-dashoffset: 0; stroke: #ff7f0e; stroke-width: 1.5"/>
     <g>
      <use xlink:href="#m6774a03ed6" x="637.048125" y="491.989875" style="fill: #ff7f0e; stroke: #ff7f0e; stroke-linejoin: miter"/>
     </g>
    </g>
    <g id="line2d_43">
     <path d="M 613.048125 491.989875 
L 637.048125 491.989875 
" style="fill: none; stroke-dasharray: 1.5,2.475; stroke-dashoffset: 0; stroke: #ff7f0e; stroke-width: 1.5"/>
     <g>
      <use xlink:href="#m6774a03ed6" x="637.048125" y="491.989875" style="fill: #ff7f0e; stroke: #ff7f0e; stroke-linejoin: miter"/>
     </g>
    </g>
    <g id="text_29">
     <!-- Evolution driven by research -->
     <g transform="translate(646.648125 496.189875)scale(0.12 -0.12)">
      <use xlink:href="#DejaVuSans-45"/>
      <use xlink:href="#DejaVuSans-76" x="63.183594"/>
      <use xlink:href="#DejaVuSans-6f" x="122.363281"/>
      <use xlink:href="#DejaVuSans-6c" x="183.544922"/>
      <use xlink:href="#DejaVuSans-75" x="211.328125"/>
      <use xlink:href="#DejaVuSans-74" x="274.707031"/>
      <use xlink:href="#DejaVuSans-69" x="313.916016"/>
      <use xlink:href="#DejaVuSans-6f" x="341.699219"/>
      <use xlink:href="#DejaVuSans-6e" x="402.880859"/>
      <use xlink:href="#DejaVuSans-20" x="466.259766"/>
      <use xlink:href="#DejaVuSans-64" x="498.046875"/>
      <use xlink:href="#DejaVuSans-72" x="561.523438"/>
      <use xlink:href="#DejaVuSans-69" x="602.636719"/>
      <use xlink:href="#DejaVuSans-76" x="630.419922"/>
      <use xlink:href="#DejaVuSans-65" x="689.599609"/>
      <use xlink:href="#DejaVuSans-6e" x="751.123047"/>
      <use xlink:href="#DejaVuSans-20" x="814.501953"/>
      <use xlink:href="#DejaVuSans-62" x="846.289062"/>
      <use xlink:href="#DejaVuSans-79" x="909.765625"/>
      <use xlink:href="#DejaVuSans-20" x="968.945312"/>
      <use xlink:href="#DejaVuSans-72" x="1000.732422"/>
      <use xlink:href="#DejaVuSans-65" x="1039.595703"/>
      <use xlink:href="#DejaVuSans-73" x="1101.119141"/>
      <use xlink:href="#DejaVuSans-65" x="1153.21875"/>
      <use xlink:href="#DejaVuSans-61" x="1214.742188"/>
      <use xlink:href="#DejaVuSans-72" x="1276.021484"/>
      <use xlink:href="#DejaVuSans-63" x="1314.884766"/>
      <use xlink:href="#DejaVuSans-68" x="1369.865234"/>
     </g>
    </g>
    <g id="line2d_44">
     <path d="M 613.048125 509.603625 
L 625.048125 509.603625 
L 637.048125 509.603625 
" style="fill: none; stroke-dasharray: 5.55,2.4; stroke-dashoffset: 0; stroke: #a9a9a9; stroke-width: 1.5"/>
    </g>
    <g id="text_30">
     <!-- Necessary link for reactor -->
     <g transform="translate(646.648125 513.803625)scale(0.12 -0.12)">
      <defs>
       <path id="DejaVuSans-4e" d="M 628 4666 
L 1478 4666 
L 3547 763 
L 3547 4666 
L 4159 4666 
L 4159 0 
L 3309 0 
L 1241 3903 
L 1241 0 
L 628 0 
L 628 4666 
z
" transform="scale(0.015625)"/>
       <path id="DejaVuSans-66" d="M 2375 4863 
L 2375 4384 
L 1825 4384 
Q 1516 4384 1395 4259 
Q 1275 4134 1275 3809 
L 1275 3500 
L 2222 3500 
L 2222 3053 
L 1275 3053 
L 1275 0 
L 697 0 
L 697 3053 
L 147 3053 
L 147 3500 
L 697 3500 
L 697 3744 
Q 697 4328 969 4595 
Q 1241 4863 1831 4863 
L 2375 4863 
z
" transform="scale(0.015625)"/>
      </defs>
      <use xlink:href="#DejaVuSans-4e"/>
      <use xlink:href="#DejaVuSans-65" x="74.804688"/>
      <use xlink:href="#DejaVuSans-63" x="136.328125"/>
      <use xlink:href="#DejaVuSans-65" x="191.308594"/>
      <use xlink:href="#DejaVuSans-73" x="252.832031"/>
      <use xlink:href="#DejaVuSans-73" x="304.931641"/>
      <use xlink:href="#DejaVuSans-61" x="357.03125"/>
      <use xlink:href="#DejaVuSans-72" x="418.310547"/>
      <use xlink:href="#DejaVuSans-79" x="459.423828"/>
      <use xlink:href="#DejaVuSans-20" x="518.603516"/>
      <use xlink:href="#DejaVuSans-6c" x="550.390625"/>
      <use xlink:href="#DejaVuSans-69" x="578.173828"/>
      <use xlink:href="#DejaVuSans-6e" x="605.957031"/>
      <use xlink:href="#DejaVuSans-6b" x="669.335938"/>
      <use xlink:href="#DejaVuSans-20" x="727.246094"/>
      <use xlink:href="#DejaVuSans-66" x="759.033203"/>
      <use xlink:href="#DejaVuSans-6f" x="794.238281"/>
      <use xlink:href="#DejaVuSans-72" x="855.419922"/>
      <use xlink:href="#DejaVuSans-20" x="896.533203"/>
      <use xlink:href="#DejaVuSans-72" x="928.320312"/>
      <use xlink:href="#DejaVuSans-65" x="967.183594"/>
      <use xlink:href="#DejaVuSans-61" x="1028.707031"/>
      <use xlink:href="#DejaVuSans-63" x="1089.986328"/>
      <use xlink:href="#DejaVuSans-74" x="1144.966797"/>
      <use xlink:href="#DejaVuSans-6f" x="1184.175781"/>
      <use xlink:href="#DejaVuSans-72" x="1245.357422"/>
     </g>
    </g>
    <g id="line2d_45">
     <path d="M 613.048125 527.217375 
L 625.048125 527.217375 
L 637.048125 527.217375 
" style="fill: none; stroke-dasharray: 9.6,2.4,1.5,2.4; stroke-dashoffset: 0; stroke: #d3d3d3; stroke-width: 1.5"/>
    </g>
    <g id="text_31">
     <!-- Less necessary link -->
     <g transform="translate(646.648125 531.417375)scale(0.12 -0.12)">
      <use xlink:href="#DejaVuSans-4c"/>
      <use xlink:href="#DejaVuSans-65" x="53.962891"/>
      <use xlink:href="#DejaVuSans-73" x="115.486328"/>
      <use xlink:href="#DejaVuSans-73" x="167.585938"/>
      <use xlink:href="#DejaVuSans-20" x="219.685547"/>
      <use xlink:href="#DejaVuSans-6e" x="251.472656"/>
      <use xlink:href="#DejaVuSans-65" x="314.851562"/>
      <use xlink:href="#DejaVuSans-63" x="376.375"/>
      <use xlink:href="#DejaVuSans-65" x="431.355469"/>
      <use xlink:href="#DejaVuSans-73" x="492.878906"/>
      <use xlink:href="#DejaVuSans-73" x="544.978516"/>
      <use xlink:href="#DejaVuSans-61" x="597.078125"/>
      <use xlink:href="#DejaVuSans-72" x="658.357422"/>
      <use xlink:href="#DejaVuSans-79" x="699.470703"/>
      <use xlink:href="#DejaVuSans-20" x="758.650391"/>
      <use xlink:href="#DejaVuSans-6c" x="790.4375"/>
      <use xlink:href="#DejaVuSans-69" x="818.220703"/>
      <use xlink:href="#DejaVuSans-6e" x="846.003906"/>
      <use xlink:href="#DejaVuSans-6b" x="909.382812"/>
     </g>
    </g>
    <g id="line2d_46">
     <defs>
      <path id="m6dfc6456a9" d="M 0 -3 
L -3 3 
L 3 3 
z
" style="stroke: #2ca02c; stroke-linejoin: miter"/>
     </defs>
     <g>
      <use xlink:href="#m6dfc6456a9" x="625.048125" y="544.831125" style="fill: #2ca02c; stroke: #2ca02c; stroke-linejoin: miter"/>
     </g>
    </g>
    <g id="text_32">
     <!-- Laser -->
     <g transform="translate(646.648125 549.031125)scale(0.12 -0.12)">
      <use xlink:href="#DejaVuSans-4c"/>
      <use xlink:href="#DejaVuSans-61" x="55.712891"/>
      <use xlink:href="#DejaVuSans-73" x="116.992188"/>
      <use xlink:href="#DejaVuSans-65" x="169.091797"/>
      <use xlink:href="#DejaVuSans-72" x="230.615234"/>
     </g>
    </g>
    <g id="line2d_47">
     <defs>
      <path id="meafc21debb" d="M -1.5 3 
L 0 1.5 
L 1.5 3 
L 3 1.5 
L 1.5 0 
L 3 -1.5 
L 1.5 -3 
L 0 -1.5 
L -1.5 -3 
L -3 -1.5 
L -1.5 0 
L -3 1.5 
z
" style="stroke: #d62728; stroke-linejoin: miter"/>
     </defs>
     <g>
      <use xlink:href="#meafc21debb" x="625.048125" y="562.444875" style="fill: #d62728; stroke: #d62728; stroke-linejoin: miter"/>
     </g>
    </g>
    <g id="text_33">
     <!-- Targets -->
     <g transform="translate(646.648125 566.644875)scale(0.12 -0.12)">
      <use xlink:href="#DejaVuSans-54"/>
      <use xlink:href="#DejaVuSans-61" x="44.583984"/>
      <use xlink:href="#DejaVuSans-72" x="105.863281"/>
      <use xlink:href="#DejaVuSans-67" x="145.226562"/>
      <use xlink:href="#DejaVuSans-65" x="208.703125"/>
      <use xlink:href="#DejaVuSans-74" x="270.226562"/>
      <use xlink:href="#DejaVuSans-73" x="309.435547"/>
     </g>
    </g>
    <g id="line2d_48">
     <defs>
      <path id="m28cb52a31d" d="M -0 4.242641 
L 4.242641 0 
L 0 -4.242641 
L -4.242641 -0 
z
" style="stroke: #9467bd; stroke-linejoin: miter"/>
     </defs>
     <g>
      <use xlink:href="#m28cb52a31d" x="625.048125" y="580.058625" style="fill: #9467bd; stroke: #9467bd; stroke-linejoin: miter"/>
     </g>
    </g>
    <g id="text_34">
     <!-- Struct -->
     <g transform="translate(646.648125 584.258625)scale(0.12 -0.12)">
      <use xlink:href="#DejaVuSans-53"/>
      <use xlink:href="#DejaVuSans-74" x="63.476562"/>
      <use xlink:href="#DejaVuSans-72" x="102.685547"/>
      <use xlink:href="#DejaVuSans-75" x="143.798828"/>
      <use xlink:href="#DejaVuSans-63" x="207.177734"/>
      <use xlink:href="#DejaVuSans-74" x="262.158203"/>
     </g>
    </g>
    <g id="line2d_49">
     <defs>
      <path id="mec9a7e2cb2" d="M -3 3 
L 3 3 
L 3 -3 
L -3 -3 
z
" style="stroke: #8c564b; stroke-linejoin: miter"/>
     </defs>
     <g>
      <use xlink:href="#mec9a7e2cb2" x="625.048125" y="597.672375" style="fill: #8c564b; stroke: #8c564b; stroke-linejoin: miter"/>
     </g>
    </g>
    <g id="text_35">
     <!-- Plasma Physics -->
     <g transform="translate(646.648125 601.872375)scale(0.12 -0.12)">
      <use xlink:href="#DejaVuSans-50"/>
      <use xlink:href="#DejaVuSans-6c" x="60.302734"/>
      <use xlink:href="#DejaVuSans-61" x="88.085938"/>
      <use xlink:href="#DejaVuSans-73" x="149.365234"/>
      <use xlink:href="#DejaVuSans-6d" x="201.464844"/>
      <use xlink:href="#DejaVuSans-61" x="298.876953"/>
      <use xlink:href="#DejaVuSans-20" x="360.15625"/>
      <use xlink:href="#DejaVuSans-50" x="391.943359"/>
      <use xlink:href="#DejaVuSans-68" x="452.246094"/>
      <use xlink:href="#DejaVuSans-79" x="515.625"/>
      <use xlink:href="#DejaVuSans-73" x="574.804688"/>
      <use xlink:href="#DejaVuSans-69" x="626.904297"/>
      <use xlink:href="#DejaVuSans-63" x="654.6875"/>
      <use xlink:href="#DejaVuSans-73" x="709.667969"/>
     </g>
    </g>
   </g>
  </g>
 </g>
 <defs>
  <clipPath id="p68b6b2a583">
   <rect x="115.2" y="82.944" width="714.24" height="532.224"/>
  </clipPath>
 </defs>
</svg>
